%TF.GenerationSoftware,KiCad,Pcbnew,8.0.1*%
%TF.CreationDate,2024-10-23T09:07:35+02:00*%
%TF.ProjectId,StealthKitty.kicad_pro,53746561-6c74-4684-9b69-7474792e6b69,rev?*%
%TF.SameCoordinates,Original*%
%TF.FileFunction,Soldermask,Bot*%
%TF.FilePolarity,Negative*%
%FSLAX46Y46*%
G04 Gerber Fmt 4.6, Leading zero omitted, Abs format (unit mm)*
G04 Created by KiCad (PCBNEW 8.0.1) date 2024-10-23 09:07:35*
%MOMM*%
%LPD*%
G01*
G04 APERTURE LIST*
G04 Aperture macros list*
%AMRoundRect*
0 Rectangle with rounded corners*
0 $1 Rounding radius*
0 $2 $3 $4 $5 $6 $7 $8 $9 X,Y pos of 4 corners*
0 Add a 4 corners polygon primitive as box body*
4,1,4,$2,$3,$4,$5,$6,$7,$8,$9,$2,$3,0*
0 Add four circle primitives for the rounded corners*
1,1,$1+$1,$2,$3*
1,1,$1+$1,$4,$5*
1,1,$1+$1,$6,$7*
1,1,$1+$1,$8,$9*
0 Add four rect primitives between the rounded corners*
20,1,$1+$1,$2,$3,$4,$5,0*
20,1,$1+$1,$4,$5,$6,$7,0*
20,1,$1+$1,$6,$7,$8,$9,0*
20,1,$1+$1,$8,$9,$2,$3,0*%
G04 Aperture macros list end*
%ADD10RoundRect,0.250000X0.600000X0.725000X-0.600000X0.725000X-0.600000X-0.725000X0.600000X-0.725000X0*%
%ADD11O,1.700000X1.950000*%
%ADD12C,0.800000*%
%ADD13C,6.400000*%
%ADD14RoundRect,0.250000X0.600000X0.750000X-0.600000X0.750000X-0.600000X-0.750000X0.600000X-0.750000X0*%
%ADD15O,1.700000X2.000000*%
%ADD16RoundRect,0.250000X-0.600000X-0.725000X0.600000X-0.725000X0.600000X0.725000X-0.600000X0.725000X0*%
%ADD17RoundRect,0.250000X0.725000X-0.600000X0.725000X0.600000X-0.725000X0.600000X-0.725000X-0.600000X0*%
%ADD18O,1.950000X1.700000*%
%ADD19RoundRect,0.250000X-0.725000X0.600000X-0.725000X-0.600000X0.725000X-0.600000X0.725000X0.600000X0*%
G04 APERTURE END LIST*
D10*
%TO.C,SW501*%
X150337500Y-64450000D03*
D11*
X147837500Y-64450000D03*
X145337500Y-64450000D03*
%TD*%
D12*
%TO.C,H402*%
X164550000Y-59950000D03*
X165252944Y-58252944D03*
X165252944Y-61647056D03*
X166950000Y-57550000D03*
D13*
X166950000Y-59950000D03*
D12*
X166950000Y-62350000D03*
X168647056Y-58252944D03*
X168647056Y-61647056D03*
X169350000Y-59950000D03*
%TD*%
D14*
%TO.C,Alim_charger501*%
X159500000Y-64450000D03*
D15*
X157000000Y-64450000D03*
%TD*%
D11*
%TO.C,J301*%
X159587500Y-109000000D03*
X157087500Y-109000000D03*
X154587500Y-109000000D03*
X152087500Y-109000000D03*
X149587500Y-109000000D03*
D16*
X147087500Y-109000000D03*
%TD*%
D12*
%TO.C,H401*%
X118600000Y-60000000D03*
X119302944Y-58302944D03*
X119302944Y-61697056D03*
X121000000Y-57600000D03*
D13*
X121000000Y-60000000D03*
D12*
X121000000Y-62400000D03*
X122697056Y-58302944D03*
X122697056Y-61697056D03*
X123400000Y-60000000D03*
%TD*%
D17*
%TO.C,J303*%
X164387500Y-90100000D03*
D18*
X164387500Y-87600000D03*
X164387500Y-85100000D03*
X164387500Y-82600000D03*
X164387500Y-80100000D03*
X164387500Y-77600000D03*
X164387500Y-75100000D03*
X164387500Y-72600000D03*
%TD*%
D14*
%TO.C,BT501*%
X138887500Y-64400000D03*
D15*
X136387500Y-64400000D03*
%TD*%
D19*
%TO.C,J201*%
X127287500Y-68700000D03*
D18*
X127287500Y-71200000D03*
X127287500Y-73700000D03*
X127287500Y-76200000D03*
X127287500Y-78700000D03*
X127287500Y-81200000D03*
%TD*%
D12*
%TO.C,H404*%
X118550000Y-108950000D03*
X119252944Y-107252944D03*
X119252944Y-110647056D03*
X120950000Y-106550000D03*
D13*
X120950000Y-108950000D03*
D12*
X120950000Y-111350000D03*
X122647056Y-107252944D03*
X122647056Y-110647056D03*
X123350000Y-108950000D03*
%TD*%
D19*
%TO.C,J202*%
X127287500Y-88450000D03*
D18*
X127287500Y-90950000D03*
X127287500Y-93450000D03*
X127287500Y-95950000D03*
X127287500Y-98450000D03*
X127287500Y-100950000D03*
%TD*%
D16*
%TO.C,J302*%
X128137500Y-108975000D03*
D11*
X130637500Y-108975000D03*
X133137500Y-108975000D03*
X135637500Y-108975000D03*
X138137500Y-108975000D03*
X140637500Y-108975000D03*
%TD*%
D12*
%TO.C,H403*%
X169350000Y-108950000D03*
X168647056Y-107252944D03*
X168647056Y-110647056D03*
X166950000Y-106550000D03*
D13*
X166950000Y-108950000D03*
D12*
X166950000Y-111350000D03*
X165252944Y-107252944D03*
X165252944Y-110647056D03*
X164550000Y-108950000D03*
%TD*%
M02*
