%TF.GenerationSoftware,KiCad,Pcbnew,8.0.1*%
%TF.CreationDate,2024-10-23T09:07:35+02:00*%
%TF.ProjectId,StealthKitty.kicad_pro,53746561-6c74-4684-9b69-7474792e6b69,rev?*%
%TF.SameCoordinates,Original*%
%TF.FileFunction,Soldermask,Top*%
%TF.FilePolarity,Negative*%
%FSLAX46Y46*%
G04 Gerber Fmt 4.6, Leading zero omitted, Abs format (unit mm)*
G04 Created by KiCad (PCBNEW 8.0.1) date 2024-10-23 09:07:35*
%MOMM*%
%LPD*%
G01*
G04 APERTURE LIST*
G04 Aperture macros list*
%AMRoundRect*
0 Rectangle with rounded corners*
0 $1 Rounding radius*
0 $2 $3 $4 $5 $6 $7 $8 $9 X,Y pos of 4 corners*
0 Add a 4 corners polygon primitive as box body*
4,1,4,$2,$3,$4,$5,$6,$7,$8,$9,$2,$3,0*
0 Add four circle primitives for the rounded corners*
1,1,$1+$1,$2,$3*
1,1,$1+$1,$4,$5*
1,1,$1+$1,$6,$7*
1,1,$1+$1,$8,$9*
0 Add four rect primitives between the rounded corners*
20,1,$1+$1,$2,$3,$4,$5,0*
20,1,$1+$1,$4,$5,$6,$7,0*
20,1,$1+$1,$6,$7,$8,$9,0*
20,1,$1+$1,$8,$9,$2,$3,0*%
G04 Aperture macros list end*
%ADD10C,0.010000*%
%ADD11RoundRect,0.140000X-0.170000X0.140000X-0.170000X-0.140000X0.170000X-0.140000X0.170000X0.140000X0*%
%ADD12C,1.500000*%
%ADD13RoundRect,0.225000X-0.225000X-0.250000X0.225000X-0.250000X0.225000X0.250000X-0.225000X0.250000X0*%
%ADD14RoundRect,0.135000X0.185000X-0.135000X0.185000X0.135000X-0.185000X0.135000X-0.185000X-0.135000X0*%
%ADD15RoundRect,0.135000X0.135000X0.185000X-0.135000X0.185000X-0.135000X-0.185000X0.135000X-0.185000X0*%
%ADD16RoundRect,0.225000X-0.250000X0.225000X-0.250000X-0.225000X0.250000X-0.225000X0.250000X0.225000X0*%
%ADD17RoundRect,0.140000X0.170000X-0.140000X0.170000X0.140000X-0.170000X0.140000X-0.170000X-0.140000X0*%
%ADD18RoundRect,0.250000X0.600000X0.725000X-0.600000X0.725000X-0.600000X-0.725000X0.600000X-0.725000X0*%
%ADD19O,1.700000X1.950000*%
%ADD20RoundRect,0.225000X0.225000X0.250000X-0.225000X0.250000X-0.225000X-0.250000X0.225000X-0.250000X0*%
%ADD21C,0.800000*%
%ADD22C,6.400000*%
%ADD23RoundRect,0.250000X0.600000X0.750000X-0.600000X0.750000X-0.600000X-0.750000X0.600000X-0.750000X0*%
%ADD24O,1.700000X2.000000*%
%ADD25RoundRect,0.250000X-0.600000X-0.725000X0.600000X-0.725000X0.600000X0.725000X-0.600000X0.725000X0*%
%ADD26R,1.300000X1.550000*%
%ADD27R,1.550000X1.300000*%
%ADD28RoundRect,0.140000X0.140000X0.170000X-0.140000X0.170000X-0.140000X-0.170000X0.140000X-0.170000X0*%
%ADD29R,0.802000X1.505000*%
%ADD30R,3.502000X2.613000*%
%ADD31R,2.400000X0.740000*%
%ADD32RoundRect,0.140000X-0.140000X-0.170000X0.140000X-0.170000X0.140000X0.170000X-0.140000X0.170000X0*%
%ADD33RoundRect,0.250000X-0.475000X0.250000X-0.475000X-0.250000X0.475000X-0.250000X0.475000X0.250000X0*%
%ADD34RoundRect,0.225000X0.250000X-0.225000X0.250000X0.225000X-0.250000X0.225000X-0.250000X-0.225000X0*%
%ADD35RoundRect,0.250000X0.725000X-0.600000X0.725000X0.600000X-0.725000X0.600000X-0.725000X-0.600000X0*%
%ADD36O,1.950000X1.700000*%
%ADD37RoundRect,0.135000X-0.185000X0.135000X-0.185000X-0.135000X0.185000X-0.135000X0.185000X0.135000X0*%
%ADD38RoundRect,0.237500X0.287500X0.237500X-0.287500X0.237500X-0.287500X-0.237500X0.287500X-0.237500X0*%
%ADD39R,4.100000X2.150000*%
%ADD40RoundRect,0.250000X-0.725000X0.600000X-0.725000X-0.600000X0.725000X-0.600000X0.725000X0.600000X0*%
%ADD41RoundRect,0.150000X-0.150000X0.325000X-0.150000X-0.325000X0.150000X-0.325000X0.150000X0.325000X0*%
%ADD42RoundRect,0.150000X-0.325000X0.150000X-0.325000X-0.150000X0.325000X-0.150000X0.325000X0.150000X0*%
%ADD43R,1.400000X1.200000*%
%ADD44RoundRect,0.135000X-0.135000X-0.185000X0.135000X-0.185000X0.135000X0.185000X-0.135000X0.185000X0*%
%ADD45RoundRect,0.237500X-0.237500X0.287500X-0.237500X-0.287500X0.237500X-0.287500X0.237500X0.287500X0*%
%ADD46R,0.600000X0.900000*%
%ADD47RoundRect,0.237500X0.237500X-0.287500X0.237500X0.287500X-0.237500X0.287500X-0.237500X-0.287500X0*%
%ADD48RoundRect,0.062500X0.375000X0.062500X-0.375000X0.062500X-0.375000X-0.062500X0.375000X-0.062500X0*%
%ADD49RoundRect,0.062500X0.062500X0.375000X-0.062500X0.375000X-0.062500X-0.375000X0.062500X-0.375000X0*%
%ADD50R,5.600000X5.600000*%
G04 APERTURE END LIST*
D10*
%TO.C,IC501*%
X148482500Y-74090000D02*
X147892500Y-74090000D01*
X147892500Y-72650000D01*
X148482500Y-72650000D01*
X148482500Y-74090000D01*
G36*
X148482500Y-74090000D02*
G01*
X147892500Y-74090000D01*
X147892500Y-72650000D01*
X148482500Y-72650000D01*
X148482500Y-74090000D01*
G37*
X148482500Y-76470000D02*
X147892500Y-76470000D01*
X147892500Y-75030000D01*
X148482500Y-75030000D01*
X148482500Y-76470000D01*
G36*
X148482500Y-76470000D02*
G01*
X147892500Y-76470000D01*
X147892500Y-75030000D01*
X148482500Y-75030000D01*
X148482500Y-76470000D01*
G37*
X149132500Y-74090000D02*
X148542500Y-74090000D01*
X148542500Y-72650000D01*
X149132500Y-72650000D01*
X149132500Y-74090000D01*
G36*
X149132500Y-74090000D02*
G01*
X148542500Y-74090000D01*
X148542500Y-72650000D01*
X149132500Y-72650000D01*
X149132500Y-74090000D01*
G37*
X149132500Y-76470000D02*
X148542500Y-76470000D01*
X148542500Y-75030000D01*
X149132500Y-75030000D01*
X149132500Y-76470000D01*
G36*
X149132500Y-76470000D02*
G01*
X148542500Y-76470000D01*
X148542500Y-75030000D01*
X149132500Y-75030000D01*
X149132500Y-76470000D01*
G37*
X149782500Y-74090000D02*
X149192500Y-74090000D01*
X149192500Y-72650000D01*
X149782500Y-72650000D01*
X149782500Y-74090000D01*
G36*
X149782500Y-74090000D02*
G01*
X149192500Y-74090000D01*
X149192500Y-72650000D01*
X149782500Y-72650000D01*
X149782500Y-74090000D01*
G37*
X149782500Y-76470000D02*
X149192500Y-76470000D01*
X149192500Y-75030000D01*
X149782500Y-75030000D01*
X149782500Y-76470000D01*
G36*
X149782500Y-76470000D02*
G01*
X149192500Y-76470000D01*
X149192500Y-75030000D01*
X149782500Y-75030000D01*
X149782500Y-76470000D01*
G37*
X150432500Y-74090000D02*
X149842500Y-74090000D01*
X149842500Y-72650000D01*
X150432500Y-72650000D01*
X150432500Y-74090000D01*
G36*
X150432500Y-74090000D02*
G01*
X149842500Y-74090000D01*
X149842500Y-72650000D01*
X150432500Y-72650000D01*
X150432500Y-74090000D01*
G37*
X150432500Y-76470000D02*
X149842500Y-76470000D01*
X149842500Y-75030000D01*
X150432500Y-75030000D01*
X150432500Y-76470000D01*
G36*
X150432500Y-76470000D02*
G01*
X149842500Y-76470000D01*
X149842500Y-75030000D01*
X150432500Y-75030000D01*
X150432500Y-76470000D01*
G37*
%TD*%
D11*
%TO.C,C508*%
X145762500Y-70380000D03*
X145762500Y-71340000D03*
%TD*%
D12*
%TO.C,TP301*%
X155467500Y-84070000D03*
%TD*%
D13*
%TO.C,Cs301*%
X141112500Y-78350000D03*
X142662500Y-78350000D03*
%TD*%
D14*
%TO.C,R502*%
X146257500Y-76370000D03*
X146257500Y-75350000D03*
%TD*%
D15*
%TO.C,R402*%
X149147500Y-95700000D03*
X148127500Y-95700000D03*
%TD*%
D12*
%TO.C,TP310*%
X160237500Y-76250000D03*
%TD*%
D11*
%TO.C,C503*%
X148362500Y-77180000D03*
X148362500Y-78140000D03*
%TD*%
D14*
%TO.C,R403*%
X126937500Y-59085000D03*
X126937500Y-58065000D03*
%TD*%
%TO.C,R504*%
X146862500Y-73370000D03*
X146862500Y-72350000D03*
%TD*%
D16*
%TO.C,C206*%
X135074854Y-101449336D03*
X135074854Y-102999336D03*
%TD*%
D17*
%TO.C,C204*%
X131137500Y-76530000D03*
X131137500Y-75570000D03*
%TD*%
D18*
%TO.C,SW501*%
X150337500Y-64450000D03*
D19*
X147837500Y-64450000D03*
X145337500Y-64450000D03*
%TD*%
D12*
%TO.C,TP203*%
X138527500Y-94490000D03*
%TD*%
D20*
%TO.C,C504*%
X142512500Y-70150000D03*
X140962500Y-70150000D03*
%TD*%
D21*
%TO.C,H402*%
X164550000Y-59950000D03*
X165252944Y-58252944D03*
X165252944Y-61647056D03*
X166950000Y-57550000D03*
D22*
X166950000Y-59950000D03*
D21*
X166950000Y-62350000D03*
X168647056Y-58252944D03*
X168647056Y-61647056D03*
X169350000Y-59950000D03*
%TD*%
D23*
%TO.C,Alim_charger501*%
X159500000Y-64450000D03*
D24*
X157000000Y-64450000D03*
%TD*%
D19*
%TO.C,J301*%
X159587500Y-109000000D03*
X157087500Y-109000000D03*
X154587500Y-109000000D03*
X152087500Y-109000000D03*
X149587500Y-109000000D03*
D25*
X147087500Y-109000000D03*
%TD*%
D26*
%TO.C,SW402*%
X136186999Y-81315125D03*
X136186999Y-89265125D03*
X131686999Y-81315125D03*
X131686999Y-89265125D03*
%TD*%
D14*
%TO.C,R405*%
X141337500Y-98060000D03*
X141337500Y-97040000D03*
%TD*%
D27*
%TO.C,SW401*%
X150662500Y-99800000D03*
X158612500Y-99800000D03*
X150662500Y-104300000D03*
X158612500Y-104300000D03*
%TD*%
D28*
%TO.C,C205*%
X133522450Y-70375589D03*
X132562450Y-70375589D03*
%TD*%
D21*
%TO.C,H401*%
X118600000Y-60000000D03*
X119302944Y-58302944D03*
X119302944Y-61697056D03*
X121000000Y-57600000D03*
D22*
X121000000Y-60000000D03*
D21*
X121000000Y-62400000D03*
X122697056Y-58302944D03*
X122697056Y-61697056D03*
X123400000Y-60000000D03*
%TD*%
D29*
%TO.C,U2*%
X132610477Y-99308142D03*
X133880477Y-99308142D03*
X135150477Y-99308142D03*
X136420477Y-99308142D03*
X136420477Y-94313142D03*
X135150477Y-94313142D03*
X133880477Y-94313142D03*
X132610477Y-94313142D03*
D30*
X134515477Y-96810642D03*
%TD*%
D11*
%TO.C,C405*%
X145817500Y-84070000D03*
X145817500Y-85030000D03*
%TD*%
D14*
%TO.C,R404*%
X128937500Y-59085000D03*
X128937500Y-58065000D03*
%TD*%
D31*
%TO.C,J401*%
X167987500Y-102260000D03*
X164087500Y-102260000D03*
X167987500Y-100990000D03*
X164087500Y-100990000D03*
X167987500Y-99720000D03*
X164087500Y-99720000D03*
X167987500Y-98450000D03*
X164087500Y-98450000D03*
X167987500Y-97180000D03*
X164087500Y-97180000D03*
X167987500Y-95910000D03*
X164087500Y-95910000D03*
X167987500Y-94640000D03*
X164087500Y-94640000D03*
%TD*%
D14*
%TO.C,R505*%
X145762500Y-73370000D03*
X145762500Y-72350000D03*
%TD*%
D32*
%TO.C,C411*%
X153557500Y-94200000D03*
X154517500Y-94200000D03*
%TD*%
D12*
%TO.C,TP204*%
X138437500Y-91080000D03*
%TD*%
D33*
%TO.C,C509*%
X154637500Y-78400000D03*
X154637500Y-80300000D03*
%TD*%
D34*
%TO.C,C207*%
X131037500Y-99625000D03*
X131037500Y-98075000D03*
%TD*%
D35*
%TO.C,J303*%
X164387500Y-90100000D03*
D36*
X164387500Y-87600000D03*
X164387500Y-85100000D03*
X164387500Y-82600000D03*
X164387500Y-80100000D03*
X164387500Y-77600000D03*
X164387500Y-75100000D03*
X164387500Y-72600000D03*
%TD*%
D23*
%TO.C,BT501*%
X138887500Y-64400000D03*
D24*
X136387500Y-64400000D03*
%TD*%
D33*
%TO.C,C507*%
X152437500Y-78400000D03*
X152437500Y-80300000D03*
%TD*%
D28*
%TO.C,C412*%
X132247500Y-90950000D03*
X131287500Y-90950000D03*
%TD*%
D37*
%TO.C,R501*%
X144734345Y-75411885D03*
X144734345Y-76431885D03*
%TD*%
D11*
%TO.C,C408*%
X144437500Y-84070000D03*
X144437500Y-85030000D03*
%TD*%
D38*
%TO.C,D501*%
X166212500Y-65350000D03*
X164462500Y-65350000D03*
%TD*%
D20*
%TO.C,C208*%
X132987500Y-92450000D03*
X131437500Y-92450000D03*
%TD*%
D39*
%TO.C,L501*%
X156062500Y-72000000D03*
X156062500Y-76100000D03*
%TD*%
D29*
%TO.C,U1*%
X132432500Y-76947500D03*
X133702500Y-76947500D03*
X134972500Y-76947500D03*
X136242500Y-76947500D03*
X136242500Y-71952500D03*
X134972500Y-71952500D03*
X133702500Y-71952500D03*
X132432500Y-71952500D03*
D30*
X134337500Y-74450000D03*
%TD*%
D32*
%TO.C,Cio301*%
X145007500Y-78370000D03*
X145967500Y-78370000D03*
%TD*%
D40*
%TO.C,J201*%
X127287500Y-68700000D03*
D36*
X127287500Y-71200000D03*
X127287500Y-73700000D03*
X127287500Y-76200000D03*
X127287500Y-78700000D03*
X127287500Y-81200000D03*
%TD*%
D17*
%TO.C,C404*%
X143537500Y-96230000D03*
X143537500Y-95270000D03*
%TD*%
D41*
%TO.C,U301*%
X146637500Y-80650000D03*
X145837500Y-80650000D03*
X145037500Y-80650000D03*
X144237500Y-80650000D03*
X143437500Y-80650000D03*
X142637500Y-80650000D03*
D42*
X142637500Y-81650000D03*
D41*
X142637500Y-82650000D03*
X143437500Y-82650000D03*
X144237500Y-82650000D03*
X145037500Y-82650000D03*
X145837500Y-82650000D03*
X146637500Y-82650000D03*
D42*
X146637500Y-81650000D03*
%TD*%
D43*
%TO.C,Y401*%
X155677189Y-91100000D03*
X153477189Y-91100000D03*
X153477189Y-92800000D03*
X155677189Y-92800000D03*
%TD*%
D28*
%TO.C,C401*%
X142017500Y-92500000D03*
X141057500Y-92500000D03*
%TD*%
D20*
%TO.C,C203*%
X132712500Y-78850000D03*
X131162500Y-78850000D03*
%TD*%
D28*
%TO.C,C403*%
X153896722Y-89460362D03*
X152936722Y-89460362D03*
%TD*%
D21*
%TO.C,H404*%
X118550000Y-108950000D03*
X119252944Y-107252944D03*
X119252944Y-110647056D03*
X120950000Y-106550000D03*
D22*
X120950000Y-108950000D03*
D21*
X120950000Y-111350000D03*
X122647056Y-107252944D03*
X122647056Y-110647056D03*
X123350000Y-108950000D03*
%TD*%
D12*
%TO.C,TP302*%
X140537500Y-81150000D03*
%TD*%
D44*
%TO.C,R507*%
X168827500Y-65350000D03*
X169847500Y-65350000D03*
%TD*%
D45*
%TO.C,D402*%
X128937500Y-61700000D03*
X128937500Y-63450000D03*
%TD*%
D40*
%TO.C,J202*%
X127287500Y-88450000D03*
D36*
X127287500Y-90950000D03*
X127287500Y-93450000D03*
X127287500Y-95950000D03*
X127287500Y-98450000D03*
X127287500Y-100950000D03*
%TD*%
D28*
%TO.C,C502*%
X149917500Y-71780000D03*
X148957500Y-71780000D03*
%TD*%
D12*
%TO.C,TP201*%
X138010642Y-78777084D03*
%TD*%
D16*
%TO.C,C402*%
X150137500Y-83675000D03*
X150137500Y-85225000D03*
%TD*%
D12*
%TO.C,TP308*%
X158237500Y-80350000D03*
%TD*%
D14*
%TO.C,R503*%
X151662500Y-73570000D03*
X151662500Y-72550000D03*
%TD*%
D28*
%TO.C,C409*%
X156157189Y-89456057D03*
X155197189Y-89456057D03*
%TD*%
D20*
%TO.C,C407*%
X142467500Y-85010618D03*
X140917500Y-85010618D03*
%TD*%
D45*
%TO.C,D401*%
X126937500Y-61700000D03*
X126937500Y-63450000D03*
%TD*%
D15*
%TO.C,R401*%
X149147500Y-96850000D03*
X148127500Y-96850000D03*
%TD*%
D25*
%TO.C,J302*%
X128137500Y-108975000D03*
D19*
X130637500Y-108975000D03*
X133137500Y-108975000D03*
X135637500Y-108975000D03*
X138137500Y-108975000D03*
X140637500Y-108975000D03*
%TD*%
D14*
%TO.C,R406*%
X135637500Y-91910000D03*
X135637500Y-90890000D03*
%TD*%
D16*
%TO.C,C202*%
X133537500Y-101450000D03*
X133537500Y-103000000D03*
%TD*%
D21*
%TO.C,H403*%
X169350000Y-108950000D03*
X168647056Y-107252944D03*
X168647056Y-110647056D03*
X166950000Y-106550000D03*
D22*
X166950000Y-108950000D03*
D21*
X166950000Y-111350000D03*
X165252944Y-107252944D03*
X165252944Y-110647056D03*
X164550000Y-108950000D03*
%TD*%
D12*
%TO.C,TP202*%
X138257500Y-73600000D03*
%TD*%
D46*
%TO.C,PS501*%
X142887500Y-71850000D03*
X141937500Y-71850000D03*
X140987500Y-71850000D03*
X140987500Y-74650000D03*
X142887500Y-74650000D03*
%TD*%
D47*
%TO.C,D403*%
X140037500Y-98000000D03*
X140037500Y-96250000D03*
%TD*%
D20*
%TO.C,C506*%
X142562500Y-76250000D03*
X141012500Y-76250000D03*
%TD*%
D28*
%TO.C,C505*%
X152505745Y-71355813D03*
X151545745Y-71355813D03*
%TD*%
D13*
%TO.C,C201*%
X134262500Y-79050000D03*
X135812500Y-79050000D03*
%TD*%
D48*
%TO.C,U401*%
X150352688Y-92893226D03*
X150352688Y-92393226D03*
X150352688Y-91893226D03*
X150352688Y-91393226D03*
X150352688Y-90893226D03*
X150352688Y-90393226D03*
X150352688Y-89893226D03*
X150352688Y-89393226D03*
X150352688Y-88893226D03*
X150352688Y-88393226D03*
X150352688Y-87893226D03*
X150352688Y-87393226D03*
D49*
X149665188Y-86705726D03*
X149165188Y-86705726D03*
X148665188Y-86705726D03*
X148165188Y-86705726D03*
X147665188Y-86705726D03*
X147165188Y-86705726D03*
X146665188Y-86705726D03*
X146165188Y-86705726D03*
X145665188Y-86705726D03*
X145165188Y-86705726D03*
X144665188Y-86705726D03*
X144165188Y-86705726D03*
D48*
X143477688Y-87393226D03*
X143477688Y-87893226D03*
X143477688Y-88393226D03*
X143477688Y-88893226D03*
X143477688Y-89393226D03*
X143477688Y-89893226D03*
X143477688Y-90393226D03*
X143477688Y-90893226D03*
X143477688Y-91393226D03*
X143477688Y-91893226D03*
X143477688Y-92393226D03*
X143477688Y-92893226D03*
D49*
X144165188Y-93580726D03*
X144665188Y-93580726D03*
X145165188Y-93580726D03*
X145665188Y-93580726D03*
X146165188Y-93580726D03*
X146665188Y-93580726D03*
X147165188Y-93580726D03*
X147665188Y-93580726D03*
X148165188Y-93580726D03*
X148665188Y-93580726D03*
X149165188Y-93580726D03*
X149665188Y-93580726D03*
D50*
X146915188Y-90143226D03*
%TD*%
D14*
%TO.C,R506*%
X146862500Y-71370000D03*
X146862500Y-70350000D03*
%TD*%
D12*
%TO.C,TP307*%
X152637500Y-84050000D03*
%TD*%
D33*
%TO.C,C501*%
X149937500Y-77500000D03*
X149937500Y-79400000D03*
%TD*%
D12*
%TO.C,TP309*%
X158287500Y-84100000D03*
%TD*%
D44*
%TO.C,R407*%
X133277500Y-90950000D03*
X134297500Y-90950000D03*
%TD*%
D11*
%TO.C,C406*%
X151137500Y-94890000D03*
X151137500Y-95850000D03*
%TD*%
M02*
