M48
; DRILL file {KiCad 8.0.1} date 2024-10-23T08:39:21+0200
; FORMAT={-:-/ absolute / inch / decimal}
; #@! TF.CreationDate,2024-10-23T08:39:21+02:00
; #@! TF.GenerationSoftware,Kicad,Pcbnew,8.0.1
; #@! TF.FileFunction,Plated,1,4,PTH
FMAT,2
INCH
; #@! TA.AperFunction,Plated,PTH,ViaDrill
T1C0.0118
; #@! TA.AperFunction,Plated,PTH,ComponentDrill
T2C0.0197
; #@! TA.AperFunction,Plated,PTH,ComponentDrill
T3C0.0374
; #@! TA.AperFunction,Plated,PTH,ComponentDrill
T4C0.0394
; #@! TA.AperFunction,Plated,PTH,ComponentDrill
T5C0.1260
%
G90
G05
T1
X5.0098Y-3.7461
X5.0394Y-3.7402
X5.221Y-2.6794
X5.2998Y-2.6794
X5.3433Y-3.8886
X5.3612Y-4.0551
X5.3642Y-3.9961
X5.378Y-3.5591
X5.3819Y-4.2441
X5.3858Y-3.3622
X5.4055Y-3.5748
X5.4094Y-3.2441
X5.416Y-4.1284
X5.4213Y-3.185
X5.4429Y-4.4744
X5.4469Y-3.9272
X5.4528Y-3.5551
X5.4567Y-3.3071
X5.4567Y-3.3465
X5.4567Y-3.3858
X5.4634Y-4.1892
X5.4634Y-4.2286
X5.4634Y-4.2679
X5.4748Y-3.5882
X5.4772Y-3.9165
X5.4921Y-3.4882
X5.4942Y-4.3718
X5.5Y-3.872
X5.5117Y-3.3889
X5.5118Y-3.563
X5.5125Y-3.3043
X5.5185Y-3.5969
X5.5185Y-4.2679
X5.5197Y-4.185
X5.5354Y-3.1811
X5.5394Y-3.4882
X5.5413Y-3.9291
X5.5437Y-4.3682
X5.5459Y-4.0772
X5.5634Y-4.0593
X5.5669Y-3.3071
X5.5669Y-3.3504
X5.5669Y-3.3858
X5.5709Y-3.563
X5.5736Y-4.1892
X5.5736Y-4.2325
X5.5736Y-4.2679
X5.5748Y-4.4724
X5.6106Y-3.563
X5.6417Y-4.5827
X5.6575Y-3.8287
X5.6634Y-3.3894
X5.7283Y-4.0669
X5.7287Y-3.7319
X5.7356Y-3.9809
X5.7362Y-3.1772
X5.7362Y-3.8756
X5.7499Y-4.0573
X5.752Y-4.1083
X5.7618Y-3.5512
X5.7638Y-4.0103
X5.7736Y-3.4606
X5.778Y-3.811
X5.7862Y-3.9938
X5.7874Y-4.2087
X5.7937Y-3.9394
X5.798Y-4.1386
X5.8091Y-3.2165
X5.8366Y-3.4587
X5.8366Y-3.561
X5.8425Y-3.7087
X5.8476Y-3.2165
X5.8622Y-4.1378
X5.8701Y-3.1772
X5.8717Y-3.7787
X5.878Y-3.7087
X5.8839Y-4.3681
X5.8858Y-3.5571
X5.8878Y-4.2389
X5.8907Y-3.4217
X5.8937Y-4.1591
X5.8957Y-4.2047
X5.9055Y-3.5008
X5.9213Y-4.2087
X5.9213Y-4.3445
X5.9224Y-4.144
X5.9259Y-4.168
X5.9301Y-3.3035
X5.9331Y-3.5591
X5.9331Y-3.7008
X5.9331Y-3.7244
X5.9519Y-3.9092
X5.9519Y-3.9643
X5.9519Y-4.0194
X5.9575Y-3.7906
X5.9616Y-3.1638
X5.9626Y-4.6319
X5.9637Y-4.2303
X5.9665Y-4.3228
X5.9803Y-3.5594
X5.9843Y-4.561
X5.9868Y-4.2193
X5.9902Y-4.3071
X5.9941Y-3.4988
X5.9972Y-3.728
X6.0049Y-3.1638
X6.007Y-3.9092
X6.007Y-3.9643
X6.007Y-4.0194
X6.0187Y-3.3648
X6.0197Y-4.2028
X6.0197Y-4.2283
X6.024Y-3.774
X6.0315Y-3.5866
X6.0368Y-3.2419
X6.0452Y-3.7146
X6.0621Y-3.9092
X6.0621Y-3.9643
X6.0621Y-4.0194
X6.0639Y-3.5167
X6.068Y-3.7087
X6.0724Y-3.5409
X6.0866Y-4.5276
X6.0949Y-3.7238
X6.0955Y-3.7677
X6.1083Y-3.6496
X6.1266Y-4.1909
X6.1274Y-4.2278
X6.1469Y-4.1154
X6.1512Y-3.2402
X6.1535Y-4.0906
X6.1585Y-3.398
X6.1783Y-4.6469
X6.1835Y-4.2122
X6.1904Y-3.8164
X6.1949Y-3.9882
X6.2055Y-4.6378
X6.2087Y-3.9154
X6.2126Y-4.4665
X6.2244Y-3.6102
X6.2244Y-3.9986
X6.2303Y-4.2283
X6.2343Y-4.3976
X6.2402Y-4.1142
X6.2559Y-4.2224
X6.2835Y-3.916
X6.2921Y-4.2264
X6.3228Y-3.622
X6.3307Y-3.916
X6.3323Y-4.1142
X6.3593Y-3.577
X6.365Y-3.513
X6.374Y-3.4803
X6.3898Y-3.7677
X6.3898Y-4.0734
X6.3906Y-3.6803
X6.3996Y-3.9764
X6.3996Y-3.9961
X6.3996Y-4.0157
X6.3996Y-4.0354
X6.3996Y-4.0551
X6.4035Y-3.4803
X6.4059Y-3.6618
X6.4331Y-3.4803
X6.438Y-4.2496
X6.4419Y-4.2763
X6.4638Y-4.222
X6.4843Y-3.4843
X6.5045Y-3.8518
X6.5213Y-4.3098
X6.5276Y-4.252
X6.5354Y-3.7756
X6.5362Y-4.276
X6.5433Y-4.5276
X6.5524Y-4.4772
X6.561Y-3.7461
X6.5823Y-4.385
X6.5925Y-3.7028
X6.5965Y-3.6201
X6.6956Y-2.9455
X6.9016Y-4.1931
X6.9016Y-4.2915
X6.9016Y-4.3427
X6.9319Y-2.9888
T2
X4.8903Y-4.7047
X4.8922Y-2.7776
X4.9179Y-4.6379
X4.9179Y-4.7715
X4.9199Y-2.7107
X4.9199Y-2.8444
X4.9847Y-4.6102
X4.9847Y-4.7992
X4.9867Y-2.6831
X4.9867Y-2.872
X5.0516Y-4.6379
X5.0516Y-4.7715
X5.0535Y-2.7107
X5.0535Y-2.8444
X5.0792Y-4.7047
X5.0812Y-2.7776
X6.7013Y-2.7756
X6.7013Y-4.7047
X6.729Y-2.7088
X6.729Y-2.8424
X6.729Y-4.6379
X6.729Y-4.7715
X6.7958Y-2.6811
X6.7958Y-2.8701
X6.7958Y-4.6102
X6.7958Y-4.7992
X6.8626Y-2.7088
X6.8626Y-2.8424
X6.8626Y-4.6379
X6.8626Y-4.7715
X6.8903Y-2.7756
X6.8903Y-4.7047
T3
X5.2343Y-3.1201
X5.2343Y-3.2185
X5.2343Y-3.3169
X5.2343Y-3.4154
X5.2343Y-3.5138
X5.2343Y-3.6122
X5.2343Y-3.8976
X5.2343Y-3.9961
X5.2343Y-4.0945
X5.2343Y-4.1929
X5.2343Y-4.2913
X5.2343Y-4.3898
X5.2677Y-4.7057
X5.3661Y-4.7057
X5.4646Y-4.7057
X5.563Y-4.7057
X5.6614Y-4.7057
X5.7598Y-4.7057
X5.9449Y-2.9528
X6.0138Y-4.7067
X6.0433Y-2.9528
X6.1122Y-4.7067
X6.1417Y-2.9528
X6.2106Y-4.7067
X6.3091Y-4.7067
X6.4075Y-4.7067
X6.5059Y-4.7067
X6.6949Y-3.2736
X6.6949Y-3.372
X6.6949Y-3.4705
X6.6949Y-3.5689
X6.6949Y-3.6673
X6.6949Y-3.7657
X6.6949Y-3.8642
X6.6949Y-3.9626
T4
X5.5925Y-2.9508
X5.6909Y-2.9508
X6.404Y-2.9528
X6.5025Y-2.9528
T5
X4.9847Y-4.7047
X4.9867Y-2.7776
X6.7958Y-2.7756
X6.7958Y-4.7047
M30
