%TF.GenerationSoftware,KiCad,Pcbnew,8.0.1*%
%TF.CreationDate,2024-10-23T09:07:35+02:00*%
%TF.ProjectId,StealthKitty.kicad_pro,53746561-6c74-4684-9b69-7474792e6b69,rev?*%
%TF.SameCoordinates,Original*%
%TF.FileFunction,Copper,L4,Bot*%
%TF.FilePolarity,Positive*%
%FSLAX46Y46*%
G04 Gerber Fmt 4.6, Leading zero omitted, Abs format (unit mm)*
G04 Created by KiCad (PCBNEW 8.0.1) date 2024-10-23 09:07:35*
%MOMM*%
%LPD*%
G01*
G04 APERTURE LIST*
G04 Aperture macros list*
%AMRoundRect*
0 Rectangle with rounded corners*
0 $1 Rounding radius*
0 $2 $3 $4 $5 $6 $7 $8 $9 X,Y pos of 4 corners*
0 Add a 4 corners polygon primitive as box body*
4,1,4,$2,$3,$4,$5,$6,$7,$8,$9,$2,$3,0*
0 Add four circle primitives for the rounded corners*
1,1,$1+$1,$2,$3*
1,1,$1+$1,$4,$5*
1,1,$1+$1,$6,$7*
1,1,$1+$1,$8,$9*
0 Add four rect primitives between the rounded corners*
20,1,$1+$1,$2,$3,$4,$5,0*
20,1,$1+$1,$4,$5,$6,$7,0*
20,1,$1+$1,$6,$7,$8,$9,0*
20,1,$1+$1,$8,$9,$2,$3,0*%
G04 Aperture macros list end*
%TA.AperFunction,ComponentPad*%
%ADD10RoundRect,0.250000X0.600000X0.725000X-0.600000X0.725000X-0.600000X-0.725000X0.600000X-0.725000X0*%
%TD*%
%TA.AperFunction,ComponentPad*%
%ADD11O,1.700000X1.950000*%
%TD*%
%TA.AperFunction,ComponentPad*%
%ADD12C,0.800000*%
%TD*%
%TA.AperFunction,ComponentPad*%
%ADD13C,6.400000*%
%TD*%
%TA.AperFunction,ComponentPad*%
%ADD14RoundRect,0.250000X0.600000X0.750000X-0.600000X0.750000X-0.600000X-0.750000X0.600000X-0.750000X0*%
%TD*%
%TA.AperFunction,ComponentPad*%
%ADD15O,1.700000X2.000000*%
%TD*%
%TA.AperFunction,ComponentPad*%
%ADD16RoundRect,0.250000X-0.600000X-0.725000X0.600000X-0.725000X0.600000X0.725000X-0.600000X0.725000X0*%
%TD*%
%TA.AperFunction,ComponentPad*%
%ADD17RoundRect,0.250000X0.725000X-0.600000X0.725000X0.600000X-0.725000X0.600000X-0.725000X-0.600000X0*%
%TD*%
%TA.AperFunction,ComponentPad*%
%ADD18O,1.950000X1.700000*%
%TD*%
%TA.AperFunction,ComponentPad*%
%ADD19RoundRect,0.250000X-0.725000X0.600000X-0.725000X-0.600000X0.725000X-0.600000X0.725000X0.600000X0*%
%TD*%
%TA.AperFunction,ViaPad*%
%ADD20C,0.600000*%
%TD*%
%TA.AperFunction,ViaPad*%
%ADD21C,0.450000*%
%TD*%
%TA.AperFunction,Conductor*%
%ADD22C,0.250000*%
%TD*%
%TA.AperFunction,Conductor*%
%ADD23C,0.200000*%
%TD*%
%TA.AperFunction,Conductor*%
%ADD24C,0.300000*%
%TD*%
G04 APERTURE END LIST*
D10*
%TO.P,SW501,1,A*%
%TO.N,Net-(Alim_charger501-Pin_2)*%
X150337500Y-64450000D03*
D11*
%TO.P,SW501,2,B*%
%TO.N,Net-(BT501-+)*%
X147837500Y-64450000D03*
%TO.P,SW501,3,C*%
%TO.N,+VBAT*%
X145337500Y-64450000D03*
%TD*%
D12*
%TO.P,H402,1,1*%
%TO.N,GND*%
X164550000Y-59950000D03*
X165252944Y-58252944D03*
X165252944Y-61647056D03*
X166950000Y-57550000D03*
D13*
X166950000Y-59950000D03*
D12*
X166950000Y-62350000D03*
X168647056Y-58252944D03*
X168647056Y-61647056D03*
X169350000Y-59950000D03*
%TD*%
D14*
%TO.P,Alim_charger501,1,Pin_1*%
%TO.N,GND*%
X159500000Y-64450000D03*
D15*
%TO.P,Alim_charger501,2,Pin_2*%
%TO.N,Net-(Alim_charger501-Pin_2)*%
X157000000Y-64450000D03*
%TD*%
D11*
%TO.P,J301,6,Pin_6*%
%TO.N,GND*%
X159587500Y-109000000D03*
%TO.P,J301,5,Pin_5*%
%TO.N,xshunt1*%
X157087500Y-109000000D03*
%TO.P,J301,4,Pin_4*%
%TO.N,INT_tof1*%
X154587500Y-109000000D03*
%TO.P,J301,3,Pin_3*%
%TO.N,SCL*%
X152087500Y-109000000D03*
%TO.P,J301,2,Pin_2*%
%TO.N,SDA*%
X149587500Y-109000000D03*
D16*
%TO.P,J301,1,Pin_1*%
%TO.N,+5V*%
X147087500Y-109000000D03*
%TD*%
D12*
%TO.P,H401,1,1*%
%TO.N,GND*%
X118600000Y-60000000D03*
X119302944Y-58302944D03*
X119302944Y-61697056D03*
X121000000Y-57600000D03*
D13*
X121000000Y-60000000D03*
D12*
X121000000Y-62400000D03*
X122697056Y-58302944D03*
X122697056Y-61697056D03*
X123400000Y-60000000D03*
%TD*%
D17*
%TO.P,J303,1,Pin_1*%
%TO.N,unconnected-(J303-Pin_1-Pad1)*%
X164387500Y-90100000D03*
D18*
%TO.P,J303,2,Pin_2*%
%TO.N,M_EN*%
X164387500Y-87600000D03*
%TO.P,J303,3,Pin_3*%
%TO.N,DEV_EN*%
X164387500Y-85100000D03*
%TO.P,J303,4,Pin_4*%
%TO.N,M_SCTR*%
X164387500Y-82600000D03*
%TO.P,J303,5,Pin_5*%
%TO.N,GND*%
X164387500Y-80100000D03*
%TO.P,J303,6,Pin_6*%
%TO.N,Rx_lidar*%
X164387500Y-77600000D03*
%TO.P,J303,7,Pin_7*%
%TO.N,Tx_Lidar*%
X164387500Y-75100000D03*
%TO.P,J303,8,Pin_8*%
%TO.N,+5V*%
X164387500Y-72600000D03*
%TD*%
D14*
%TO.P,BT501,1,+*%
%TO.N,Net-(BT501-+)*%
X138887500Y-64400000D03*
D15*
%TO.P,BT501,2,-*%
%TO.N,GND*%
X136387500Y-64400000D03*
%TD*%
D19*
%TO.P,J201,1,Pin_1*%
%TO.N,/motorisation Sheet/Motor1-*%
X127287500Y-68700000D03*
D18*
%TO.P,J201,2,Pin_2*%
%TO.N,GND*%
X127287500Y-71200000D03*
%TO.P,J201,3,Pin_3*%
%TO.N,Codeur1_PH2*%
X127287500Y-73700000D03*
%TO.P,J201,4,Pin_4*%
%TO.N,Codeur1_PH1*%
X127287500Y-76200000D03*
%TO.P,J201,5,Pin_5*%
%TO.N,+3.3V*%
X127287500Y-78700000D03*
%TO.P,J201,6,Pin_6*%
%TO.N,/motorisation Sheet/Motor1+*%
X127287500Y-81200000D03*
%TD*%
D12*
%TO.P,H404,1,1*%
%TO.N,GND*%
X118550000Y-108950000D03*
X119252944Y-107252944D03*
X119252944Y-110647056D03*
X120950000Y-106550000D03*
D13*
X120950000Y-108950000D03*
D12*
X120950000Y-111350000D03*
X122647056Y-107252944D03*
X122647056Y-110647056D03*
X123350000Y-108950000D03*
%TD*%
D19*
%TO.P,J202,1,Pin_1*%
%TO.N,/motorisation Sheet/Motor2-*%
X127287500Y-88450000D03*
D18*
%TO.P,J202,2,Pin_2*%
%TO.N,GND*%
X127287500Y-90950000D03*
%TO.P,J202,3,Pin_3*%
%TO.N,Codeur2_PH1*%
X127287500Y-93450000D03*
%TO.P,J202,4,Pin_4*%
%TO.N,Codeur2_PH2*%
X127287500Y-95950000D03*
%TO.P,J202,5,Pin_5*%
%TO.N,+3.3V*%
X127287500Y-98450000D03*
%TO.P,J202,6,Pin_6*%
%TO.N,/motorisation Sheet/Motor2+*%
X127287500Y-100950000D03*
%TD*%
D16*
%TO.P,J302,1,Pin_1*%
%TO.N,+5V*%
X128137500Y-108975000D03*
D11*
%TO.P,J302,2,Pin_2*%
%TO.N,SDA*%
X130637500Y-108975000D03*
%TO.P,J302,3,Pin_3*%
%TO.N,SCL*%
X133137500Y-108975000D03*
%TO.P,J302,4,Pin_4*%
%TO.N,INT_tof2*%
X135637500Y-108975000D03*
%TO.P,J302,5,Pin_5*%
%TO.N,xshunt2*%
X138137500Y-108975000D03*
%TO.P,J302,6,Pin_6*%
%TO.N,GND*%
X140637500Y-108975000D03*
%TD*%
D12*
%TO.P,H403,1,1*%
%TO.N,GND*%
X169350000Y-108950000D03*
X168647056Y-107252944D03*
X168647056Y-110647056D03*
X166950000Y-106550000D03*
D13*
X166950000Y-108950000D03*
D12*
X166950000Y-111350000D03*
X165252944Y-107252944D03*
X165252944Y-110647056D03*
X164550000Y-108950000D03*
%TD*%
D20*
%TO.N,+3.3V*%
X160767500Y-103170000D03*
D21*
%TO.N,GND*%
X136847500Y-79950000D03*
X133397500Y-80590000D03*
X134507500Y-80810000D03*
X156657500Y-82930000D03*
X157047500Y-82460000D03*
X156007500Y-78680000D03*
X133457500Y-88930000D03*
X130057500Y-88220000D03*
X151957500Y-107250000D03*
X151267500Y-107480000D03*
X159977500Y-98920000D03*
X161527500Y-100830000D03*
X158517500Y-96690000D03*
X154157500Y-96800000D03*
%TO.N,+3.3V*%
X145657500Y-85730000D03*
X143477500Y-85430000D03*
%TO.N,INT_tof1*%
X152587500Y-96850000D03*
X152687500Y-101150000D03*
%TO.N,+3.3V*%
X144087500Y-96250000D03*
X150637500Y-93350000D03*
X164406636Y-64264564D03*
X144337500Y-78370000D03*
X135648204Y-92554999D03*
X140437500Y-93800000D03*
X149162500Y-85150000D03*
X147537500Y-80550000D03*
X142587500Y-79900000D03*
X142587500Y-77300000D03*
X150467500Y-93980000D03*
X147237500Y-96200000D03*
X145037500Y-79850000D03*
X147237500Y-96850000D03*
%TO.N,+VBAT*%
X135037500Y-78050000D03*
X133889299Y-100494281D03*
X135202977Y-93010642D03*
X134337500Y-79950000D03*
X133837500Y-78050000D03*
X132837500Y-79750000D03*
D20*
X134937500Y-70250000D03*
D21*
X135146575Y-100401313D03*
X143962500Y-76360000D03*
%TO.N,+5V*%
X145762500Y-69810000D03*
X143437500Y-70150000D03*
X156987500Y-77850000D03*
X157737500Y-77850000D03*
X142867500Y-71150000D03*
X156237500Y-77850000D03*
X146862500Y-69810000D03*
%TO.N,PWM_MOT1_CH1*%
X141497500Y-89510000D03*
X141097500Y-86250000D03*
%TO.N,PWM_MOT1_CH2*%
X140737500Y-91312046D03*
D20*
X138187500Y-75540000D03*
D21*
%TO.N,PWM_MOT2_CH1*%
X140022500Y-90565000D03*
X139837500Y-92750000D03*
%TO.N,/brain Sheet/status_Purple*%
X122337500Y-84450000D03*
X138037500Y-86700000D03*
%TO.N,/brain Sheet/status_Orange*%
X140037500Y-87891224D03*
X121587500Y-84600000D03*
%TO.N,Rx_lidar*%
X144854656Y-95317156D03*
X160987500Y-84600000D03*
%TO.N,M_SCTR*%
X141307500Y-90893226D03*
X151573591Y-86386091D03*
%TO.N,M_EN*%
X159551409Y-87286091D03*
X152037500Y-88900000D03*
%TO.N,Tx_Lidar*%
X160337500Y-85350001D03*
X144765585Y-94707450D03*
%TO.N,Codeur1_PH1*%
X144737500Y-99800000D03*
X144737500Y-96350000D03*
%TO.N,Codeur1_PH2*%
X143887500Y-97118284D03*
X143787500Y-100400000D03*
%TO.N,Codeur2_PH2*%
X146487500Y-98850000D03*
X146401077Y-96619599D03*
%TO.N,Codeur2_PH1*%
X145887500Y-99250000D03*
X145814666Y-96900000D03*
%TO.N,/brain Sheet/SWCLK*%
X157862586Y-97390380D03*
X160137500Y-97450000D03*
%TO.N,/brain Sheet/SWDIO*%
X160357500Y-98060000D03*
X157962500Y-98068284D03*
%TO.N,SCL*%
X146337500Y-105300000D03*
X149952500Y-95900000D03*
%TO.N,SDA*%
X145787500Y-107100000D03*
X149973591Y-96836091D03*
%TO.N,INT_tof2*%
X153237500Y-96700000D03*
X137637500Y-105850000D03*
X152137500Y-102900000D03*
%TO.N,nCS*%
X147884845Y-83800689D03*
X140687500Y-79650000D03*
%TO.N,MOSI*%
X148465617Y-83650000D03*
D20*
X154937500Y-81450000D03*
D21*
X149487500Y-82150000D03*
D20*
%TO.N,INT1_adx*%
X142737500Y-83650000D03*
X159037500Y-77950000D03*
D21*
X146667500Y-84140000D03*
D20*
%TO.N,INT2_adx*%
X143637500Y-83650000D03*
D21*
X156637500Y-85150000D03*
X147347500Y-85310000D03*
%TO.N,GND*%
X140037500Y-70150000D03*
X135737500Y-74550000D03*
X134537500Y-95750000D03*
X148315188Y-88743226D03*
X169637500Y-99753479D03*
X156887500Y-91950000D03*
X156637500Y-92915352D03*
X134334969Y-75527010D03*
X131637500Y-80250000D03*
D20*
X148937500Y-104450000D03*
D21*
X135737500Y-75450000D03*
X152437500Y-91015352D03*
X132937500Y-74450000D03*
X150577500Y-71750000D03*
D20*
X161787500Y-83500000D03*
X161887500Y-81400000D03*
D21*
X130937500Y-79850000D03*
X135737500Y-73450000D03*
X133107669Y-97855175D03*
X153937500Y-88915352D03*
X143837500Y-79800000D03*
X145515188Y-88743226D03*
X151687500Y-90750000D03*
X146587500Y-78320000D03*
D20*
X160537500Y-104450000D03*
D21*
X155864867Y-80304679D03*
X135907669Y-95855175D03*
X126952064Y-57505864D03*
X148361455Y-78774557D03*
X152437500Y-81150000D03*
X148315188Y-91543226D03*
X135837500Y-79950000D03*
X150762500Y-75760000D03*
X132037500Y-70350000D03*
X132687500Y-89200000D03*
X131037500Y-97250000D03*
D20*
X131137500Y-74850000D03*
D21*
X145037500Y-84050000D03*
X156887500Y-92450000D03*
X148577500Y-79390000D03*
X156887500Y-91450000D03*
X146915188Y-91543226D03*
X132937500Y-73450000D03*
X139847500Y-84240000D03*
X144962500Y-73360000D03*
X145037500Y-83450000D03*
X135907669Y-97855175D03*
X132937500Y-75450000D03*
X141887500Y-71150000D03*
X146237500Y-79860000D03*
X134507669Y-97855175D03*
X149148659Y-84034802D03*
X140987500Y-77350000D03*
X133107669Y-96855175D03*
X145515188Y-91543226D03*
X156887500Y-90450000D03*
X135907669Y-96955175D03*
X140385789Y-92506316D03*
X130587500Y-90950000D03*
X155137500Y-88915352D03*
X155178472Y-93950000D03*
X169637500Y-98453479D03*
X156887500Y-90950000D03*
D20*
X135937500Y-103050000D03*
D21*
X146915188Y-90143226D03*
X131737500Y-71850000D03*
X133107669Y-95855175D03*
X151398591Y-96438909D03*
X148315188Y-90143226D03*
D20*
X132587500Y-103100000D03*
D21*
X131902977Y-94310642D03*
X128952064Y-57505864D03*
X145515188Y-90143226D03*
X144037500Y-95090000D03*
X130512500Y-92450000D03*
X169637500Y-95953479D03*
X152837500Y-93950000D03*
X170406636Y-65364564D03*
X134355431Y-73378566D03*
X141337500Y-96350000D03*
X146915188Y-88743226D03*
%TO.N,Net-(IC501-VCC)*%
X147212500Y-74915000D03*
X147672500Y-71795000D03*
%TO.N,/brain Sheet/status_LiDAR*%
X143237500Y-94550000D03*
X141605539Y-94569491D03*
%TO.N,Net-(R406-Pad2)*%
X134037500Y-87800000D03*
X135087500Y-89250000D03*
%TD*%
D22*
%TO.N,PWM_MOT1_CH1*%
X141387500Y-86540000D02*
X141097500Y-86250000D01*
X141387500Y-89400000D02*
X141387500Y-86540000D01*
X141497500Y-89510000D02*
X141387500Y-89400000D01*
D23*
%TO.N,INT2_adx*%
X143962500Y-84525000D02*
X143637500Y-84200000D01*
X146212500Y-84525000D02*
X143962500Y-84525000D01*
X146997500Y-85310000D02*
X146212500Y-84525000D01*
X147347500Y-85310000D02*
X146997500Y-85310000D01*
X143637500Y-84200000D02*
X143637500Y-83650000D01*
D22*
X147347500Y-85310000D02*
X147687500Y-85650000D01*
X147687500Y-85650000D02*
X156137500Y-85650000D01*
X156137500Y-85650000D02*
X156637500Y-85150000D01*
%TO.N,M_SCTR*%
X151573591Y-86463909D02*
X151573591Y-86386091D01*
X144592551Y-87150000D02*
X150887500Y-87150000D01*
X150887500Y-87150000D02*
X151573591Y-86463909D01*
X141307500Y-90893226D02*
X141307500Y-90435051D01*
X141307500Y-90435051D02*
X144592551Y-87150000D01*
%TO.N,/brain Sheet/SWDIO*%
X158060784Y-97970000D02*
X157962500Y-98068284D01*
X160267500Y-97970000D02*
X158060784Y-97970000D01*
X160357500Y-98060000D02*
X160267500Y-97970000D01*
%TO.N,nCS*%
X148137500Y-82520000D02*
X148137500Y-79850000D01*
X147884845Y-82772655D02*
X148137500Y-82520000D01*
X147884845Y-83800689D02*
X147884845Y-82772655D01*
D23*
%TO.N,INT1_adx*%
X143437500Y-82950000D02*
X142737500Y-83650000D01*
X146399252Y-84140000D02*
X145209252Y-82950000D01*
X146667500Y-84140000D02*
X146399252Y-84140000D01*
X156637500Y-79242893D02*
X157530393Y-78350000D01*
X156637500Y-82150000D02*
X156637500Y-79242893D01*
X156262500Y-82525000D02*
X156637500Y-82150000D01*
X158637500Y-78350000D02*
X159037500Y-77950000D01*
X151662500Y-82525000D02*
X156262500Y-82525000D01*
X151237500Y-83850000D02*
X151237500Y-82950000D01*
X157530393Y-78350000D02*
X158637500Y-78350000D01*
X150487500Y-84600000D02*
X151237500Y-83850000D01*
X147127500Y-84600000D02*
X150487500Y-84600000D01*
X146667500Y-84140000D02*
X147127500Y-84600000D01*
X151237500Y-82950000D02*
X151662500Y-82525000D01*
X145209252Y-82950000D02*
X143437500Y-82950000D01*
D22*
%TO.N,Tx_Lidar*%
X160337500Y-90730000D02*
X160337500Y-85350001D01*
X156317500Y-94750000D02*
X160337500Y-90730000D01*
X144765585Y-94707450D02*
X144808135Y-94750000D01*
X144808135Y-94750000D02*
X156317500Y-94750000D01*
%TO.N,Rx_lidar*%
X156547500Y-95400000D02*
X160987500Y-90960000D01*
X160987500Y-90960000D02*
X160987500Y-84600000D01*
X144937500Y-95400000D02*
X156547500Y-95400000D01*
X144854656Y-95317156D02*
X144937500Y-95400000D01*
%TO.N,Net-(IC501-VCC)*%
X147212500Y-74310000D02*
X147212500Y-74915000D01*
X147672500Y-73850000D02*
X147212500Y-74310000D01*
X147672500Y-71795000D02*
X147672500Y-73850000D01*
D24*
%TO.N,INT_tof1*%
X152587500Y-96850000D02*
X152687500Y-96950000D01*
D22*
X152687500Y-96950000D02*
X152687500Y-101150000D01*
%TO.N,+3.3V*%
X138792499Y-92554999D02*
X135648204Y-92554999D01*
X140437500Y-93800000D02*
X140037500Y-93800000D01*
X140037500Y-93800000D02*
X138792499Y-92554999D01*
%TO.N,PWM_MOT1_CH2*%
X138187500Y-83900000D02*
X140587500Y-86300000D01*
X138187500Y-75540000D02*
X138187500Y-83900000D01*
X140587500Y-91162046D02*
X140737500Y-91312046D01*
X140587500Y-86300000D02*
X140587500Y-91162046D01*
%TO.N,PWM_MOT2_CH1*%
X139837500Y-90750000D02*
X139837500Y-92750000D01*
X140022500Y-90565000D02*
X139837500Y-90750000D01*
X139837500Y-92750000D02*
X139837500Y-92550000D01*
%TO.N,/brain Sheet/status_Purple*%
X124637500Y-86750000D02*
X122337500Y-84450000D01*
X137987500Y-86750000D02*
X124637500Y-86750000D01*
X138037500Y-86700000D02*
X137987500Y-86750000D01*
%TO.N,/brain Sheet/status_Orange*%
X139337500Y-87200000D02*
X140028724Y-87891224D01*
X121587500Y-84600000D02*
X124187500Y-87200000D01*
X140028724Y-87891224D02*
X140037500Y-87891224D01*
X124187500Y-87200000D02*
X139337500Y-87200000D01*
%TO.N,M_EN*%
X158287500Y-88100000D02*
X159101409Y-87286091D01*
X152037500Y-88900000D02*
X152837500Y-88100000D01*
X152837500Y-88100000D02*
X158287500Y-88100000D01*
X159101409Y-87286091D02*
X159551409Y-87286091D01*
%TO.N,Codeur1_PH1*%
X144737500Y-99800000D02*
X144737500Y-96350000D01*
%TO.N,Codeur1_PH2*%
X143787500Y-100400000D02*
X143887500Y-100300000D01*
X143887500Y-100300000D02*
X143887500Y-97118284D01*
%TO.N,Codeur2_PH2*%
X146401077Y-98763577D02*
X146401077Y-96619599D01*
X146487500Y-98850000D02*
X146401077Y-98763577D01*
%TO.N,Codeur2_PH1*%
X145887500Y-99250000D02*
X145814666Y-99177166D01*
X145814666Y-99177166D02*
X145814666Y-96900000D01*
%TO.N,/brain Sheet/SWCLK*%
X157922206Y-97450000D02*
X160137500Y-97450000D01*
X157862586Y-97390380D02*
X157922206Y-97450000D01*
%TO.N,SCL*%
X150587500Y-96150000D02*
X150587500Y-97000000D01*
X150587500Y-97000000D02*
X146337500Y-101250000D01*
X149952500Y-95900000D02*
X150337500Y-95900000D01*
X146337500Y-101250000D02*
X146337500Y-105300000D01*
X150337500Y-95900000D02*
X150587500Y-96150000D01*
%TO.N,SDA*%
X149973591Y-96836091D02*
X149973591Y-96913909D01*
X145787500Y-101100000D02*
X145787500Y-107100000D01*
X149973591Y-96913909D02*
X145787500Y-101100000D01*
%TO.N,INT_tof2*%
X153237500Y-102300000D02*
X153237500Y-96700000D01*
X152637500Y-102900000D02*
X153237500Y-102300000D01*
X137637500Y-105850000D02*
X135637500Y-107850000D01*
X135637500Y-107850000D02*
X135637500Y-108975000D01*
X152137500Y-102900000D02*
X152637500Y-102900000D01*
%TO.N,nCS*%
X141037500Y-79300000D02*
X147687500Y-79300000D01*
D23*
X148137500Y-79850000D02*
X148137500Y-79750000D01*
D22*
X140687500Y-79650000D02*
X141037500Y-79300000D01*
X147687500Y-79300000D02*
X148137500Y-79750000D01*
%TO.N,MOSI*%
X149487500Y-82150000D02*
X154237500Y-82150000D01*
X148465617Y-83171883D02*
X148465617Y-83650000D01*
X149487500Y-82150000D02*
X148465617Y-83171883D01*
X154237500Y-82150000D02*
X154937500Y-81450000D01*
D23*
%TO.N,/brain Sheet/status_LiDAR*%
X143237500Y-94550000D02*
X141625030Y-94550000D01*
X141625030Y-94550000D02*
X141605539Y-94569491D01*
D22*
%TO.N,Net-(R406-Pad2)*%
X134037500Y-88200000D02*
X135087500Y-89250000D01*
X134037500Y-87800000D02*
X134037500Y-88200000D01*
%TD*%
%TA.AperFunction,Conductor*%
%TO.N,GND*%
G36*
X150843524Y-82595185D02*
G01*
X150889279Y-82647989D01*
X150899223Y-82717147D01*
X150883872Y-82761500D01*
X150864292Y-82795412D01*
X150864293Y-82795413D01*
X150837000Y-82897273D01*
X150837000Y-83632745D01*
X150817315Y-83699784D01*
X150800681Y-83720426D01*
X150357926Y-84163181D01*
X150296603Y-84196666D01*
X150270245Y-84199500D01*
X148957797Y-84199500D01*
X148890758Y-84179815D01*
X148845003Y-84127011D01*
X148835059Y-84057853D01*
X148859421Y-84000013D01*
X148924641Y-83915018D01*
X148977591Y-83787183D01*
X148995652Y-83650000D01*
X148977591Y-83512817D01*
X148935733Y-83411763D01*
X148928265Y-83342296D01*
X148959540Y-83279817D01*
X148962586Y-83276660D01*
X149540323Y-82698923D01*
X149601644Y-82665440D01*
X149611789Y-82663671D01*
X149624683Y-82661974D01*
X149752518Y-82609024D01*
X149762815Y-82601123D01*
X149827984Y-82575930D01*
X149838300Y-82575500D01*
X150776485Y-82575500D01*
X150843524Y-82595185D01*
G37*
%TD.AperFunction*%
%TA.AperFunction,Conductor*%
G36*
X145059036Y-83370185D02*
G01*
X145079678Y-83386819D01*
X145605678Y-83912819D01*
X145639163Y-83974142D01*
X145634179Y-84043834D01*
X145592307Y-84099767D01*
X145526843Y-84124184D01*
X145517997Y-84124500D01*
X144276512Y-84124500D01*
X144209473Y-84104815D01*
X144163718Y-84052011D01*
X144153774Y-83982853D01*
X144161951Y-83953048D01*
X144218399Y-83816768D01*
X144222544Y-83806762D01*
X144241404Y-83663506D01*
X144243182Y-83650001D01*
X144243182Y-83649998D01*
X144222208Y-83490685D01*
X144232974Y-83421650D01*
X144279354Y-83369394D01*
X144345147Y-83350500D01*
X144991997Y-83350500D01*
X145059036Y-83370185D01*
G37*
%TD.AperFunction*%
%TA.AperFunction,Conductor*%
G36*
X165530683Y-56320185D02*
G01*
X165576438Y-56372989D01*
X165586382Y-56442147D01*
X165557357Y-56505703D01*
X165508082Y-56540264D01*
X165443005Y-56565244D01*
X165097456Y-56741310D01*
X164772206Y-56952531D01*
X164514648Y-57161095D01*
X164514648Y-57161096D01*
X166009301Y-58655748D01*
X165907670Y-58729588D01*
X165729588Y-58907670D01*
X165655748Y-59009300D01*
X164161096Y-57514648D01*
X164161095Y-57514648D01*
X163952531Y-57772206D01*
X163741310Y-58097456D01*
X163565244Y-58443005D01*
X163426262Y-58805063D01*
X163325887Y-59179669D01*
X163325886Y-59179676D01*
X163265219Y-59562712D01*
X163244922Y-59949999D01*
X163244922Y-59950000D01*
X163265219Y-60337287D01*
X163325886Y-60720323D01*
X163325887Y-60720330D01*
X163426262Y-61094936D01*
X163565244Y-61456994D01*
X163741310Y-61802543D01*
X163952531Y-62127793D01*
X164161095Y-62385350D01*
X164161096Y-62385350D01*
X165655748Y-60890698D01*
X165729588Y-60992330D01*
X165907670Y-61170412D01*
X166009300Y-61244251D01*
X164514648Y-62738903D01*
X164514649Y-62738904D01*
X164772206Y-62947468D01*
X165097456Y-63158689D01*
X165443005Y-63334755D01*
X165805063Y-63473737D01*
X166179669Y-63574112D01*
X166179676Y-63574113D01*
X166562712Y-63634780D01*
X166949999Y-63655078D01*
X166950001Y-63655078D01*
X167337287Y-63634780D01*
X167720323Y-63574113D01*
X167720330Y-63574112D01*
X168094936Y-63473737D01*
X168456994Y-63334755D01*
X168802543Y-63158689D01*
X169127783Y-62947476D01*
X169127785Y-62947475D01*
X169385349Y-62738902D01*
X167890698Y-61244251D01*
X167992330Y-61170412D01*
X168170412Y-60992330D01*
X168244251Y-60890698D01*
X169738902Y-62385349D01*
X169947475Y-62127785D01*
X169947476Y-62127783D01*
X170158689Y-61802543D01*
X170334755Y-61456994D01*
X170459736Y-61131411D01*
X170502138Y-61075879D01*
X170567832Y-61052086D01*
X170635961Y-61067588D01*
X170684893Y-61117461D01*
X170699500Y-61175849D01*
X170699500Y-107724150D01*
X170679815Y-107791189D01*
X170627011Y-107836944D01*
X170557853Y-107846888D01*
X170494297Y-107817863D01*
X170459736Y-107768588D01*
X170334755Y-107443005D01*
X170158689Y-107097456D01*
X169947468Y-106772206D01*
X169738904Y-106514649D01*
X169738903Y-106514648D01*
X168244251Y-108009300D01*
X168170412Y-107907670D01*
X167992330Y-107729588D01*
X167890698Y-107655748D01*
X169385350Y-106161096D01*
X169385350Y-106161095D01*
X169127793Y-105952531D01*
X168802543Y-105741310D01*
X168456994Y-105565244D01*
X168094936Y-105426262D01*
X167720330Y-105325887D01*
X167720323Y-105325886D01*
X167337287Y-105265219D01*
X166950001Y-105244922D01*
X166949999Y-105244922D01*
X166562712Y-105265219D01*
X166179676Y-105325886D01*
X166179669Y-105325887D01*
X165805063Y-105426262D01*
X165443005Y-105565244D01*
X165097456Y-105741310D01*
X164772206Y-105952531D01*
X164514648Y-106161095D01*
X164514648Y-106161096D01*
X166009301Y-107655748D01*
X165907670Y-107729588D01*
X165729588Y-107907670D01*
X165655748Y-108009300D01*
X164161096Y-106514648D01*
X164161095Y-106514648D01*
X163952531Y-106772206D01*
X163741310Y-107097456D01*
X163565244Y-107443005D01*
X163426262Y-107805063D01*
X163325887Y-108179669D01*
X163325886Y-108179676D01*
X163265219Y-108562712D01*
X163244922Y-108949999D01*
X163244922Y-108950000D01*
X163265219Y-109337287D01*
X163325886Y-109720323D01*
X163325887Y-109720330D01*
X163426262Y-110094936D01*
X163565244Y-110456994D01*
X163741310Y-110802543D01*
X163952531Y-111127793D01*
X164161095Y-111385350D01*
X164161096Y-111385350D01*
X165655748Y-109890698D01*
X165729588Y-109992330D01*
X165907670Y-110170412D01*
X166009300Y-110244251D01*
X164514648Y-111738903D01*
X164514649Y-111738904D01*
X164772206Y-111947468D01*
X165097456Y-112158689D01*
X165443005Y-112334755D01*
X165768589Y-112459736D01*
X165824121Y-112502138D01*
X165847914Y-112567832D01*
X165832412Y-112635961D01*
X165782539Y-112684893D01*
X165724151Y-112699500D01*
X122175849Y-112699500D01*
X122108810Y-112679815D01*
X122063055Y-112627011D01*
X122053111Y-112557853D01*
X122082136Y-112494297D01*
X122131411Y-112459736D01*
X122456994Y-112334755D01*
X122802543Y-112158689D01*
X123127783Y-111947476D01*
X123127785Y-111947475D01*
X123385349Y-111738902D01*
X121890698Y-110244251D01*
X121992330Y-110170412D01*
X122170412Y-109992330D01*
X122244251Y-109890698D01*
X123738902Y-111385349D01*
X123947475Y-111127785D01*
X123947476Y-111127783D01*
X124158689Y-110802543D01*
X124334755Y-110456994D01*
X124473737Y-110094936D01*
X124568010Y-109743102D01*
X126987000Y-109743102D01*
X126990002Y-109768102D01*
X126997622Y-109831561D01*
X126997622Y-109831563D01*
X126997623Y-109831564D01*
X127007481Y-109856561D01*
X127053139Y-109972343D01*
X127144577Y-110092922D01*
X127265156Y-110184360D01*
X127265157Y-110184360D01*
X127265158Y-110184361D01*
X127405936Y-110239877D01*
X127494398Y-110250500D01*
X127494403Y-110250500D01*
X128780597Y-110250500D01*
X128780602Y-110250500D01*
X128869064Y-110239877D01*
X129009842Y-110184361D01*
X129130422Y-110092922D01*
X129221861Y-109972342D01*
X129277377Y-109831564D01*
X129288000Y-109743102D01*
X129288000Y-109452669D01*
X129307685Y-109385630D01*
X129360489Y-109339875D01*
X129429647Y-109329931D01*
X129493203Y-109358956D01*
X129529931Y-109414351D01*
X129571287Y-109541636D01*
X129571288Y-109541639D01*
X129653506Y-109702997D01*
X129759941Y-109849494D01*
X129759945Y-109849499D01*
X129888000Y-109977554D01*
X129888005Y-109977558D01*
X130015787Y-110070396D01*
X130034506Y-110083996D01*
X130124250Y-110129723D01*
X130195860Y-110166211D01*
X130195863Y-110166212D01*
X130272804Y-110191211D01*
X130368091Y-110222171D01*
X130450929Y-110235291D01*
X130546949Y-110250500D01*
X130546954Y-110250500D01*
X130728051Y-110250500D01*
X130814759Y-110236765D01*
X130906909Y-110222171D01*
X131079139Y-110166211D01*
X131240494Y-110083996D01*
X131387001Y-109977553D01*
X131515053Y-109849501D01*
X131621496Y-109702994D01*
X131703711Y-109541639D01*
X131759671Y-109369409D01*
X131765027Y-109335594D01*
X131794956Y-109272459D01*
X131854268Y-109235528D01*
X131924130Y-109236526D01*
X131982363Y-109275136D01*
X132009973Y-109335594D01*
X132015329Y-109369410D01*
X132071287Y-109541636D01*
X132071288Y-109541639D01*
X132153506Y-109702997D01*
X132259941Y-109849494D01*
X132259945Y-109849499D01*
X132388000Y-109977554D01*
X132388005Y-109977558D01*
X132515787Y-110070396D01*
X132534506Y-110083996D01*
X132624250Y-110129723D01*
X132695860Y-110166211D01*
X132695863Y-110166212D01*
X132772804Y-110191211D01*
X132868091Y-110222171D01*
X132950929Y-110235291D01*
X133046949Y-110250500D01*
X133046954Y-110250500D01*
X133228051Y-110250500D01*
X133314759Y-110236765D01*
X133406909Y-110222171D01*
X133579139Y-110166211D01*
X133740494Y-110083996D01*
X133887001Y-109977553D01*
X134015053Y-109849501D01*
X134121496Y-109702994D01*
X134203711Y-109541639D01*
X134259671Y-109369409D01*
X134265027Y-109335594D01*
X134294956Y-109272459D01*
X134354268Y-109235528D01*
X134424130Y-109236526D01*
X134482363Y-109275136D01*
X134509973Y-109335594D01*
X134515329Y-109369410D01*
X134571287Y-109541636D01*
X134571288Y-109541639D01*
X134653506Y-109702997D01*
X134759941Y-109849494D01*
X134759945Y-109849499D01*
X134888000Y-109977554D01*
X134888005Y-109977558D01*
X135015787Y-110070396D01*
X135034506Y-110083996D01*
X135124250Y-110129723D01*
X135195860Y-110166211D01*
X135195863Y-110166212D01*
X135272804Y-110191211D01*
X135368091Y-110222171D01*
X135450929Y-110235291D01*
X135546949Y-110250500D01*
X135546954Y-110250500D01*
X135728051Y-110250500D01*
X135814759Y-110236765D01*
X135906909Y-110222171D01*
X136079139Y-110166211D01*
X136240494Y-110083996D01*
X136387001Y-109977553D01*
X136515053Y-109849501D01*
X136621496Y-109702994D01*
X136703711Y-109541639D01*
X136759671Y-109369409D01*
X136765027Y-109335594D01*
X136794956Y-109272459D01*
X136854268Y-109235528D01*
X136924130Y-109236526D01*
X136982363Y-109275136D01*
X137009973Y-109335594D01*
X137015329Y-109369410D01*
X137071287Y-109541636D01*
X137071288Y-109541639D01*
X137153506Y-109702997D01*
X137259941Y-109849494D01*
X137259945Y-109849499D01*
X137388000Y-109977554D01*
X137388005Y-109977558D01*
X137515787Y-110070396D01*
X137534506Y-110083996D01*
X137624250Y-110129723D01*
X137695860Y-110166211D01*
X137695863Y-110166212D01*
X137772804Y-110191211D01*
X137868091Y-110222171D01*
X137950929Y-110235291D01*
X138046949Y-110250500D01*
X138046954Y-110250500D01*
X138228051Y-110250500D01*
X138314759Y-110236765D01*
X138406909Y-110222171D01*
X138579139Y-110166211D01*
X138740494Y-110083996D01*
X138887001Y-109977553D01*
X139015053Y-109849501D01*
X139121496Y-109702994D01*
X139165063Y-109617488D01*
X139213037Y-109566692D01*
X139280858Y-109549897D01*
X139346993Y-109572434D01*
X139386033Y-109617488D01*
X139482879Y-109807557D01*
X139607772Y-109979459D01*
X139607776Y-109979464D01*
X139758035Y-110129723D01*
X139758040Y-110129727D01*
X139929942Y-110254620D01*
X140119282Y-110351095D01*
X140321371Y-110416757D01*
X140387500Y-110427231D01*
X140387500Y-109379145D01*
X140454157Y-109417630D01*
X140574965Y-109450000D01*
X140700035Y-109450000D01*
X140820843Y-109417630D01*
X140887500Y-109379145D01*
X140887500Y-110427230D01*
X140953626Y-110416757D01*
X140953629Y-110416757D01*
X141155717Y-110351095D01*
X141345057Y-110254620D01*
X141516959Y-110129727D01*
X141516964Y-110129723D01*
X141667223Y-109979464D01*
X141667227Y-109979459D01*
X141792120Y-109807557D01*
X141812224Y-109768102D01*
X145937000Y-109768102D01*
X145941738Y-109807557D01*
X145947622Y-109856561D01*
X145947622Y-109856563D01*
X145947623Y-109856564D01*
X145965222Y-109901192D01*
X146003139Y-109997343D01*
X146094577Y-110117922D01*
X146215156Y-110209360D01*
X146215157Y-110209360D01*
X146215158Y-110209361D01*
X146355936Y-110264877D01*
X146444398Y-110275500D01*
X146444403Y-110275500D01*
X147730597Y-110275500D01*
X147730602Y-110275500D01*
X147819064Y-110264877D01*
X147959842Y-110209361D01*
X148080422Y-110117922D01*
X148171861Y-109997342D01*
X148227377Y-109856564D01*
X148238000Y-109768102D01*
X148238000Y-109477669D01*
X148257685Y-109410630D01*
X148310489Y-109364875D01*
X148379647Y-109354931D01*
X148443203Y-109383956D01*
X148479931Y-109439351D01*
X148521287Y-109566636D01*
X148521288Y-109566639D01*
X148577164Y-109676300D01*
X148599595Y-109720323D01*
X148603506Y-109727997D01*
X148709941Y-109874494D01*
X148709945Y-109874499D01*
X148838000Y-110002554D01*
X148838005Y-110002558D01*
X148936211Y-110073908D01*
X148984506Y-110108996D01*
X149074250Y-110154723D01*
X149145860Y-110191211D01*
X149145863Y-110191212D01*
X149231976Y-110219191D01*
X149318091Y-110247171D01*
X149400929Y-110260291D01*
X149496949Y-110275500D01*
X149496954Y-110275500D01*
X149678051Y-110275500D01*
X149764759Y-110261765D01*
X149856909Y-110247171D01*
X150029139Y-110191211D01*
X150190494Y-110108996D01*
X150337001Y-110002553D01*
X150465053Y-109874501D01*
X150571496Y-109727994D01*
X150653711Y-109566639D01*
X150709671Y-109394409D01*
X150715027Y-109360594D01*
X150744956Y-109297459D01*
X150804268Y-109260528D01*
X150874130Y-109261526D01*
X150932363Y-109300136D01*
X150959973Y-109360594D01*
X150965329Y-109394410D01*
X151021287Y-109566636D01*
X151021288Y-109566639D01*
X151077164Y-109676300D01*
X151099595Y-109720323D01*
X151103506Y-109727997D01*
X151209941Y-109874494D01*
X151209945Y-109874499D01*
X151338000Y-110002554D01*
X151338005Y-110002558D01*
X151436211Y-110073908D01*
X151484506Y-110108996D01*
X151574250Y-110154723D01*
X151645860Y-110191211D01*
X151645863Y-110191212D01*
X151731976Y-110219191D01*
X151818091Y-110247171D01*
X151900929Y-110260291D01*
X151996949Y-110275500D01*
X151996954Y-110275500D01*
X152178051Y-110275500D01*
X152264759Y-110261765D01*
X152356909Y-110247171D01*
X152529139Y-110191211D01*
X152690494Y-110108996D01*
X152837001Y-110002553D01*
X152965053Y-109874501D01*
X153071496Y-109727994D01*
X153153711Y-109566639D01*
X153209671Y-109394409D01*
X153215027Y-109360594D01*
X153244956Y-109297459D01*
X153304268Y-109260528D01*
X153374130Y-109261526D01*
X153432363Y-109300136D01*
X153459973Y-109360594D01*
X153465329Y-109394410D01*
X153521287Y-109566636D01*
X153521288Y-109566639D01*
X153577164Y-109676300D01*
X153599595Y-109720323D01*
X153603506Y-109727997D01*
X153709941Y-109874494D01*
X153709945Y-109874499D01*
X153838000Y-110002554D01*
X153838005Y-110002558D01*
X153936211Y-110073908D01*
X153984506Y-110108996D01*
X154074250Y-110154723D01*
X154145860Y-110191211D01*
X154145863Y-110191212D01*
X154231976Y-110219191D01*
X154318091Y-110247171D01*
X154400929Y-110260291D01*
X154496949Y-110275500D01*
X154496954Y-110275500D01*
X154678051Y-110275500D01*
X154764759Y-110261765D01*
X154856909Y-110247171D01*
X155029139Y-110191211D01*
X155190494Y-110108996D01*
X155337001Y-110002553D01*
X155465053Y-109874501D01*
X155571496Y-109727994D01*
X155653711Y-109566639D01*
X155709671Y-109394409D01*
X155715027Y-109360594D01*
X155744956Y-109297459D01*
X155804268Y-109260528D01*
X155874130Y-109261526D01*
X155932363Y-109300136D01*
X155959973Y-109360594D01*
X155965329Y-109394410D01*
X156021287Y-109566636D01*
X156021288Y-109566639D01*
X156077164Y-109676300D01*
X156099595Y-109720323D01*
X156103506Y-109727997D01*
X156209941Y-109874494D01*
X156209945Y-109874499D01*
X156338000Y-110002554D01*
X156338005Y-110002558D01*
X156436211Y-110073908D01*
X156484506Y-110108996D01*
X156574250Y-110154723D01*
X156645860Y-110191211D01*
X156645863Y-110191212D01*
X156731976Y-110219191D01*
X156818091Y-110247171D01*
X156900929Y-110260291D01*
X156996949Y-110275500D01*
X156996954Y-110275500D01*
X157178051Y-110275500D01*
X157264759Y-110261765D01*
X157356909Y-110247171D01*
X157529139Y-110191211D01*
X157690494Y-110108996D01*
X157837001Y-110002553D01*
X157965053Y-109874501D01*
X158071496Y-109727994D01*
X158115063Y-109642488D01*
X158163037Y-109591692D01*
X158230858Y-109574897D01*
X158296993Y-109597434D01*
X158336033Y-109642488D01*
X158432879Y-109832557D01*
X158557772Y-110004459D01*
X158557776Y-110004464D01*
X158708035Y-110154723D01*
X158708040Y-110154727D01*
X158879942Y-110279620D01*
X159069282Y-110376095D01*
X159271371Y-110441757D01*
X159337500Y-110452231D01*
X159337500Y-109404145D01*
X159404157Y-109442630D01*
X159524965Y-109475000D01*
X159650035Y-109475000D01*
X159770843Y-109442630D01*
X159837500Y-109404145D01*
X159837500Y-110452230D01*
X159903626Y-110441757D01*
X159903629Y-110441757D01*
X160105717Y-110376095D01*
X160295057Y-110279620D01*
X160466959Y-110154727D01*
X160466964Y-110154723D01*
X160617223Y-110004464D01*
X160617227Y-110004459D01*
X160742120Y-109832557D01*
X160838595Y-109643217D01*
X160904257Y-109441130D01*
X160904257Y-109441127D01*
X160934530Y-109250000D01*
X159991646Y-109250000D01*
X160030130Y-109183343D01*
X160062500Y-109062535D01*
X160062500Y-108937465D01*
X160030130Y-108816657D01*
X159991646Y-108750000D01*
X160934530Y-108750000D01*
X160904257Y-108558872D01*
X160904257Y-108558869D01*
X160838595Y-108356782D01*
X160742120Y-108167442D01*
X160617227Y-107995540D01*
X160617223Y-107995535D01*
X160466964Y-107845276D01*
X160466959Y-107845272D01*
X160295057Y-107720379D01*
X160105715Y-107623903D01*
X159903624Y-107558241D01*
X159837500Y-107547768D01*
X159837500Y-108595854D01*
X159770843Y-108557370D01*
X159650035Y-108525000D01*
X159524965Y-108525000D01*
X159404157Y-108557370D01*
X159337500Y-108595854D01*
X159337500Y-107547768D01*
X159337499Y-107547768D01*
X159271375Y-107558241D01*
X159069284Y-107623903D01*
X158879942Y-107720379D01*
X158708040Y-107845272D01*
X158708035Y-107845276D01*
X158557776Y-107995535D01*
X158557772Y-107995540D01*
X158432879Y-108167442D01*
X158336033Y-108357511D01*
X158288058Y-108408307D01*
X158220237Y-108425102D01*
X158154102Y-108402564D01*
X158115063Y-108357511D01*
X158102325Y-108332511D01*
X158071496Y-108272006D01*
X158004410Y-108179669D01*
X157965058Y-108125505D01*
X157965054Y-108125500D01*
X157836999Y-107997445D01*
X157836994Y-107997441D01*
X157690497Y-107891006D01*
X157690496Y-107891005D01*
X157690494Y-107891004D01*
X157623909Y-107857077D01*
X157529139Y-107808788D01*
X157529136Y-107808787D01*
X157356910Y-107752829D01*
X157178051Y-107724500D01*
X157178046Y-107724500D01*
X156996954Y-107724500D01*
X156996949Y-107724500D01*
X156818089Y-107752829D01*
X156645863Y-107808787D01*
X156645860Y-107808788D01*
X156484502Y-107891006D01*
X156338005Y-107997441D01*
X156338000Y-107997445D01*
X156209945Y-108125500D01*
X156209941Y-108125505D01*
X156103506Y-108272002D01*
X156021288Y-108433360D01*
X156021287Y-108433363D01*
X155965329Y-108605589D01*
X155959973Y-108639406D01*
X155930043Y-108702540D01*
X155870732Y-108739471D01*
X155800869Y-108738473D01*
X155742637Y-108699863D01*
X155715027Y-108639406D01*
X155711938Y-108619905D01*
X155709671Y-108605591D01*
X155675363Y-108500000D01*
X155653712Y-108433363D01*
X155653711Y-108433360D01*
X155602325Y-108332511D01*
X155571496Y-108272006D01*
X155504410Y-108179669D01*
X155465058Y-108125505D01*
X155465054Y-108125500D01*
X155336999Y-107997445D01*
X155336994Y-107997441D01*
X155190497Y-107891006D01*
X155190496Y-107891005D01*
X155190494Y-107891004D01*
X155123909Y-107857077D01*
X155029139Y-107808788D01*
X155029136Y-107808787D01*
X154856910Y-107752829D01*
X154678051Y-107724500D01*
X154678046Y-107724500D01*
X154496954Y-107724500D01*
X154496949Y-107724500D01*
X154318089Y-107752829D01*
X154145863Y-107808787D01*
X154145860Y-107808788D01*
X153984502Y-107891006D01*
X153838005Y-107997441D01*
X153838000Y-107997445D01*
X153709945Y-108125500D01*
X153709941Y-108125505D01*
X153603506Y-108272002D01*
X153521288Y-108433360D01*
X153521287Y-108433363D01*
X153465329Y-108605589D01*
X153459973Y-108639406D01*
X153430043Y-108702540D01*
X153370732Y-108739471D01*
X153300869Y-108738473D01*
X153242637Y-108699863D01*
X153215027Y-108639406D01*
X153211938Y-108619905D01*
X153209671Y-108605591D01*
X153175363Y-108500000D01*
X153153712Y-108433363D01*
X153153711Y-108433360D01*
X153102325Y-108332511D01*
X153071496Y-108272006D01*
X153004410Y-108179669D01*
X152965058Y-108125505D01*
X152965054Y-108125500D01*
X152836999Y-107997445D01*
X152836994Y-107997441D01*
X152690497Y-107891006D01*
X152690496Y-107891005D01*
X152690494Y-107891004D01*
X152623909Y-107857077D01*
X152529139Y-107808788D01*
X152529136Y-107808787D01*
X152356910Y-107752829D01*
X152178051Y-107724500D01*
X152178046Y-107724500D01*
X151996954Y-107724500D01*
X151996949Y-107724500D01*
X151818089Y-107752829D01*
X151645863Y-107808787D01*
X151645860Y-107808788D01*
X151484502Y-107891006D01*
X151338005Y-107997441D01*
X151338000Y-107997445D01*
X151209945Y-108125500D01*
X151209941Y-108125505D01*
X151103506Y-108272002D01*
X151021288Y-108433360D01*
X151021287Y-108433363D01*
X150965329Y-108605589D01*
X150959973Y-108639406D01*
X150930043Y-108702540D01*
X150870732Y-108739471D01*
X150800869Y-108738473D01*
X150742637Y-108699863D01*
X150715027Y-108639406D01*
X150711938Y-108619905D01*
X150709671Y-108605591D01*
X150675363Y-108500000D01*
X150653712Y-108433363D01*
X150653711Y-108433360D01*
X150602325Y-108332511D01*
X150571496Y-108272006D01*
X150504410Y-108179669D01*
X150465058Y-108125505D01*
X150465054Y-108125500D01*
X150336999Y-107997445D01*
X150336994Y-107997441D01*
X150190497Y-107891006D01*
X150190496Y-107891005D01*
X150190494Y-107891004D01*
X150123909Y-107857077D01*
X150029139Y-107808788D01*
X150029136Y-107808787D01*
X149856910Y-107752829D01*
X149678051Y-107724500D01*
X149678046Y-107724500D01*
X149496954Y-107724500D01*
X149496949Y-107724500D01*
X149318089Y-107752829D01*
X149145863Y-107808787D01*
X149145860Y-107808788D01*
X148984502Y-107891006D01*
X148838005Y-107997441D01*
X148838000Y-107997445D01*
X148709945Y-108125500D01*
X148709941Y-108125505D01*
X148603506Y-108272002D01*
X148521288Y-108433360D01*
X148521287Y-108433363D01*
X148479931Y-108560648D01*
X148440494Y-108618323D01*
X148376135Y-108645522D01*
X148307289Y-108633608D01*
X148255813Y-108586364D01*
X148238000Y-108522330D01*
X148238000Y-108231903D01*
X148238000Y-108231898D01*
X148227377Y-108143436D01*
X148171861Y-108002658D01*
X148171860Y-108002657D01*
X148171860Y-108002656D01*
X148080422Y-107882077D01*
X147959843Y-107790639D01*
X147819061Y-107735122D01*
X147772972Y-107729588D01*
X147730602Y-107724500D01*
X146444398Y-107724500D01*
X146405353Y-107729188D01*
X146355938Y-107735122D01*
X146215156Y-107790639D01*
X146094577Y-107882077D01*
X146003139Y-108002656D01*
X145947622Y-108143438D01*
X145944740Y-108167442D01*
X145937000Y-108231898D01*
X145937000Y-109768102D01*
X141812224Y-109768102D01*
X141888595Y-109618217D01*
X141954257Y-109416130D01*
X141954257Y-109416127D01*
X141984530Y-109225000D01*
X141041646Y-109225000D01*
X141080130Y-109158343D01*
X141112500Y-109037535D01*
X141112500Y-108912465D01*
X141080130Y-108791657D01*
X141041646Y-108725000D01*
X141984530Y-108725000D01*
X141954257Y-108533872D01*
X141954257Y-108533869D01*
X141888595Y-108331782D01*
X141792120Y-108142442D01*
X141667227Y-107970540D01*
X141667223Y-107970535D01*
X141516964Y-107820276D01*
X141516959Y-107820272D01*
X141345057Y-107695379D01*
X141155715Y-107598903D01*
X140953624Y-107533241D01*
X140887500Y-107522768D01*
X140887500Y-108570854D01*
X140820843Y-108532370D01*
X140700035Y-108500000D01*
X140574965Y-108500000D01*
X140454157Y-108532370D01*
X140387500Y-108570854D01*
X140387500Y-107522768D01*
X140387499Y-107522768D01*
X140321375Y-107533241D01*
X140119284Y-107598903D01*
X139929942Y-107695379D01*
X139758040Y-107820272D01*
X139758035Y-107820276D01*
X139607776Y-107970535D01*
X139607772Y-107970540D01*
X139482879Y-108142442D01*
X139386033Y-108332511D01*
X139338058Y-108383307D01*
X139270237Y-108400102D01*
X139204102Y-108377564D01*
X139165063Y-108332511D01*
X139164692Y-108331782D01*
X139121496Y-108247006D01*
X139046250Y-108143438D01*
X139015058Y-108100505D01*
X139015054Y-108100500D01*
X138886999Y-107972445D01*
X138886994Y-107972441D01*
X138740497Y-107866006D01*
X138740496Y-107866005D01*
X138740494Y-107866004D01*
X138683461Y-107836944D01*
X138579139Y-107783788D01*
X138579136Y-107783787D01*
X138406910Y-107727829D01*
X138228051Y-107699500D01*
X138228046Y-107699500D01*
X138046954Y-107699500D01*
X138046949Y-107699500D01*
X137868089Y-107727829D01*
X137695863Y-107783787D01*
X137695860Y-107783788D01*
X137534502Y-107866006D01*
X137388005Y-107972441D01*
X137388000Y-107972445D01*
X137259945Y-108100500D01*
X137259941Y-108100505D01*
X137153506Y-108247002D01*
X137071288Y-108408360D01*
X137071287Y-108408363D01*
X137015329Y-108580589D01*
X137009973Y-108614406D01*
X136980043Y-108677540D01*
X136920732Y-108714471D01*
X136850869Y-108713473D01*
X136792637Y-108674863D01*
X136765027Y-108614406D01*
X136761938Y-108594905D01*
X136759671Y-108580591D01*
X136711834Y-108433360D01*
X136703712Y-108408363D01*
X136703711Y-108408360D01*
X136664692Y-108331782D01*
X136621496Y-108247006D01*
X136546250Y-108143438D01*
X136515058Y-108100505D01*
X136515054Y-108100500D01*
X136386999Y-107972445D01*
X136386994Y-107972441D01*
X136347960Y-107944081D01*
X136305294Y-107888751D01*
X136299315Y-107819138D01*
X136331921Y-107757343D01*
X136333094Y-107756152D01*
X137690323Y-106398923D01*
X137751644Y-106365440D01*
X137761789Y-106363671D01*
X137774683Y-106361974D01*
X137902518Y-106309024D01*
X138012291Y-106224791D01*
X138096524Y-106115018D01*
X138149474Y-105987183D01*
X138167535Y-105850000D01*
X138149474Y-105712817D01*
X138096524Y-105584983D01*
X138012291Y-105475209D01*
X138012289Y-105475208D01*
X138012289Y-105475207D01*
X137902515Y-105390974D01*
X137774686Y-105338027D01*
X137774684Y-105338026D01*
X137774683Y-105338026D01*
X137682473Y-105325886D01*
X137637501Y-105319965D01*
X137637499Y-105319965D01*
X137592519Y-105325887D01*
X137500317Y-105338026D01*
X137500316Y-105338026D01*
X137500313Y-105338027D01*
X137372485Y-105390974D01*
X137262709Y-105475209D01*
X137178474Y-105584985D01*
X137125526Y-105712814D01*
X137125524Y-105712822D01*
X137123830Y-105725689D01*
X137095560Y-105789584D01*
X137088573Y-105797177D01*
X135376237Y-107509515D01*
X135297017Y-107588734D01*
X135297012Y-107588740D01*
X135240998Y-107685759D01*
X135240995Y-107685766D01*
X135232002Y-107719329D01*
X135195637Y-107778989D01*
X135168525Y-107797717D01*
X135124260Y-107820272D01*
X135034502Y-107866006D01*
X134888005Y-107972441D01*
X134888000Y-107972445D01*
X134759945Y-108100500D01*
X134759941Y-108100505D01*
X134653506Y-108247002D01*
X134571288Y-108408360D01*
X134571287Y-108408363D01*
X134515329Y-108580589D01*
X134509973Y-108614406D01*
X134480043Y-108677540D01*
X134420732Y-108714471D01*
X134350869Y-108713473D01*
X134292637Y-108674863D01*
X134265027Y-108614406D01*
X134261938Y-108594905D01*
X134259671Y-108580591D01*
X134211834Y-108433360D01*
X134203712Y-108408363D01*
X134203711Y-108408360D01*
X134164692Y-108331782D01*
X134121496Y-108247006D01*
X134046250Y-108143438D01*
X134015058Y-108100505D01*
X134015054Y-108100500D01*
X133886999Y-107972445D01*
X133886994Y-107972441D01*
X133740497Y-107866006D01*
X133740496Y-107866005D01*
X133740494Y-107866004D01*
X133683461Y-107836944D01*
X133579139Y-107783788D01*
X133579136Y-107783787D01*
X133406910Y-107727829D01*
X133228051Y-107699500D01*
X133228046Y-107699500D01*
X133046954Y-107699500D01*
X133046949Y-107699500D01*
X132868089Y-107727829D01*
X132695863Y-107783787D01*
X132695860Y-107783788D01*
X132534502Y-107866006D01*
X132388005Y-107972441D01*
X132388000Y-107972445D01*
X132259945Y-108100500D01*
X132259941Y-108100505D01*
X132153506Y-108247002D01*
X132071288Y-108408360D01*
X132071287Y-108408363D01*
X132015329Y-108580589D01*
X132009973Y-108614406D01*
X131980043Y-108677540D01*
X131920732Y-108714471D01*
X131850869Y-108713473D01*
X131792637Y-108674863D01*
X131765027Y-108614406D01*
X131761938Y-108594905D01*
X131759671Y-108580591D01*
X131711834Y-108433360D01*
X131703712Y-108408363D01*
X131703711Y-108408360D01*
X131664692Y-108331782D01*
X131621496Y-108247006D01*
X131546250Y-108143438D01*
X131515058Y-108100505D01*
X131515054Y-108100500D01*
X131386999Y-107972445D01*
X131386994Y-107972441D01*
X131240497Y-107866006D01*
X131240496Y-107866005D01*
X131240494Y-107866004D01*
X131183461Y-107836944D01*
X131079139Y-107783788D01*
X131079136Y-107783787D01*
X130906910Y-107727829D01*
X130728051Y-107699500D01*
X130728046Y-107699500D01*
X130546954Y-107699500D01*
X130546949Y-107699500D01*
X130368089Y-107727829D01*
X130195863Y-107783787D01*
X130195860Y-107783788D01*
X130034502Y-107866006D01*
X129888005Y-107972441D01*
X129888000Y-107972445D01*
X129759945Y-108100500D01*
X129759941Y-108100505D01*
X129653506Y-108247002D01*
X129571288Y-108408360D01*
X129571287Y-108408363D01*
X129529931Y-108535648D01*
X129490494Y-108593323D01*
X129426135Y-108620522D01*
X129357289Y-108608608D01*
X129305813Y-108561364D01*
X129288000Y-108497330D01*
X129288000Y-108206903D01*
X129288000Y-108206898D01*
X129277377Y-108118436D01*
X129221861Y-107977658D01*
X129221860Y-107977657D01*
X129221860Y-107977656D01*
X129130422Y-107857077D01*
X129009843Y-107765639D01*
X128895071Y-107720379D01*
X128869064Y-107710123D01*
X128869063Y-107710122D01*
X128869061Y-107710122D01*
X128823426Y-107704642D01*
X128780602Y-107699500D01*
X127494398Y-107699500D01*
X127455353Y-107704188D01*
X127405938Y-107710122D01*
X127265156Y-107765639D01*
X127144577Y-107857077D01*
X127053139Y-107977656D01*
X126997622Y-108118438D01*
X126991738Y-108167442D01*
X126987000Y-108206898D01*
X126987000Y-109743102D01*
X124568010Y-109743102D01*
X124574112Y-109720330D01*
X124574113Y-109720323D01*
X124634780Y-109337287D01*
X124655078Y-108950000D01*
X124655078Y-108949999D01*
X124634780Y-108562712D01*
X124574113Y-108179676D01*
X124574112Y-108179669D01*
X124473737Y-107805063D01*
X124334755Y-107443005D01*
X124158689Y-107097456D01*
X123947468Y-106772206D01*
X123738904Y-106514649D01*
X123738903Y-106514648D01*
X122244251Y-108009300D01*
X122170412Y-107907670D01*
X121992330Y-107729588D01*
X121890698Y-107655748D01*
X123385350Y-106161096D01*
X123385350Y-106161095D01*
X123127793Y-105952531D01*
X122802543Y-105741310D01*
X122456994Y-105565244D01*
X122094936Y-105426262D01*
X121720330Y-105325887D01*
X121720323Y-105325886D01*
X121337287Y-105265219D01*
X120950001Y-105244922D01*
X120949999Y-105244922D01*
X120562712Y-105265219D01*
X120179676Y-105325886D01*
X120179669Y-105325887D01*
X119805063Y-105426262D01*
X119443005Y-105565244D01*
X119097456Y-105741310D01*
X118772206Y-105952531D01*
X118514648Y-106161095D01*
X118514648Y-106161096D01*
X120009301Y-107655748D01*
X119907670Y-107729588D01*
X119729588Y-107907670D01*
X119655748Y-108009301D01*
X118161096Y-106514648D01*
X118161095Y-106514648D01*
X117952531Y-106772206D01*
X117741310Y-107097456D01*
X117565244Y-107443005D01*
X117540264Y-107508082D01*
X117497862Y-107563614D01*
X117432168Y-107587407D01*
X117364039Y-107571905D01*
X117315107Y-107522032D01*
X117300500Y-107463644D01*
X117300500Y-84600000D01*
X121057465Y-84600000D01*
X121065148Y-84658360D01*
X121075526Y-84737181D01*
X121075527Y-84737186D01*
X121128474Y-84865015D01*
X121128475Y-84865016D01*
X121128476Y-84865018D01*
X121212709Y-84974791D01*
X121322482Y-85059024D01*
X121322483Y-85059024D01*
X121322484Y-85059025D01*
X121365093Y-85076674D01*
X121450317Y-85111974D01*
X121463180Y-85113667D01*
X121527076Y-85141932D01*
X121534677Y-85148925D01*
X123842674Y-87456921D01*
X123842684Y-87456932D01*
X123847014Y-87461262D01*
X123847015Y-87461263D01*
X123926237Y-87540485D01*
X123986885Y-87575500D01*
X123986886Y-87575501D01*
X124023257Y-87596500D01*
X124023258Y-87596501D01*
X124023260Y-87596501D01*
X124023263Y-87596503D01*
X124131481Y-87625500D01*
X124131482Y-87625500D01*
X125894002Y-87625500D01*
X125961041Y-87645185D01*
X126006796Y-87697989D01*
X126017117Y-87764281D01*
X126012000Y-87806898D01*
X126012000Y-89093102D01*
X126017626Y-89139954D01*
X126022622Y-89181561D01*
X126078139Y-89322343D01*
X126169577Y-89442922D01*
X126290158Y-89534361D01*
X126290160Y-89534362D01*
X126419665Y-89585433D01*
X126474809Y-89628338D01*
X126498002Y-89694246D01*
X126481881Y-89762231D01*
X126447060Y-89801105D01*
X126283040Y-89920272D01*
X126283035Y-89920276D01*
X126132776Y-90070535D01*
X126132772Y-90070540D01*
X126007879Y-90242442D01*
X125911404Y-90431782D01*
X125845742Y-90633870D01*
X125845742Y-90633873D01*
X125835269Y-90700000D01*
X126883354Y-90700000D01*
X126844870Y-90766657D01*
X126812500Y-90887465D01*
X126812500Y-91012535D01*
X126844870Y-91133343D01*
X126883354Y-91200000D01*
X125835269Y-91200000D01*
X125845742Y-91266126D01*
X125845742Y-91266129D01*
X125911404Y-91468217D01*
X126007879Y-91657557D01*
X126132772Y-91829459D01*
X126132776Y-91829464D01*
X126283035Y-91979723D01*
X126283040Y-91979727D01*
X126454942Y-92104620D01*
X126645011Y-92201466D01*
X126695807Y-92249441D01*
X126712602Y-92317262D01*
X126690065Y-92383397D01*
X126645012Y-92422435D01*
X126559504Y-92466004D01*
X126413005Y-92572441D01*
X126413000Y-92572445D01*
X126284945Y-92700500D01*
X126284941Y-92700505D01*
X126178506Y-92847002D01*
X126096288Y-93008360D01*
X126096287Y-93008363D01*
X126040329Y-93180589D01*
X126012000Y-93359448D01*
X126012000Y-93540551D01*
X126040329Y-93719410D01*
X126096287Y-93891636D01*
X126096288Y-93891639D01*
X126141311Y-93979999D01*
X126170877Y-94038026D01*
X126178506Y-94052997D01*
X126284941Y-94199494D01*
X126284945Y-94199499D01*
X126413000Y-94327554D01*
X126413005Y-94327558D01*
X126530350Y-94412813D01*
X126559506Y-94433996D01*
X126664984Y-94487740D01*
X126720860Y-94516211D01*
X126720863Y-94516212D01*
X126806976Y-94544191D01*
X126893091Y-94572171D01*
X126917791Y-94576083D01*
X126926906Y-94577527D01*
X126990040Y-94607457D01*
X127026971Y-94666768D01*
X127025973Y-94736631D01*
X126987363Y-94794863D01*
X126926906Y-94822473D01*
X126893089Y-94827829D01*
X126720863Y-94883787D01*
X126720860Y-94883788D01*
X126559502Y-94966006D01*
X126413005Y-95072441D01*
X126413000Y-95072445D01*
X126284945Y-95200500D01*
X126284941Y-95200505D01*
X126178506Y-95347002D01*
X126096288Y-95508360D01*
X126096287Y-95508363D01*
X126040329Y-95680589D01*
X126012000Y-95859448D01*
X126012000Y-96040551D01*
X126040329Y-96219410D01*
X126096287Y-96391636D01*
X126096288Y-96391639D01*
X126137782Y-96473073D01*
X126161734Y-96520082D01*
X126178506Y-96552997D01*
X126284941Y-96699494D01*
X126284945Y-96699499D01*
X126413000Y-96827554D01*
X126413005Y-96827558D01*
X126512714Y-96900000D01*
X126559506Y-96933996D01*
X126651954Y-96981101D01*
X126720860Y-97016211D01*
X126720863Y-97016212D01*
X126746372Y-97024500D01*
X126893091Y-97072171D01*
X126917791Y-97076083D01*
X126926906Y-97077527D01*
X126990040Y-97107457D01*
X127026971Y-97166768D01*
X127025973Y-97236631D01*
X126987363Y-97294863D01*
X126926906Y-97322473D01*
X126893089Y-97327829D01*
X126720863Y-97383787D01*
X126720860Y-97383788D01*
X126559502Y-97466006D01*
X126413005Y-97572441D01*
X126413000Y-97572445D01*
X126284945Y-97700500D01*
X126284941Y-97700505D01*
X126178506Y-97847002D01*
X126096288Y-98008360D01*
X126096287Y-98008363D01*
X126040329Y-98180589D01*
X126012000Y-98359448D01*
X126012000Y-98540551D01*
X126040329Y-98719410D01*
X126096287Y-98891636D01*
X126096288Y-98891639D01*
X126178506Y-99052997D01*
X126284941Y-99199494D01*
X126284945Y-99199499D01*
X126413000Y-99327554D01*
X126413005Y-99327558D01*
X126485343Y-99380114D01*
X126559506Y-99433996D01*
X126664984Y-99487740D01*
X126720860Y-99516211D01*
X126720863Y-99516212D01*
X126778636Y-99534983D01*
X126893091Y-99572171D01*
X126917791Y-99576083D01*
X126926906Y-99577527D01*
X126990040Y-99607457D01*
X127026971Y-99666768D01*
X127025973Y-99736631D01*
X126987363Y-99794863D01*
X126926906Y-99822473D01*
X126893089Y-99827829D01*
X126720863Y-99883787D01*
X126720860Y-99883788D01*
X126559502Y-99966006D01*
X126413005Y-100072441D01*
X126413000Y-100072445D01*
X126284945Y-100200500D01*
X126284941Y-100200505D01*
X126178506Y-100347002D01*
X126096288Y-100508360D01*
X126096287Y-100508363D01*
X126040329Y-100680589D01*
X126012000Y-100859448D01*
X126012000Y-101040551D01*
X126040329Y-101219410D01*
X126096287Y-101391636D01*
X126096288Y-101391639D01*
X126178506Y-101552997D01*
X126284941Y-101699494D01*
X126284945Y-101699499D01*
X126413000Y-101827554D01*
X126413005Y-101827558D01*
X126540787Y-101920396D01*
X126559506Y-101933996D01*
X126664984Y-101987740D01*
X126720860Y-102016211D01*
X126720863Y-102016212D01*
X126806976Y-102044191D01*
X126893091Y-102072171D01*
X126975929Y-102085291D01*
X127071949Y-102100500D01*
X127071954Y-102100500D01*
X127503051Y-102100500D01*
X127589759Y-102086765D01*
X127681909Y-102072171D01*
X127854139Y-102016211D01*
X128015494Y-101933996D01*
X128162001Y-101827553D01*
X128290053Y-101699501D01*
X128396496Y-101552994D01*
X128478711Y-101391639D01*
X128534671Y-101219409D01*
X128549265Y-101127259D01*
X128563000Y-101040551D01*
X128563000Y-100859448D01*
X128546519Y-100755397D01*
X128534671Y-100680591D01*
X128488503Y-100538499D01*
X128478712Y-100508363D01*
X128478711Y-100508360D01*
X128471537Y-100494281D01*
X133359264Y-100494281D01*
X133377325Y-100631462D01*
X133377326Y-100631467D01*
X133430273Y-100759296D01*
X133430274Y-100759298D01*
X133430275Y-100759299D01*
X133514508Y-100869072D01*
X133624281Y-100953305D01*
X133752116Y-101006255D01*
X133875001Y-101022433D01*
X133889298Y-101024316D01*
X133889299Y-101024316D01*
X133889300Y-101024316D01*
X133902246Y-101022611D01*
X134026482Y-101006255D01*
X134154317Y-100953305D01*
X134264090Y-100869072D01*
X134348323Y-100759299D01*
X134401273Y-100631464D01*
X134406431Y-100592285D01*
X134434695Y-100528391D01*
X134493019Y-100489919D01*
X134562884Y-100489087D01*
X134622108Y-100526159D01*
X134643930Y-100561020D01*
X134687549Y-100666328D01*
X134687550Y-100666330D01*
X134687551Y-100666331D01*
X134771784Y-100776104D01*
X134881557Y-100860337D01*
X134881558Y-100860337D01*
X134881559Y-100860338D01*
X134916202Y-100874687D01*
X135009392Y-100913287D01*
X135132277Y-100929465D01*
X135146574Y-100931348D01*
X135146575Y-100931348D01*
X135146576Y-100931348D01*
X135159522Y-100929643D01*
X135283758Y-100913287D01*
X135411593Y-100860337D01*
X135521366Y-100776104D01*
X135605599Y-100666331D01*
X135658549Y-100538496D01*
X135676610Y-100401313D01*
X135676437Y-100400000D01*
X143257465Y-100400000D01*
X143274368Y-100528391D01*
X143275526Y-100537181D01*
X143275527Y-100537186D01*
X143328474Y-100665015D01*
X143328475Y-100665017D01*
X143328476Y-100665018D01*
X143412709Y-100774791D01*
X143522482Y-100859024D01*
X143522483Y-100859024D01*
X143522484Y-100859025D01*
X143565093Y-100876674D01*
X143650317Y-100911974D01*
X143773202Y-100928152D01*
X143787499Y-100930035D01*
X143787500Y-100930035D01*
X143787501Y-100930035D01*
X143800447Y-100928330D01*
X143924683Y-100911974D01*
X144052518Y-100859024D01*
X144162291Y-100774791D01*
X144246524Y-100665018D01*
X144299474Y-100537183D01*
X144317535Y-100400000D01*
X144317002Y-100395951D01*
X144317535Y-100392532D01*
X144317535Y-100391872D01*
X144317638Y-100391872D01*
X144327764Y-100326916D01*
X144374142Y-100274658D01*
X144441410Y-100255770D01*
X144487392Y-100265200D01*
X144527814Y-100281942D01*
X144600317Y-100311974D01*
X144713810Y-100326916D01*
X144737499Y-100330035D01*
X144737500Y-100330035D01*
X144737501Y-100330035D01*
X144761190Y-100326916D01*
X144874683Y-100311974D01*
X145002518Y-100259024D01*
X145112291Y-100174791D01*
X145196524Y-100065018D01*
X145249474Y-99937183D01*
X145267535Y-99800000D01*
X145264906Y-99780035D01*
X145262529Y-99761974D01*
X145249474Y-99662817D01*
X145249473Y-99662815D01*
X145249317Y-99661628D01*
X145260082Y-99592593D01*
X145306462Y-99540337D01*
X145373731Y-99521451D01*
X145440531Y-99541931D01*
X145470629Y-99569952D01*
X145512709Y-99624791D01*
X145622482Y-99709024D01*
X145750317Y-99761974D01*
X145873202Y-99778152D01*
X145887499Y-99780035D01*
X145887500Y-99780035D01*
X145887501Y-99780035D01*
X145900447Y-99778330D01*
X146024683Y-99761974D01*
X146152518Y-99709024D01*
X146262291Y-99624791D01*
X146346524Y-99515018D01*
X146370728Y-99456582D01*
X146414568Y-99402180D01*
X146480862Y-99380114D01*
X146485289Y-99380035D01*
X146487499Y-99380035D01*
X146487499Y-99380034D01*
X146487500Y-99380035D01*
X146606959Y-99364307D01*
X146675992Y-99375072D01*
X146728248Y-99421452D01*
X146747134Y-99488720D01*
X146726654Y-99555521D01*
X146710824Y-99574927D01*
X145526237Y-100759515D01*
X145447017Y-100838734D01*
X145447013Y-100838740D01*
X145390998Y-100935760D01*
X145390997Y-100935763D01*
X145362000Y-101043982D01*
X145362000Y-106749201D01*
X145342315Y-106816240D01*
X145336376Y-106824687D01*
X145328475Y-106834982D01*
X145275527Y-106962813D01*
X145275526Y-106962818D01*
X145257465Y-107099999D01*
X145257465Y-107100000D01*
X145275526Y-107237181D01*
X145275527Y-107237186D01*
X145328474Y-107365015D01*
X145328475Y-107365017D01*
X145328476Y-107365018D01*
X145412709Y-107474791D01*
X145522482Y-107559024D01*
X145650317Y-107611974D01*
X145773202Y-107628152D01*
X145787499Y-107630035D01*
X145787500Y-107630035D01*
X145787501Y-107630035D01*
X145800447Y-107628330D01*
X145924683Y-107611974D01*
X146052518Y-107559024D01*
X146162291Y-107474791D01*
X146246524Y-107365018D01*
X146299474Y-107237183D01*
X146317535Y-107100000D01*
X146299474Y-106962817D01*
X146246524Y-106834983D01*
X146246524Y-106834982D01*
X146238624Y-106824687D01*
X146213430Y-106759518D01*
X146213000Y-106749201D01*
X146213000Y-105954035D01*
X146232685Y-105886996D01*
X146285489Y-105841241D01*
X146329515Y-105831663D01*
X146329441Y-105831096D01*
X146336233Y-105830201D01*
X146337000Y-105830035D01*
X146337500Y-105830035D01*
X146474683Y-105811974D01*
X146602518Y-105759024D01*
X146712291Y-105674791D01*
X146796524Y-105565018D01*
X146849474Y-105437183D01*
X146867535Y-105300000D01*
X146849474Y-105162817D01*
X146796524Y-105034983D01*
X146796524Y-105034982D01*
X146788624Y-105024687D01*
X146763430Y-104959518D01*
X146763000Y-104949201D01*
X146763000Y-102900000D01*
X151607465Y-102900000D01*
X151622373Y-103013238D01*
X151625526Y-103037181D01*
X151625527Y-103037186D01*
X151678474Y-103165015D01*
X151678475Y-103165017D01*
X151678476Y-103165018D01*
X151762709Y-103274791D01*
X151872482Y-103359024D01*
X152000317Y-103411974D01*
X152123202Y-103428152D01*
X152137499Y-103430035D01*
X152137500Y-103430035D01*
X152137501Y-103430035D01*
X152150447Y-103428330D01*
X152274683Y-103411974D01*
X152402518Y-103359024D01*
X152412815Y-103351123D01*
X152477984Y-103325930D01*
X152488300Y-103325500D01*
X152693516Y-103325500D01*
X152693518Y-103325500D01*
X152801737Y-103296503D01*
X152898763Y-103240485D01*
X152969247Y-103170001D01*
X160161818Y-103170001D01*
X160182455Y-103326760D01*
X160182456Y-103326762D01*
X160242964Y-103472841D01*
X160339218Y-103598282D01*
X160464659Y-103694536D01*
X160610738Y-103755044D01*
X160689119Y-103765363D01*
X160767499Y-103775682D01*
X160767500Y-103775682D01*
X160767501Y-103775682D01*
X160819754Y-103768802D01*
X160924262Y-103755044D01*
X161070341Y-103694536D01*
X161195782Y-103598282D01*
X161292036Y-103472841D01*
X161352544Y-103326762D01*
X161373182Y-103170000D01*
X161352544Y-103013238D01*
X161292036Y-102867159D01*
X161195782Y-102741718D01*
X161070341Y-102645464D01*
X161045042Y-102634985D01*
X160924262Y-102584956D01*
X160924260Y-102584955D01*
X160767501Y-102564318D01*
X160767499Y-102564318D01*
X160610739Y-102584955D01*
X160610737Y-102584956D01*
X160464660Y-102645463D01*
X160339218Y-102741718D01*
X160242963Y-102867160D01*
X160182456Y-103013237D01*
X160182455Y-103013239D01*
X160161818Y-103169998D01*
X160161818Y-103170001D01*
X152969247Y-103170001D01*
X153577985Y-102561263D01*
X153634003Y-102464237D01*
X153663000Y-102356019D01*
X153663000Y-102243982D01*
X153663000Y-97390380D01*
X157332551Y-97390380D01*
X157342507Y-97466004D01*
X157350612Y-97527561D01*
X157350613Y-97527566D01*
X157403561Y-97655396D01*
X157403562Y-97655398D01*
X157464644Y-97735002D01*
X157489838Y-97800171D01*
X157480830Y-97857939D01*
X157450526Y-97931101D01*
X157432465Y-98068284D01*
X157449435Y-98197183D01*
X157450526Y-98205465D01*
X157450527Y-98205470D01*
X157503474Y-98333299D01*
X157503475Y-98333301D01*
X157503476Y-98333302D01*
X157587709Y-98443075D01*
X157697482Y-98527308D01*
X157825317Y-98580258D01*
X157948202Y-98596436D01*
X157962499Y-98598319D01*
X157962500Y-98598319D01*
X157962501Y-98598319D01*
X157975447Y-98596614D01*
X158099683Y-98580258D01*
X158227518Y-98527308D01*
X158337291Y-98443075D01*
X158337293Y-98443072D01*
X158337296Y-98443070D01*
X158343038Y-98437329D01*
X158344171Y-98438462D01*
X158392999Y-98402811D01*
X158434947Y-98395500D01*
X159892056Y-98395500D01*
X159959095Y-98415185D01*
X159979742Y-98431824D01*
X159982706Y-98434788D01*
X159982707Y-98434789D01*
X159982709Y-98434791D01*
X160092482Y-98519024D01*
X160092483Y-98519024D01*
X160092484Y-98519025D01*
X160112484Y-98527309D01*
X160220317Y-98571974D01*
X160343202Y-98588152D01*
X160357499Y-98590035D01*
X160357500Y-98590035D01*
X160357501Y-98590035D01*
X160370447Y-98588330D01*
X160494683Y-98571974D01*
X160622518Y-98519024D01*
X160732291Y-98434791D01*
X160816524Y-98325018D01*
X160869474Y-98197183D01*
X160887535Y-98060000D01*
X160869474Y-97922817D01*
X160816524Y-97794983D01*
X160732291Y-97685209D01*
X160732289Y-97685207D01*
X160732288Y-97685206D01*
X160702147Y-97662078D01*
X160660945Y-97605649D01*
X160654696Y-97547517D01*
X160657324Y-97527561D01*
X160667535Y-97450000D01*
X160649474Y-97312817D01*
X160614174Y-97227594D01*
X160596525Y-97184985D01*
X160596524Y-97184984D01*
X160596524Y-97184983D01*
X160512291Y-97075209D01*
X160512289Y-97075208D01*
X160512289Y-97075207D01*
X160420553Y-97004815D01*
X160402518Y-96990976D01*
X160402517Y-96990975D01*
X160402515Y-96990974D01*
X160274686Y-96938027D01*
X160274684Y-96938026D01*
X160274683Y-96938026D01*
X160183227Y-96925985D01*
X160137501Y-96919965D01*
X160137499Y-96919965D01*
X160068908Y-96928995D01*
X160000317Y-96938026D01*
X160000316Y-96938026D01*
X160000313Y-96938027D01*
X159872484Y-96990974D01*
X159872483Y-96990975D01*
X159862186Y-96998877D01*
X159797017Y-97024070D01*
X159786701Y-97024500D01*
X158291082Y-97024500D01*
X158224043Y-97004815D01*
X158215595Y-96998875D01*
X158205298Y-96990974D01*
X158127604Y-96931356D01*
X158127602Y-96931355D01*
X157999772Y-96878407D01*
X157999770Y-96878406D01*
X157999769Y-96878406D01*
X157900116Y-96865286D01*
X157862587Y-96860345D01*
X157862585Y-96860345D01*
X157825056Y-96865286D01*
X157725403Y-96878406D01*
X157725402Y-96878406D01*
X157725399Y-96878407D01*
X157597571Y-96931354D01*
X157487795Y-97015589D01*
X157403560Y-97125365D01*
X157350613Y-97253193D01*
X157350612Y-97253196D01*
X157350612Y-97253197D01*
X157345432Y-97292544D01*
X157333483Y-97383304D01*
X157332551Y-97390380D01*
X153663000Y-97390380D01*
X153663000Y-97050799D01*
X153682685Y-96983760D01*
X153688628Y-96975308D01*
X153696522Y-96965020D01*
X153696524Y-96965018D01*
X153749474Y-96837183D01*
X153767535Y-96700000D01*
X153767468Y-96699494D01*
X153757343Y-96622587D01*
X153749474Y-96562817D01*
X153704090Y-96453248D01*
X153696525Y-96434985D01*
X153696524Y-96434984D01*
X153696524Y-96434983D01*
X153612291Y-96325209D01*
X153612289Y-96325208D01*
X153612289Y-96325207D01*
X153502515Y-96240974D01*
X153374686Y-96188027D01*
X153374684Y-96188026D01*
X153374683Y-96188026D01*
X153283227Y-96175985D01*
X153237501Y-96169965D01*
X153237499Y-96169965D01*
X153168908Y-96178995D01*
X153100317Y-96188026D01*
X153100316Y-96188026D01*
X153100313Y-96188027D01*
X152972484Y-96240974D01*
X152972482Y-96240976D01*
X152860271Y-96327079D01*
X152795102Y-96352273D01*
X152737338Y-96343266D01*
X152724688Y-96338027D01*
X152724687Y-96338026D01*
X152587501Y-96319965D01*
X152587499Y-96319965D01*
X152547684Y-96325207D01*
X152450317Y-96338026D01*
X152450316Y-96338026D01*
X152450313Y-96338027D01*
X152322485Y-96390974D01*
X152212709Y-96475209D01*
X152128474Y-96584985D01*
X152075527Y-96712813D01*
X152075526Y-96712816D01*
X152075526Y-96712817D01*
X152057465Y-96850000D01*
X152075075Y-96983760D01*
X152075526Y-96987181D01*
X152075527Y-96987186D01*
X152128474Y-97115015D01*
X152128475Y-97115017D01*
X152128476Y-97115018D01*
X152130982Y-97118284D01*
X152212709Y-97224791D01*
X152213478Y-97225381D01*
X152213965Y-97226048D01*
X152218456Y-97230539D01*
X152217756Y-97231238D01*
X152254686Y-97281806D01*
X152262000Y-97323763D01*
X152262000Y-100799201D01*
X152242315Y-100866240D01*
X152236376Y-100874687D01*
X152228475Y-100884982D01*
X152175527Y-101012813D01*
X152175526Y-101012818D01*
X152157465Y-101149999D01*
X152157465Y-101150000D01*
X152175526Y-101287181D01*
X152175527Y-101287186D01*
X152228474Y-101415015D01*
X152228475Y-101415017D01*
X152228476Y-101415018D01*
X152312709Y-101524791D01*
X152422482Y-101609024D01*
X152550317Y-101661974D01*
X152687500Y-101680035D01*
X152688000Y-101680035D01*
X152688406Y-101680154D01*
X152695559Y-101681096D01*
X152695412Y-101682211D01*
X152755039Y-101699720D01*
X152800794Y-101752524D01*
X152812000Y-101804035D01*
X152812000Y-102072390D01*
X152792315Y-102139429D01*
X152775681Y-102160071D01*
X152526340Y-102409411D01*
X152465017Y-102442896D01*
X152395325Y-102437912D01*
X152391207Y-102436291D01*
X152274686Y-102388027D01*
X152274684Y-102388026D01*
X152274683Y-102388026D01*
X152183227Y-102375985D01*
X152137501Y-102369965D01*
X152137499Y-102369965D01*
X152068908Y-102378995D01*
X152000317Y-102388026D01*
X152000316Y-102388026D01*
X152000313Y-102388027D01*
X151872485Y-102440974D01*
X151762709Y-102525209D01*
X151678474Y-102634985D01*
X151625527Y-102762813D01*
X151625526Y-102762816D01*
X151625526Y-102762817D01*
X151607465Y-102900000D01*
X146763000Y-102900000D01*
X146763000Y-101477610D01*
X146782685Y-101410571D01*
X146799319Y-101389929D01*
X148861695Y-99327553D01*
X150927985Y-97261263D01*
X150984003Y-97164237D01*
X151013000Y-97056018D01*
X151013000Y-96943981D01*
X151013000Y-96093982D01*
X151007049Y-96071774D01*
X150984003Y-95985763D01*
X150984001Y-95985760D01*
X150982885Y-95981593D01*
X150984548Y-95911743D01*
X151023711Y-95853881D01*
X151087939Y-95826377D01*
X151102660Y-95825500D01*
X156603516Y-95825500D01*
X156603518Y-95825500D01*
X156711737Y-95796503D01*
X156808763Y-95740485D01*
X161238553Y-91310692D01*
X161238558Y-91310689D01*
X161248761Y-91300485D01*
X161248763Y-91300485D01*
X161327985Y-91221263D01*
X161384003Y-91124237D01*
X161413000Y-91016018D01*
X161413000Y-84950799D01*
X161432685Y-84883760D01*
X161438628Y-84875308D01*
X161446522Y-84865020D01*
X161446524Y-84865018D01*
X161499474Y-84737183D01*
X161517535Y-84600000D01*
X161499474Y-84462817D01*
X161446524Y-84334983D01*
X161362291Y-84225209D01*
X161362289Y-84225208D01*
X161362289Y-84225207D01*
X161260724Y-84147273D01*
X161252518Y-84140976D01*
X161252517Y-84140975D01*
X161252515Y-84140974D01*
X161124686Y-84088027D01*
X161124684Y-84088026D01*
X161124683Y-84088026D01*
X161027316Y-84075207D01*
X160987501Y-84069965D01*
X160987499Y-84069965D01*
X160924328Y-84078282D01*
X160850317Y-84088026D01*
X160850316Y-84088026D01*
X160850313Y-84088027D01*
X160722485Y-84140974D01*
X160612709Y-84225209D01*
X160528474Y-84334985D01*
X160475527Y-84462813D01*
X160475526Y-84462816D01*
X160475526Y-84462817D01*
X160457465Y-84600000D01*
X160465148Y-84658360D01*
X160467969Y-84679780D01*
X160457204Y-84748815D01*
X160410824Y-84801071D01*
X160345030Y-84819966D01*
X160337499Y-84819966D01*
X160268908Y-84828996D01*
X160200317Y-84838027D01*
X160200316Y-84838027D01*
X160200313Y-84838028D01*
X160072485Y-84890975D01*
X159962709Y-84975210D01*
X159878474Y-85084986D01*
X159825527Y-85212814D01*
X159825526Y-85212817D01*
X159825526Y-85212818D01*
X159807465Y-85350001D01*
X159822603Y-85464985D01*
X159825526Y-85487182D01*
X159825527Y-85487187D01*
X159878475Y-85615017D01*
X159878477Y-85615021D01*
X159886372Y-85625309D01*
X159911570Y-85690477D01*
X159912000Y-85700800D01*
X159912000Y-86681076D01*
X159892315Y-86748115D01*
X159839511Y-86793870D01*
X159770353Y-86803814D01*
X159740549Y-86795638D01*
X159736281Y-86793870D01*
X159688592Y-86774117D01*
X159620000Y-86765086D01*
X159551410Y-86756056D01*
X159551408Y-86756056D01*
X159482817Y-86765086D01*
X159414226Y-86774117D01*
X159414225Y-86774117D01*
X159414222Y-86774118D01*
X159286393Y-86827065D01*
X159286392Y-86827066D01*
X159276095Y-86834968D01*
X159210926Y-86860161D01*
X159200610Y-86860591D01*
X159157427Y-86860591D01*
X159045390Y-86860591D01*
X158937172Y-86889588D01*
X158937170Y-86889589D01*
X158937169Y-86889589D01*
X158840149Y-86945604D01*
X158840143Y-86945608D01*
X158147571Y-87638181D01*
X158086248Y-87671666D01*
X158059890Y-87674500D01*
X152781482Y-87674500D01*
X152673263Y-87703497D01*
X152673260Y-87703498D01*
X152576240Y-87759513D01*
X152576234Y-87759517D01*
X151984677Y-88351073D01*
X151923354Y-88384558D01*
X151913189Y-88386330D01*
X151900322Y-88388024D01*
X151900314Y-88388026D01*
X151772485Y-88440974D01*
X151662709Y-88525209D01*
X151578474Y-88634985D01*
X151525527Y-88762813D01*
X151525526Y-88762816D01*
X151525526Y-88762817D01*
X151507465Y-88900000D01*
X151515380Y-88960122D01*
X151525526Y-89037181D01*
X151525527Y-89037186D01*
X151578474Y-89165015D01*
X151578475Y-89165017D01*
X151578476Y-89165018D01*
X151662709Y-89274791D01*
X151772482Y-89359024D01*
X151900317Y-89411974D01*
X152023202Y-89428152D01*
X152037499Y-89430035D01*
X152037500Y-89430035D01*
X152037501Y-89430035D01*
X152050447Y-89428330D01*
X152174683Y-89411974D01*
X152302518Y-89359024D01*
X152412291Y-89274791D01*
X152496524Y-89165018D01*
X152549474Y-89037183D01*
X152551167Y-89024316D01*
X152579431Y-88960423D01*
X152586412Y-88952834D01*
X152977429Y-88561819D01*
X153038752Y-88528334D01*
X153065110Y-88525500D01*
X158343516Y-88525500D01*
X158343518Y-88525500D01*
X158451737Y-88496503D01*
X158548763Y-88440485D01*
X159197924Y-87791322D01*
X159259245Y-87757839D01*
X159328936Y-87762823D01*
X159333031Y-87764433D01*
X159414226Y-87798065D01*
X159481363Y-87806904D01*
X159551408Y-87816126D01*
X159551409Y-87816126D01*
X159551410Y-87816126D01*
X159564356Y-87814421D01*
X159688592Y-87798065D01*
X159740550Y-87776543D01*
X159810016Y-87769075D01*
X159872496Y-87800350D01*
X159908148Y-87860439D01*
X159912000Y-87891105D01*
X159912000Y-90502390D01*
X159892315Y-90569429D01*
X159875681Y-90590071D01*
X156177571Y-94288181D01*
X156116248Y-94321666D01*
X156089890Y-94324500D01*
X151079180Y-94324500D01*
X151012141Y-94304815D01*
X150966386Y-94252011D01*
X150956442Y-94182853D01*
X150964618Y-94153049D01*
X150969822Y-94140485D01*
X150979474Y-94117183D01*
X150997535Y-93980000D01*
X150979474Y-93842817D01*
X150979473Y-93842816D01*
X150978413Y-93834760D01*
X150980242Y-93834519D01*
X150981653Y-93774932D01*
X151007986Y-93731732D01*
X151007343Y-93731239D01*
X151011933Y-93725256D01*
X151012104Y-93724977D01*
X151012282Y-93724797D01*
X151012291Y-93724791D01*
X151096524Y-93615018D01*
X151149474Y-93487183D01*
X151167535Y-93350000D01*
X151149474Y-93212817D01*
X151098234Y-93089112D01*
X151096525Y-93084985D01*
X151096524Y-93084984D01*
X151096524Y-93084983D01*
X151012291Y-92975209D01*
X151012289Y-92975208D01*
X151012289Y-92975207D01*
X150902515Y-92890974D01*
X150774686Y-92838027D01*
X150774684Y-92838026D01*
X150774683Y-92838026D01*
X150683227Y-92825985D01*
X150637501Y-92819965D01*
X150637499Y-92819965D01*
X150568908Y-92828995D01*
X150500317Y-92838026D01*
X150500316Y-92838026D01*
X150500313Y-92838027D01*
X150372485Y-92890974D01*
X150262709Y-92975209D01*
X150178474Y-93084985D01*
X150125527Y-93212813D01*
X150125526Y-93212816D01*
X150125526Y-93212817D01*
X150107465Y-93350000D01*
X150117366Y-93425207D01*
X150126587Y-93495240D01*
X150124763Y-93495480D01*
X150123333Y-93555105D01*
X150097018Y-93598272D01*
X150097657Y-93598762D01*
X150093100Y-93604700D01*
X150092917Y-93605001D01*
X150092713Y-93605204D01*
X150008474Y-93714985D01*
X149955527Y-93842813D01*
X149955526Y-93842816D01*
X149955526Y-93842817D01*
X149937465Y-93980000D01*
X149955526Y-94117183D01*
X149965178Y-94140485D01*
X149970382Y-94153049D01*
X149977849Y-94222518D01*
X149946574Y-94284997D01*
X149886484Y-94320649D01*
X149855820Y-94324500D01*
X145171835Y-94324500D01*
X145104796Y-94304815D01*
X145096363Y-94298886D01*
X145030603Y-94248426D01*
X145030602Y-94248425D01*
X145030600Y-94248424D01*
X144902771Y-94195477D01*
X144902769Y-94195476D01*
X144902768Y-94195476D01*
X144806890Y-94182853D01*
X144765586Y-94177415D01*
X144765584Y-94177415D01*
X144724280Y-94182853D01*
X144628402Y-94195476D01*
X144628401Y-94195476D01*
X144628398Y-94195477D01*
X144500570Y-94248424D01*
X144390794Y-94332659D01*
X144306559Y-94442435D01*
X144253612Y-94570263D01*
X144253611Y-94570266D01*
X144253611Y-94570267D01*
X144253360Y-94572171D01*
X144238219Y-94687181D01*
X144235550Y-94707450D01*
X144250693Y-94822473D01*
X144253611Y-94844631D01*
X144253612Y-94844636D01*
X144306559Y-94972465D01*
X144306560Y-94972467D01*
X144306561Y-94972468D01*
X144342256Y-95018986D01*
X144367450Y-95084152D01*
X144358442Y-95141921D01*
X144342682Y-95179969D01*
X144324621Y-95317155D01*
X144324621Y-95317156D01*
X144342682Y-95454337D01*
X144342682Y-95454338D01*
X144394402Y-95579205D01*
X144401870Y-95648674D01*
X144370594Y-95711153D01*
X144310505Y-95746805D01*
X144240680Y-95744310D01*
X144232390Y-95741218D01*
X144224686Y-95738027D01*
X144224684Y-95738026D01*
X144224683Y-95738026D01*
X144133227Y-95725985D01*
X144087501Y-95719965D01*
X144087499Y-95719965D01*
X144018908Y-95728995D01*
X143950317Y-95738026D01*
X143950316Y-95738026D01*
X143950313Y-95738027D01*
X143822485Y-95790974D01*
X143712709Y-95875209D01*
X143628474Y-95984985D01*
X143575527Y-96112813D01*
X143575526Y-96112818D01*
X143558149Y-96244808D01*
X143557465Y-96250000D01*
X143573848Y-96374441D01*
X143575526Y-96387181D01*
X143575527Y-96387186D01*
X143628475Y-96515018D01*
X143629975Y-96517615D01*
X143630573Y-96520082D01*
X143631586Y-96522527D01*
X143631204Y-96522684D01*
X143646446Y-96585515D01*
X143623593Y-96651542D01*
X143598075Y-96677988D01*
X143512710Y-96743492D01*
X143428474Y-96853269D01*
X143375527Y-96981097D01*
X143375526Y-96981100D01*
X143375526Y-96981101D01*
X143357465Y-97118284D01*
X143375227Y-97253198D01*
X143375526Y-97255465D01*
X143375527Y-97255470D01*
X143428475Y-97383300D01*
X143428477Y-97383304D01*
X143436372Y-97393592D01*
X143461570Y-97458760D01*
X143462000Y-97469083D01*
X143462000Y-99926236D01*
X143442315Y-99993275D01*
X143418338Y-100019337D01*
X143418459Y-100019458D01*
X143415577Y-100022340D01*
X143413489Y-100024610D01*
X143412712Y-100025206D01*
X143412710Y-100025207D01*
X143412709Y-100025209D01*
X143376462Y-100072447D01*
X143328474Y-100134985D01*
X143275527Y-100262813D01*
X143275526Y-100262818D01*
X143263256Y-100356018D01*
X143257465Y-100400000D01*
X135676437Y-100400000D01*
X135658549Y-100264130D01*
X135605599Y-100136296D01*
X135521366Y-100026522D01*
X135521364Y-100026521D01*
X135521364Y-100026520D01*
X135442501Y-99966006D01*
X135411593Y-99942289D01*
X135411592Y-99942288D01*
X135411590Y-99942287D01*
X135283761Y-99889340D01*
X135283759Y-99889339D01*
X135283758Y-99889339D01*
X135192302Y-99877298D01*
X135146576Y-99871278D01*
X135146574Y-99871278D01*
X135077983Y-99880308D01*
X135009392Y-99889339D01*
X135009391Y-99889339D01*
X135009388Y-99889340D01*
X134881560Y-99942287D01*
X134771784Y-100026522D01*
X134687549Y-100136298D01*
X134634602Y-100264126D01*
X134634601Y-100264130D01*
X134629443Y-100303308D01*
X134601176Y-100367204D01*
X134542851Y-100405674D01*
X134472986Y-100406505D01*
X134413763Y-100369432D01*
X134391943Y-100334573D01*
X134348324Y-100229266D01*
X134348323Y-100229265D01*
X134348323Y-100229264D01*
X134264090Y-100119490D01*
X134264088Y-100119489D01*
X134264088Y-100119488D01*
X134154314Y-100035255D01*
X134026485Y-99982308D01*
X134026483Y-99982307D01*
X134026482Y-99982307D01*
X133935026Y-99970266D01*
X133889300Y-99964246D01*
X133889298Y-99964246D01*
X133820707Y-99973276D01*
X133752116Y-99982307D01*
X133752115Y-99982307D01*
X133752112Y-99982308D01*
X133624284Y-100035255D01*
X133514508Y-100119490D01*
X133430273Y-100229266D01*
X133377326Y-100357094D01*
X133377325Y-100357097D01*
X133377325Y-100357098D01*
X133375701Y-100369432D01*
X133359264Y-100494280D01*
X133359264Y-100494281D01*
X128471537Y-100494281D01*
X128424166Y-100401312D01*
X128396496Y-100347006D01*
X128371043Y-100311973D01*
X128290058Y-100200505D01*
X128290054Y-100200500D01*
X128161999Y-100072445D01*
X128161994Y-100072441D01*
X128015497Y-99966006D01*
X128015496Y-99966005D01*
X128015494Y-99966004D01*
X127958926Y-99937181D01*
X127854139Y-99883788D01*
X127854136Y-99883787D01*
X127681910Y-99827829D01*
X127648094Y-99822473D01*
X127584959Y-99792544D01*
X127548028Y-99733232D01*
X127549026Y-99663370D01*
X127587636Y-99605137D01*
X127648094Y-99577527D01*
X127655888Y-99576292D01*
X127681909Y-99572171D01*
X127854139Y-99516211D01*
X128015494Y-99433996D01*
X128162001Y-99327553D01*
X128290053Y-99199501D01*
X128396496Y-99052994D01*
X128478711Y-98891639D01*
X128534671Y-98719409D01*
X128555962Y-98584983D01*
X128563000Y-98540551D01*
X128563000Y-98359448D01*
X128538611Y-98205470D01*
X128534671Y-98180591D01*
X128478711Y-98008361D01*
X128478711Y-98008360D01*
X128435122Y-97922813D01*
X128396496Y-97847006D01*
X128315121Y-97735002D01*
X128290058Y-97700505D01*
X128290054Y-97700500D01*
X128161999Y-97572445D01*
X128161994Y-97572441D01*
X128015497Y-97466006D01*
X128015496Y-97466005D01*
X128015494Y-97466004D01*
X127953009Y-97434166D01*
X127854139Y-97383788D01*
X127854136Y-97383787D01*
X127681910Y-97327829D01*
X127648094Y-97322473D01*
X127584959Y-97292544D01*
X127548028Y-97233232D01*
X127549026Y-97163370D01*
X127587636Y-97105137D01*
X127648094Y-97077527D01*
X127655888Y-97076292D01*
X127681909Y-97072171D01*
X127854139Y-97016211D01*
X128015494Y-96933996D01*
X128162001Y-96827553D01*
X128290053Y-96699501D01*
X128396496Y-96552994D01*
X128478711Y-96391639D01*
X128534671Y-96219409D01*
X128549265Y-96127259D01*
X128563000Y-96040551D01*
X128563000Y-95859448D01*
X128540907Y-95719965D01*
X128534671Y-95680591D01*
X128478711Y-95508361D01*
X128478711Y-95508360D01*
X128450240Y-95452484D01*
X128396496Y-95347006D01*
X128374808Y-95317155D01*
X128290058Y-95200505D01*
X128290054Y-95200500D01*
X128161999Y-95072445D01*
X128161994Y-95072441D01*
X128015497Y-94966006D01*
X128015496Y-94966005D01*
X128015494Y-94966004D01*
X127963800Y-94939664D01*
X127854139Y-94883788D01*
X127854136Y-94883787D01*
X127681910Y-94827829D01*
X127648094Y-94822473D01*
X127584959Y-94792544D01*
X127548028Y-94733232D01*
X127549026Y-94663370D01*
X127587636Y-94605137D01*
X127648094Y-94577527D01*
X127655888Y-94576292D01*
X127681909Y-94572171D01*
X127690157Y-94569491D01*
X141075504Y-94569491D01*
X141090999Y-94687186D01*
X141093565Y-94706672D01*
X141093566Y-94706677D01*
X141146513Y-94834506D01*
X141146514Y-94834508D01*
X141146515Y-94834509D01*
X141230748Y-94944282D01*
X141340521Y-95028515D01*
X141468356Y-95081465D01*
X141591241Y-95097643D01*
X141605538Y-95099526D01*
X141605539Y-95099526D01*
X141605540Y-95099526D01*
X141618486Y-95097821D01*
X141742722Y-95081465D01*
X141870557Y-95028515D01*
X141938832Y-94976124D01*
X142004001Y-94950930D01*
X142014319Y-94950500D01*
X142854121Y-94950500D01*
X142921160Y-94970185D01*
X142929593Y-94976114D01*
X142972482Y-95009024D01*
X142972483Y-95009024D01*
X142972484Y-95009025D01*
X143015093Y-95026674D01*
X143100317Y-95061974D01*
X143223202Y-95078152D01*
X143237499Y-95080035D01*
X143237500Y-95080035D01*
X143237501Y-95080035D01*
X143250447Y-95078330D01*
X143374683Y-95061974D01*
X143502518Y-95009024D01*
X143612291Y-94924791D01*
X143696524Y-94815018D01*
X143749474Y-94687183D01*
X143767535Y-94550000D01*
X143749474Y-94412817D01*
X143696524Y-94284983D01*
X143612291Y-94175209D01*
X143612289Y-94175208D01*
X143612289Y-94175207D01*
X143536670Y-94117182D01*
X143502518Y-94090976D01*
X143502517Y-94090975D01*
X143502515Y-94090974D01*
X143374686Y-94038027D01*
X143374684Y-94038026D01*
X143374683Y-94038026D01*
X143283227Y-94025985D01*
X143237501Y-94019965D01*
X143237499Y-94019965D01*
X143168908Y-94028995D01*
X143100317Y-94038026D01*
X143100316Y-94038026D01*
X143100313Y-94038027D01*
X142972482Y-94090975D01*
X142929608Y-94123875D01*
X142864439Y-94149070D01*
X142854121Y-94149500D01*
X141963518Y-94149500D01*
X141896479Y-94129815D01*
X141888032Y-94123876D01*
X141870557Y-94110467D01*
X141870555Y-94110466D01*
X141742725Y-94057518D01*
X141742723Y-94057517D01*
X141742722Y-94057517D01*
X141651266Y-94045476D01*
X141605540Y-94039456D01*
X141605538Y-94039456D01*
X141536947Y-94048486D01*
X141468356Y-94057517D01*
X141468355Y-94057517D01*
X141468352Y-94057518D01*
X141340524Y-94110465D01*
X141230748Y-94194700D01*
X141146513Y-94304476D01*
X141093566Y-94432304D01*
X141093565Y-94432309D01*
X141082519Y-94516212D01*
X141075504Y-94569491D01*
X127690157Y-94569491D01*
X127854139Y-94516211D01*
X128015494Y-94433996D01*
X128162001Y-94327553D01*
X128290053Y-94199501D01*
X128396496Y-94052994D01*
X128478711Y-93891639D01*
X128534671Y-93719409D01*
X128551205Y-93615015D01*
X128563000Y-93540551D01*
X128563000Y-93359448D01*
X128546519Y-93255397D01*
X128534671Y-93180591D01*
X128502559Y-93081759D01*
X128478712Y-93008363D01*
X128478711Y-93008360D01*
X128450240Y-92952484D01*
X128396496Y-92847006D01*
X128376850Y-92819965D01*
X128290058Y-92700505D01*
X128290054Y-92700500D01*
X128161999Y-92572445D01*
X128161994Y-92572441D01*
X128015493Y-92466003D01*
X128015492Y-92466002D01*
X127929988Y-92422435D01*
X127879192Y-92374461D01*
X127862397Y-92306640D01*
X127884935Y-92240505D01*
X127929988Y-92201466D01*
X128120058Y-92104620D01*
X128291959Y-91979727D01*
X128291964Y-91979723D01*
X128442223Y-91829464D01*
X128442227Y-91829459D01*
X128567120Y-91657557D01*
X128663595Y-91468217D01*
X128729257Y-91266129D01*
X128729257Y-91266126D01*
X128739731Y-91200000D01*
X127691646Y-91200000D01*
X127730130Y-91133343D01*
X127762500Y-91012535D01*
X127762500Y-90887465D01*
X127730130Y-90766657D01*
X127691646Y-90700000D01*
X128739731Y-90700000D01*
X128729257Y-90633873D01*
X128729257Y-90633870D01*
X128663595Y-90431782D01*
X128567120Y-90242442D01*
X128442227Y-90070540D01*
X128442223Y-90070535D01*
X128291964Y-89920276D01*
X128291959Y-89920272D01*
X128127939Y-89801105D01*
X128085273Y-89745775D01*
X128079294Y-89676162D01*
X128111899Y-89614367D01*
X128155331Y-89585433D01*
X128284842Y-89534361D01*
X128405422Y-89442922D01*
X128496861Y-89322342D01*
X128552377Y-89181564D01*
X128563000Y-89093102D01*
X128563000Y-87806898D01*
X128557882Y-87764281D01*
X128569434Y-87695376D01*
X128616406Y-87643652D01*
X128680998Y-87625500D01*
X133389044Y-87625500D01*
X133456083Y-87645185D01*
X133501838Y-87697989D01*
X133511982Y-87765685D01*
X133510553Y-87776544D01*
X133507465Y-87800000D01*
X133525526Y-87937181D01*
X133525527Y-87937186D01*
X133578475Y-88065016D01*
X133578477Y-88065020D01*
X133586372Y-88075308D01*
X133611570Y-88140476D01*
X133612000Y-88150799D01*
X133612000Y-88256018D01*
X133640997Y-88364237D01*
X133697015Y-88461263D01*
X133697017Y-88461265D01*
X134538573Y-89302821D01*
X134572058Y-89364144D01*
X134573830Y-89374311D01*
X134575524Y-89387176D01*
X134575526Y-89387185D01*
X134628474Y-89515015D01*
X134628475Y-89515017D01*
X134628476Y-89515018D01*
X134712709Y-89624791D01*
X134822482Y-89709024D01*
X134950317Y-89761974D01*
X135073202Y-89778152D01*
X135087499Y-89780035D01*
X135087500Y-89780035D01*
X135087501Y-89780035D01*
X135100447Y-89778330D01*
X135224683Y-89761974D01*
X135352518Y-89709024D01*
X135462291Y-89624791D01*
X135546524Y-89515018D01*
X135599474Y-89387183D01*
X135617535Y-89250000D01*
X135599474Y-89112817D01*
X135546524Y-88984983D01*
X135462291Y-88875209D01*
X135462289Y-88875208D01*
X135462289Y-88875207D01*
X135352515Y-88790974D01*
X135224685Y-88738026D01*
X135224676Y-88738024D01*
X135211811Y-88736330D01*
X135147916Y-88708061D01*
X135140321Y-88701073D01*
X134557377Y-88118129D01*
X134523892Y-88056806D01*
X134528876Y-87987114D01*
X134530468Y-87983067D01*
X134549474Y-87937183D01*
X134567535Y-87800000D01*
X134563017Y-87765685D01*
X134573782Y-87696652D01*
X134620161Y-87644395D01*
X134685956Y-87625500D01*
X139109890Y-87625500D01*
X139176929Y-87645185D01*
X139197571Y-87661819D01*
X139489904Y-87954151D01*
X139523389Y-88015474D01*
X139525161Y-88025639D01*
X139525525Y-88028405D01*
X139525525Y-88028406D01*
X139578474Y-88156239D01*
X139578475Y-88156241D01*
X139578476Y-88156242D01*
X139662709Y-88266015D01*
X139772482Y-88350248D01*
X139772483Y-88350248D01*
X139772484Y-88350249D01*
X139806253Y-88364236D01*
X139900317Y-88403198D01*
X140037500Y-88421259D01*
X140038000Y-88421259D01*
X140038406Y-88421378D01*
X140045559Y-88422320D01*
X140045412Y-88423435D01*
X140105039Y-88440944D01*
X140150794Y-88493748D01*
X140162000Y-88545259D01*
X140162000Y-89911935D01*
X140142315Y-89978974D01*
X140089511Y-90024729D01*
X140030628Y-90033555D01*
X140030628Y-90034965D01*
X140022499Y-90034965D01*
X139953908Y-90043995D01*
X139885317Y-90053026D01*
X139885316Y-90053026D01*
X139885313Y-90053027D01*
X139757485Y-90105974D01*
X139647709Y-90190209D01*
X139563474Y-90299985D01*
X139510526Y-90427814D01*
X139510526Y-90427816D01*
X139507346Y-90451968D01*
X139491794Y-90497779D01*
X139440998Y-90585760D01*
X139440997Y-90585763D01*
X139412000Y-90693982D01*
X139412000Y-92273390D01*
X139392315Y-92340429D01*
X139339511Y-92386184D01*
X139270353Y-92396128D01*
X139206797Y-92367103D01*
X139200319Y-92361071D01*
X139053764Y-92214516D01*
X139053762Y-92214514D01*
X138956736Y-92158496D01*
X138848517Y-92129499D01*
X138848516Y-92129499D01*
X135999004Y-92129499D01*
X135931965Y-92109814D01*
X135923519Y-92103876D01*
X135913221Y-92095974D01*
X135785390Y-92043026D01*
X135785388Y-92043025D01*
X135785387Y-92043025D01*
X135693931Y-92030984D01*
X135648205Y-92024964D01*
X135648203Y-92024964D01*
X135579612Y-92033994D01*
X135511021Y-92043025D01*
X135511020Y-92043025D01*
X135511017Y-92043026D01*
X135383189Y-92095973D01*
X135273413Y-92180208D01*
X135189178Y-92289984D01*
X135133120Y-92425324D01*
X135131696Y-92424734D01*
X135100104Y-92476548D01*
X135064159Y-92499345D01*
X134937961Y-92551617D01*
X134828186Y-92635851D01*
X134743951Y-92745627D01*
X134691004Y-92873455D01*
X134691003Y-92873458D01*
X134691003Y-92873459D01*
X134689196Y-92887183D01*
X134676911Y-92980499D01*
X134672942Y-93010642D01*
X134690092Y-93140908D01*
X134691003Y-93147823D01*
X134691004Y-93147828D01*
X134743951Y-93275657D01*
X134743952Y-93275659D01*
X134743953Y-93275660D01*
X134828186Y-93385433D01*
X134937959Y-93469666D01*
X135065794Y-93522616D01*
X135188679Y-93538794D01*
X135202976Y-93540677D01*
X135202977Y-93540677D01*
X135202978Y-93540677D01*
X135215924Y-93538972D01*
X135340160Y-93522616D01*
X135467995Y-93469666D01*
X135577768Y-93385433D01*
X135662001Y-93275660D01*
X135714951Y-93147825D01*
X135714951Y-93147820D01*
X135718060Y-93140316D01*
X135719489Y-93140908D01*
X135751053Y-93089112D01*
X135787015Y-93066298D01*
X135913222Y-93014023D01*
X135923519Y-93006122D01*
X135988688Y-92980929D01*
X135999004Y-92980499D01*
X138564889Y-92980499D01*
X138631928Y-93000184D01*
X138652570Y-93016818D01*
X139692674Y-94056921D01*
X139692684Y-94056932D01*
X139697014Y-94061262D01*
X139697015Y-94061263D01*
X139776237Y-94140485D01*
X139840202Y-94177415D01*
X139873263Y-94196503D01*
X139981481Y-94225500D01*
X139981482Y-94225500D01*
X140086700Y-94225500D01*
X140153739Y-94245185D01*
X140162185Y-94251123D01*
X140172482Y-94259024D01*
X140300317Y-94311974D01*
X140418686Y-94327558D01*
X140437499Y-94330035D01*
X140437500Y-94330035D01*
X140437501Y-94330035D01*
X140456314Y-94327558D01*
X140574683Y-94311974D01*
X140702518Y-94259024D01*
X140812291Y-94174791D01*
X140896524Y-94065018D01*
X140949474Y-93937183D01*
X140967535Y-93800000D01*
X140949474Y-93662817D01*
X140896524Y-93534983D01*
X140812291Y-93425209D01*
X140812289Y-93425208D01*
X140812289Y-93425207D01*
X140745720Y-93374127D01*
X140702518Y-93340976D01*
X140702517Y-93340975D01*
X140702515Y-93340974D01*
X140574686Y-93288027D01*
X140574684Y-93288026D01*
X140574683Y-93288026D01*
X140480734Y-93275657D01*
X140437501Y-93269965D01*
X140437499Y-93269965D01*
X140359872Y-93280185D01*
X140290836Y-93269420D01*
X140238580Y-93223040D01*
X140219695Y-93155771D01*
X140240176Y-93088970D01*
X140245311Y-93081759D01*
X140296524Y-93015018D01*
X140349474Y-92887183D01*
X140367535Y-92750000D01*
X140349474Y-92612817D01*
X140302473Y-92499345D01*
X140296524Y-92484982D01*
X140288624Y-92474687D01*
X140263430Y-92409518D01*
X140263000Y-92399201D01*
X140263000Y-91861775D01*
X140282685Y-91794736D01*
X140335489Y-91748981D01*
X140404647Y-91739037D01*
X140462487Y-91763401D01*
X140472482Y-91771070D01*
X140600317Y-91824020D01*
X140723202Y-91840198D01*
X140737499Y-91842081D01*
X140737500Y-91842081D01*
X140737501Y-91842081D01*
X140750447Y-91840376D01*
X140874683Y-91824020D01*
X141002518Y-91771070D01*
X141112291Y-91686837D01*
X141196524Y-91577064D01*
X141230108Y-91495983D01*
X141273947Y-91441582D01*
X141328481Y-91420498D01*
X141444683Y-91405200D01*
X141572518Y-91352250D01*
X141682291Y-91268017D01*
X141766524Y-91158244D01*
X141819474Y-91030409D01*
X141837535Y-90893226D01*
X141819474Y-90756043D01*
X141783457Y-90669091D01*
X141775989Y-90599623D01*
X141807264Y-90537144D01*
X141810309Y-90533988D01*
X144732480Y-87611819D01*
X144793803Y-87578334D01*
X144820161Y-87575500D01*
X150943516Y-87575500D01*
X150943518Y-87575500D01*
X151051737Y-87546503D01*
X151148763Y-87490485D01*
X151745244Y-86894002D01*
X151785468Y-86867125D01*
X151838609Y-86845115D01*
X151948382Y-86760882D01*
X152032615Y-86651109D01*
X152085565Y-86523274D01*
X152103626Y-86386091D01*
X152085565Y-86248908D01*
X152084753Y-86246949D01*
X152084562Y-86245166D01*
X152083461Y-86241057D01*
X152084101Y-86240885D01*
X152077286Y-86177482D01*
X152108562Y-86115003D01*
X152168651Y-86079351D01*
X152199316Y-86075500D01*
X156193516Y-86075500D01*
X156193518Y-86075500D01*
X156301737Y-86046503D01*
X156398763Y-85990485D01*
X156690324Y-85698922D01*
X156751643Y-85665440D01*
X156761789Y-85663671D01*
X156774683Y-85661974D01*
X156902518Y-85609024D01*
X157012291Y-85524791D01*
X157096524Y-85415018D01*
X157149474Y-85287183D01*
X157167535Y-85150000D01*
X157167393Y-85148925D01*
X157163475Y-85119162D01*
X157149474Y-85012817D01*
X157102002Y-84898207D01*
X157096525Y-84884985D01*
X157096524Y-84884984D01*
X157096524Y-84884983D01*
X157012291Y-84775209D01*
X157012289Y-84775208D01*
X157012289Y-84775207D01*
X156902515Y-84690974D01*
X156774686Y-84638027D01*
X156774684Y-84638026D01*
X156774683Y-84638026D01*
X156683227Y-84625985D01*
X156637501Y-84619965D01*
X156637499Y-84619965D01*
X156568908Y-84628995D01*
X156500317Y-84638026D01*
X156500316Y-84638026D01*
X156500313Y-84638027D01*
X156372485Y-84690974D01*
X156262709Y-84775209D01*
X156178474Y-84884985D01*
X156125526Y-85012814D01*
X156125524Y-85012821D01*
X156123830Y-85025689D01*
X156095559Y-85089583D01*
X156088574Y-85097175D01*
X155997571Y-85188180D01*
X155936248Y-85221666D01*
X155909889Y-85224500D01*
X150646121Y-85224500D01*
X150579082Y-85204815D01*
X150533327Y-85152011D01*
X150523383Y-85082853D01*
X150552408Y-85019297D01*
X150611186Y-84981523D01*
X150613989Y-84980735D01*
X150642088Y-84973207D01*
X150733413Y-84920480D01*
X151557980Y-84095913D01*
X151610707Y-84004588D01*
X151638000Y-83902727D01*
X151638000Y-83797273D01*
X151638000Y-83167254D01*
X151657685Y-83100215D01*
X151674319Y-83079573D01*
X151792073Y-82961819D01*
X151853396Y-82928334D01*
X151879754Y-82925500D01*
X156315225Y-82925500D01*
X156315227Y-82925500D01*
X156417088Y-82898207D01*
X156508413Y-82845480D01*
X156957980Y-82395913D01*
X157010707Y-82304588D01*
X157038000Y-82202727D01*
X157038000Y-82097273D01*
X157038000Y-80350000D01*
X162935269Y-80350000D01*
X162945742Y-80416126D01*
X162945742Y-80416129D01*
X163011404Y-80618217D01*
X163107879Y-80807557D01*
X163232772Y-80979459D01*
X163232776Y-80979464D01*
X163383035Y-81129723D01*
X163383040Y-81129727D01*
X163554942Y-81254620D01*
X163745011Y-81351466D01*
X163795807Y-81399441D01*
X163812602Y-81467262D01*
X163790065Y-81533397D01*
X163745012Y-81572435D01*
X163659504Y-81616004D01*
X163513005Y-81722441D01*
X163513000Y-81722445D01*
X163384945Y-81850500D01*
X163384941Y-81850505D01*
X163278506Y-81997002D01*
X163196288Y-82158360D01*
X163196287Y-82158363D01*
X163140329Y-82330589D01*
X163112000Y-82509448D01*
X163112000Y-82690551D01*
X163140329Y-82869410D01*
X163196287Y-83041636D01*
X163196288Y-83041639D01*
X163239000Y-83125464D01*
X163260293Y-83167254D01*
X163278506Y-83202997D01*
X163384941Y-83349494D01*
X163384945Y-83349499D01*
X163513000Y-83477554D01*
X163513005Y-83477558D01*
X163578822Y-83525376D01*
X163659506Y-83583996D01*
X163755181Y-83632745D01*
X163820860Y-83666211D01*
X163820863Y-83666212D01*
X163875940Y-83684107D01*
X163993091Y-83722171D01*
X164017791Y-83726083D01*
X164026906Y-83727527D01*
X164090040Y-83757457D01*
X164126971Y-83816768D01*
X164125973Y-83886631D01*
X164087363Y-83944863D01*
X164026906Y-83972473D01*
X163993089Y-83977829D01*
X163820863Y-84033787D01*
X163820860Y-84033788D01*
X163659502Y-84116006D01*
X163513005Y-84222441D01*
X163513000Y-84222445D01*
X163384945Y-84350500D01*
X163384941Y-84350505D01*
X163278506Y-84497002D01*
X163196288Y-84658360D01*
X163196287Y-84658363D01*
X163140329Y-84830589D01*
X163112000Y-85009448D01*
X163112000Y-85190551D01*
X163140329Y-85369410D01*
X163196287Y-85541636D01*
X163196288Y-85541639D01*
X163252164Y-85651300D01*
X163277386Y-85700800D01*
X163278506Y-85702997D01*
X163384941Y-85849494D01*
X163384945Y-85849499D01*
X163513000Y-85977554D01*
X163513005Y-85977558D01*
X163607901Y-86046503D01*
X163659506Y-86083996D01*
X163741313Y-86125679D01*
X163820860Y-86166211D01*
X163820863Y-86166212D01*
X163888002Y-86188026D01*
X163993091Y-86222171D01*
X164017791Y-86226083D01*
X164026906Y-86227527D01*
X164090040Y-86257457D01*
X164126971Y-86316768D01*
X164125973Y-86386631D01*
X164087363Y-86444863D01*
X164026906Y-86472473D01*
X163993089Y-86477829D01*
X163820863Y-86533787D01*
X163820860Y-86533788D01*
X163659502Y-86616006D01*
X163513005Y-86722441D01*
X163513000Y-86722445D01*
X163384945Y-86850500D01*
X163384941Y-86850505D01*
X163278506Y-86997002D01*
X163196288Y-87158360D01*
X163196287Y-87158363D01*
X163140329Y-87330589D01*
X163112000Y-87509448D01*
X163112000Y-87690551D01*
X163140329Y-87869410D01*
X163196287Y-88041636D01*
X163196288Y-88041639D01*
X163278506Y-88202997D01*
X163384941Y-88349494D01*
X163384945Y-88349499D01*
X163513000Y-88477554D01*
X163513005Y-88477558D01*
X163582893Y-88528334D01*
X163659506Y-88583996D01*
X163759573Y-88634983D01*
X163820860Y-88666211D01*
X163820863Y-88666212D01*
X163948149Y-88707569D01*
X164005824Y-88747006D01*
X164033023Y-88811364D01*
X164021109Y-88880211D01*
X163973865Y-88931687D01*
X163909831Y-88949500D01*
X163619398Y-88949500D01*
X163580353Y-88954188D01*
X163530938Y-88960122D01*
X163390156Y-89015639D01*
X163269577Y-89107077D01*
X163178139Y-89227656D01*
X163122622Y-89368438D01*
X163120371Y-89387186D01*
X163112000Y-89456898D01*
X163112000Y-90743102D01*
X163114829Y-90766657D01*
X163122622Y-90831561D01*
X163178139Y-90972343D01*
X163269577Y-91092922D01*
X163390156Y-91184360D01*
X163390157Y-91184360D01*
X163390158Y-91184361D01*
X163530936Y-91239877D01*
X163619398Y-91250500D01*
X163619403Y-91250500D01*
X165155597Y-91250500D01*
X165155602Y-91250500D01*
X165244064Y-91239877D01*
X165384842Y-91184361D01*
X165505422Y-91092922D01*
X165596861Y-90972342D01*
X165652377Y-90831564D01*
X165663000Y-90743102D01*
X165663000Y-89456898D01*
X165652377Y-89368436D01*
X165596861Y-89227658D01*
X165596860Y-89227657D01*
X165596860Y-89227656D01*
X165505422Y-89107077D01*
X165384843Y-89015639D01*
X165288692Y-88977722D01*
X165244064Y-88960123D01*
X165244063Y-88960122D01*
X165244061Y-88960122D01*
X165198426Y-88954642D01*
X165155602Y-88949500D01*
X164865169Y-88949500D01*
X164798130Y-88929815D01*
X164752375Y-88877011D01*
X164742431Y-88807853D01*
X164771456Y-88744297D01*
X164826851Y-88707569D01*
X164954136Y-88666212D01*
X164954139Y-88666211D01*
X165115494Y-88583996D01*
X165262001Y-88477553D01*
X165390053Y-88349501D01*
X165496496Y-88202994D01*
X165578711Y-88041639D01*
X165634671Y-87869409D01*
X165651321Y-87764284D01*
X165663000Y-87690551D01*
X165663000Y-87509448D01*
X165642113Y-87377580D01*
X165634671Y-87330591D01*
X165595837Y-87211071D01*
X165578712Y-87158363D01*
X165578711Y-87158360D01*
X165550240Y-87102484D01*
X165496496Y-86997006D01*
X165482896Y-86978287D01*
X165390058Y-86850505D01*
X165390054Y-86850500D01*
X165261999Y-86722445D01*
X165261994Y-86722441D01*
X165115497Y-86616006D01*
X165115496Y-86616005D01*
X165115494Y-86616004D01*
X165063800Y-86589664D01*
X164954139Y-86533788D01*
X164954136Y-86533787D01*
X164781910Y-86477829D01*
X164748094Y-86472473D01*
X164684959Y-86442544D01*
X164648028Y-86383232D01*
X164649026Y-86313370D01*
X164687636Y-86255137D01*
X164748094Y-86227527D01*
X164755888Y-86226292D01*
X164781909Y-86222171D01*
X164947924Y-86168230D01*
X164954136Y-86166212D01*
X164954139Y-86166211D01*
X164989901Y-86147989D01*
X165115494Y-86083996D01*
X165262001Y-85977553D01*
X165390053Y-85849501D01*
X165496496Y-85702994D01*
X165578711Y-85541639D01*
X165634671Y-85369409D01*
X165650262Y-85270974D01*
X165663000Y-85190551D01*
X165663000Y-85009448D01*
X165640124Y-84865020D01*
X165634671Y-84830591D01*
X165589308Y-84690976D01*
X165578712Y-84658363D01*
X165578711Y-84658360D01*
X165548974Y-84599999D01*
X165496496Y-84497006D01*
X165471656Y-84462817D01*
X165390058Y-84350505D01*
X165390054Y-84350500D01*
X165261999Y-84222445D01*
X165261994Y-84222441D01*
X165115497Y-84116006D01*
X165115496Y-84116005D01*
X165115494Y-84116004D01*
X165035426Y-84075207D01*
X164954139Y-84033788D01*
X164954136Y-84033787D01*
X164781910Y-83977829D01*
X164748094Y-83972473D01*
X164684959Y-83942544D01*
X164648028Y-83883232D01*
X164649026Y-83813370D01*
X164687636Y-83755137D01*
X164748094Y-83727527D01*
X164755888Y-83726292D01*
X164781909Y-83722171D01*
X164954139Y-83666211D01*
X165115494Y-83583996D01*
X165262001Y-83477553D01*
X165390053Y-83349501D01*
X165496496Y-83202994D01*
X165578711Y-83041639D01*
X165634671Y-82869409D01*
X165658868Y-82716637D01*
X165663000Y-82690551D01*
X165663000Y-82509448D01*
X165636755Y-82343752D01*
X165634671Y-82330591D01*
X165578711Y-82158361D01*
X165578711Y-82158360D01*
X165542952Y-82088181D01*
X165496496Y-81997006D01*
X165449808Y-81932745D01*
X165390058Y-81850505D01*
X165390054Y-81850500D01*
X165261999Y-81722445D01*
X165261994Y-81722441D01*
X165115493Y-81616003D01*
X165115492Y-81616002D01*
X165029988Y-81572435D01*
X164979192Y-81524461D01*
X164962397Y-81456640D01*
X164984935Y-81390505D01*
X165029988Y-81351466D01*
X165220058Y-81254620D01*
X165391959Y-81129727D01*
X165391964Y-81129723D01*
X165542223Y-80979464D01*
X165542227Y-80979459D01*
X165667120Y-80807557D01*
X165763595Y-80618217D01*
X165829257Y-80416129D01*
X165829257Y-80416126D01*
X165839731Y-80350000D01*
X164791646Y-80350000D01*
X164830130Y-80283343D01*
X164862500Y-80162535D01*
X164862500Y-80037465D01*
X164830130Y-79916657D01*
X164791646Y-79850000D01*
X165839731Y-79850000D01*
X165829257Y-79783873D01*
X165829257Y-79783870D01*
X165763595Y-79581782D01*
X165667120Y-79392442D01*
X165542227Y-79220540D01*
X165542223Y-79220535D01*
X165391964Y-79070276D01*
X165391959Y-79070272D01*
X165220057Y-78945379D01*
X165029988Y-78848533D01*
X164979192Y-78800558D01*
X164962397Y-78732737D01*
X164984935Y-78666602D01*
X165029989Y-78627563D01*
X165115494Y-78583996D01*
X165262001Y-78477553D01*
X165390053Y-78349501D01*
X165496496Y-78202994D01*
X165578711Y-78041639D01*
X165634671Y-77869409D01*
X165656788Y-77729770D01*
X165663000Y-77690551D01*
X165663000Y-77509448D01*
X165644235Y-77390974D01*
X165634671Y-77330591D01*
X165578711Y-77158361D01*
X165578711Y-77158360D01*
X165550240Y-77102484D01*
X165496496Y-76997006D01*
X165444333Y-76925209D01*
X165390058Y-76850505D01*
X165390054Y-76850500D01*
X165261999Y-76722445D01*
X165261994Y-76722441D01*
X165115497Y-76616006D01*
X165115496Y-76616005D01*
X165115494Y-76616004D01*
X165063800Y-76589664D01*
X164954139Y-76533788D01*
X164954136Y-76533787D01*
X164781910Y-76477829D01*
X164748094Y-76472473D01*
X164684959Y-76442544D01*
X164648028Y-76383232D01*
X164649026Y-76313370D01*
X164687636Y-76255137D01*
X164748094Y-76227527D01*
X164755888Y-76226292D01*
X164781909Y-76222171D01*
X164954139Y-76166211D01*
X165115494Y-76083996D01*
X165262001Y-75977553D01*
X165390053Y-75849501D01*
X165496496Y-75702994D01*
X165578711Y-75541639D01*
X165634671Y-75369409D01*
X165655617Y-75237160D01*
X165663000Y-75190551D01*
X165663000Y-75009448D01*
X165638926Y-74857457D01*
X165634671Y-74830591D01*
X165578711Y-74658361D01*
X165578711Y-74658360D01*
X165550240Y-74602484D01*
X165496496Y-74497006D01*
X165482896Y-74478287D01*
X165390058Y-74350505D01*
X165390054Y-74350500D01*
X165261999Y-74222445D01*
X165261994Y-74222441D01*
X165115497Y-74116006D01*
X165115496Y-74116005D01*
X165115494Y-74116004D01*
X165063800Y-74089664D01*
X164954139Y-74033788D01*
X164954136Y-74033787D01*
X164781910Y-73977829D01*
X164748094Y-73972473D01*
X164684959Y-73942544D01*
X164648028Y-73883232D01*
X164649026Y-73813370D01*
X164687636Y-73755137D01*
X164748094Y-73727527D01*
X164755888Y-73726292D01*
X164781909Y-73722171D01*
X164954139Y-73666211D01*
X165115494Y-73583996D01*
X165262001Y-73477553D01*
X165390053Y-73349501D01*
X165496496Y-73202994D01*
X165578711Y-73041639D01*
X165634671Y-72869409D01*
X165658968Y-72716004D01*
X165663000Y-72690551D01*
X165663000Y-72509448D01*
X165646519Y-72405397D01*
X165634671Y-72330591D01*
X165578711Y-72158361D01*
X165578711Y-72158360D01*
X165528601Y-72060016D01*
X165496496Y-71997006D01*
X165431508Y-71907557D01*
X165390058Y-71850505D01*
X165390054Y-71850500D01*
X165261999Y-71722445D01*
X165261994Y-71722441D01*
X165115497Y-71616006D01*
X165115496Y-71616005D01*
X165115494Y-71616004D01*
X165045019Y-71580095D01*
X164954139Y-71533788D01*
X164954136Y-71533787D01*
X164781910Y-71477829D01*
X164603051Y-71449500D01*
X164603046Y-71449500D01*
X164171954Y-71449500D01*
X164171949Y-71449500D01*
X163993089Y-71477829D01*
X163820863Y-71533787D01*
X163820860Y-71533788D01*
X163659502Y-71616006D01*
X163513005Y-71722441D01*
X163513000Y-71722445D01*
X163384945Y-71850500D01*
X163384941Y-71850505D01*
X163278506Y-71997002D01*
X163196288Y-72158360D01*
X163196287Y-72158363D01*
X163140329Y-72330589D01*
X163112000Y-72509448D01*
X163112000Y-72690551D01*
X163140329Y-72869410D01*
X163196287Y-73041636D01*
X163196288Y-73041639D01*
X163278506Y-73202997D01*
X163384941Y-73349494D01*
X163384945Y-73349499D01*
X163513000Y-73477554D01*
X163513005Y-73477558D01*
X163640787Y-73570396D01*
X163659506Y-73583996D01*
X163764984Y-73637740D01*
X163820860Y-73666211D01*
X163820863Y-73666212D01*
X163892317Y-73689428D01*
X163993091Y-73722171D01*
X164017791Y-73726083D01*
X164026906Y-73727527D01*
X164090040Y-73757457D01*
X164126971Y-73816768D01*
X164125973Y-73886631D01*
X164087363Y-73944863D01*
X164026906Y-73972473D01*
X163993089Y-73977829D01*
X163820863Y-74033787D01*
X163820860Y-74033788D01*
X163659502Y-74116006D01*
X163513005Y-74222441D01*
X163513000Y-74222445D01*
X163384945Y-74350500D01*
X163384941Y-74350505D01*
X163278506Y-74497002D01*
X163196288Y-74658360D01*
X163196287Y-74658363D01*
X163140329Y-74830589D01*
X163112000Y-75009448D01*
X163112000Y-75190551D01*
X163140329Y-75369410D01*
X163196287Y-75541636D01*
X163196288Y-75541639D01*
X163278506Y-75702997D01*
X163384941Y-75849494D01*
X163384945Y-75849499D01*
X163513000Y-75977554D01*
X163513005Y-75977558D01*
X163640787Y-76070396D01*
X163659506Y-76083996D01*
X163764984Y-76137740D01*
X163820860Y-76166211D01*
X163820863Y-76166212D01*
X163906976Y-76194191D01*
X163993091Y-76222171D01*
X164017791Y-76226083D01*
X164026906Y-76227527D01*
X164090040Y-76257457D01*
X164126971Y-76316768D01*
X164125973Y-76386631D01*
X164087363Y-76444863D01*
X164026906Y-76472473D01*
X163993089Y-76477829D01*
X163820863Y-76533787D01*
X163820860Y-76533788D01*
X163659502Y-76616006D01*
X163513005Y-76722441D01*
X163513000Y-76722445D01*
X163384945Y-76850500D01*
X163384941Y-76850505D01*
X163278506Y-76997002D01*
X163196288Y-77158360D01*
X163196287Y-77158363D01*
X163140329Y-77330589D01*
X163112000Y-77509448D01*
X163112000Y-77690551D01*
X163140329Y-77869410D01*
X163196287Y-78041636D01*
X163196288Y-78041639D01*
X163252164Y-78151300D01*
X163275369Y-78196842D01*
X163278506Y-78202997D01*
X163384941Y-78349494D01*
X163384945Y-78349499D01*
X163513000Y-78477554D01*
X163513005Y-78477558D01*
X163592129Y-78535044D01*
X163659506Y-78583996D01*
X163745011Y-78627563D01*
X163795807Y-78675538D01*
X163812602Y-78743359D01*
X163790065Y-78809494D01*
X163745011Y-78848533D01*
X163554942Y-78945379D01*
X163383040Y-79070272D01*
X163383035Y-79070276D01*
X163232776Y-79220535D01*
X163232772Y-79220540D01*
X163107879Y-79392442D01*
X163011404Y-79581782D01*
X162945742Y-79783870D01*
X162945742Y-79783873D01*
X162935269Y-79850000D01*
X163983354Y-79850000D01*
X163944870Y-79916657D01*
X163912500Y-80037465D01*
X163912500Y-80162535D01*
X163944870Y-80283343D01*
X163983354Y-80350000D01*
X162935269Y-80350000D01*
X157038000Y-80350000D01*
X157038000Y-79460148D01*
X157057685Y-79393109D01*
X157074319Y-79372467D01*
X157659967Y-78786819D01*
X157721290Y-78753334D01*
X157747648Y-78750500D01*
X158690225Y-78750500D01*
X158690227Y-78750500D01*
X158792088Y-78723207D01*
X158883413Y-78670480D01*
X158962489Y-78591402D01*
X159023811Y-78557917D01*
X159033986Y-78556144D01*
X159037497Y-78555681D01*
X159037500Y-78555682D01*
X159194262Y-78535044D01*
X159340341Y-78474536D01*
X159465782Y-78378282D01*
X159562036Y-78252841D01*
X159622544Y-78106762D01*
X159643182Y-77950000D01*
X159638044Y-77910976D01*
X159622544Y-77793239D01*
X159622544Y-77793238D01*
X159562036Y-77647159D01*
X159465782Y-77521718D01*
X159340341Y-77425464D01*
X159320981Y-77417445D01*
X159194262Y-77364956D01*
X159194260Y-77364955D01*
X159037501Y-77344318D01*
X159037499Y-77344318D01*
X158880739Y-77364955D01*
X158880737Y-77364956D01*
X158734660Y-77425463D01*
X158609218Y-77521718D01*
X158512964Y-77647159D01*
X158482079Y-77721721D01*
X158438237Y-77776124D01*
X158371943Y-77798188D01*
X158304244Y-77780908D01*
X158256634Y-77729770D01*
X158252985Y-77720158D01*
X158252584Y-77720325D01*
X158196525Y-77584985D01*
X158196524Y-77584984D01*
X158196524Y-77584983D01*
X158112291Y-77475209D01*
X158112289Y-77475208D01*
X158112289Y-77475207D01*
X158037014Y-77417446D01*
X158002518Y-77390976D01*
X158002517Y-77390975D01*
X158002515Y-77390974D01*
X157874686Y-77338027D01*
X157874684Y-77338026D01*
X157874683Y-77338026D01*
X157754256Y-77322171D01*
X157737501Y-77319965D01*
X157737499Y-77319965D01*
X157668908Y-77328995D01*
X157600317Y-77338026D01*
X157600316Y-77338026D01*
X157600313Y-77338027D01*
X157472484Y-77390974D01*
X157472482Y-77390976D01*
X157437986Y-77417446D01*
X157372816Y-77442640D01*
X157304372Y-77428601D01*
X157287013Y-77417445D01*
X157252519Y-77390976D01*
X157252516Y-77390975D01*
X157124686Y-77338027D01*
X157124684Y-77338026D01*
X157124683Y-77338026D01*
X157004256Y-77322171D01*
X156987501Y-77319965D01*
X156987499Y-77319965D01*
X156918908Y-77328995D01*
X156850317Y-77338026D01*
X156850316Y-77338026D01*
X156850313Y-77338027D01*
X156722484Y-77390974D01*
X156722482Y-77390976D01*
X156687986Y-77417446D01*
X156622816Y-77442640D01*
X156554372Y-77428601D01*
X156537013Y-77417445D01*
X156502519Y-77390976D01*
X156502516Y-77390975D01*
X156374686Y-77338027D01*
X156374684Y-77338026D01*
X156374683Y-77338026D01*
X156254256Y-77322171D01*
X156237501Y-77319965D01*
X156237499Y-77319965D01*
X156168908Y-77328995D01*
X156100317Y-77338026D01*
X156100316Y-77338026D01*
X156100313Y-77338027D01*
X155972485Y-77390974D01*
X155862709Y-77475209D01*
X155778474Y-77584985D01*
X155725527Y-77712813D01*
X155725526Y-77712816D01*
X155725526Y-77712817D01*
X155725106Y-77716006D01*
X155710094Y-77830035D01*
X155707465Y-77850000D01*
X155720696Y-77950500D01*
X155725526Y-77987181D01*
X155725527Y-77987186D01*
X155778474Y-78115015D01*
X155778475Y-78115017D01*
X155778476Y-78115018D01*
X155862709Y-78224791D01*
X155972482Y-78309024D01*
X156100317Y-78361974D01*
X156223202Y-78378152D01*
X156237499Y-78380035D01*
X156237500Y-78380035D01*
X156237501Y-78380035D01*
X156250823Y-78378281D01*
X156374683Y-78361974D01*
X156502518Y-78309024D01*
X156537013Y-78282554D01*
X156602180Y-78257359D01*
X156670625Y-78271396D01*
X156687984Y-78282552D01*
X156703582Y-78294521D01*
X156722480Y-78309023D01*
X156722483Y-78309025D01*
X156750781Y-78320746D01*
X156805185Y-78364587D01*
X156827250Y-78430881D01*
X156809971Y-78498580D01*
X156791010Y-78522988D01*
X156317022Y-78996977D01*
X156317020Y-78996980D01*
X156264293Y-79088303D01*
X156237000Y-79190166D01*
X156237000Y-81932745D01*
X156217315Y-81999784D01*
X156200681Y-82020426D01*
X156132926Y-82088181D01*
X156071603Y-82121666D01*
X156045245Y-82124500D01*
X155410196Y-82124500D01*
X155343157Y-82104815D01*
X155297402Y-82052011D01*
X155287458Y-81982853D01*
X155316483Y-81919297D01*
X155334710Y-81902124D01*
X155357046Y-81884985D01*
X155365782Y-81878282D01*
X155462036Y-81752841D01*
X155522544Y-81606762D01*
X155540627Y-81469409D01*
X155543182Y-81450001D01*
X155543182Y-81449998D01*
X155522544Y-81293239D01*
X155522544Y-81293238D01*
X155462036Y-81147159D01*
X155365782Y-81021718D01*
X155240341Y-80925464D01*
X155238716Y-80924791D01*
X155094262Y-80864956D01*
X155094260Y-80864955D01*
X154937501Y-80844318D01*
X154937499Y-80844318D01*
X154780739Y-80864955D01*
X154780737Y-80864956D01*
X154634660Y-80925463D01*
X154509218Y-81021718D01*
X154412963Y-81147160D01*
X154352456Y-81293237D01*
X154352456Y-81293239D01*
X154336715Y-81412798D01*
X154308448Y-81476694D01*
X154301458Y-81484293D01*
X154097569Y-81688182D01*
X154036249Y-81721666D01*
X154009890Y-81724500D01*
X149838300Y-81724500D01*
X149771261Y-81704815D01*
X149762815Y-81698877D01*
X149752517Y-81690975D01*
X149624686Y-81638027D01*
X149624684Y-81638026D01*
X149624683Y-81638026D01*
X149533227Y-81625985D01*
X149487501Y-81619965D01*
X149487499Y-81619965D01*
X149418908Y-81628995D01*
X149350317Y-81638026D01*
X149350316Y-81638026D01*
X149350313Y-81638027D01*
X149222485Y-81690974D01*
X149112709Y-81775209D01*
X149028474Y-81884985D01*
X148975526Y-82012814D01*
X148975524Y-82012822D01*
X148973830Y-82025689D01*
X148945560Y-82089584D01*
X148938573Y-82097177D01*
X148774680Y-82261070D01*
X148713358Y-82294555D01*
X148643667Y-82289571D01*
X148587733Y-82247700D01*
X148563316Y-82182235D01*
X148563000Y-82173389D01*
X148563000Y-79693984D01*
X148563000Y-79693982D01*
X148534003Y-79585763D01*
X148477985Y-79488737D01*
X147948763Y-78959515D01*
X147851737Y-78903497D01*
X147743518Y-78874500D01*
X147743517Y-78874500D01*
X144864210Y-78874500D01*
X144797171Y-78854815D01*
X144751416Y-78802011D01*
X144741472Y-78732853D01*
X144765834Y-78675014D01*
X144775398Y-78662549D01*
X144796524Y-78635018D01*
X144849474Y-78507183D01*
X144867535Y-78370000D01*
X144849474Y-78232817D01*
X144796524Y-78104983D01*
X144712291Y-77995209D01*
X144712289Y-77995208D01*
X144712289Y-77995207D01*
X144621085Y-77925223D01*
X144602518Y-77910976D01*
X144602517Y-77910975D01*
X144602515Y-77910974D01*
X144474686Y-77858027D01*
X144474684Y-77858026D01*
X144474683Y-77858026D01*
X144383227Y-77845985D01*
X144337501Y-77839965D01*
X144337499Y-77839965D01*
X144270735Y-77848755D01*
X144200317Y-77858026D01*
X144200316Y-77858026D01*
X144200313Y-77858027D01*
X144072485Y-77910974D01*
X143962709Y-77995209D01*
X143878474Y-78104985D01*
X143825527Y-78232813D01*
X143825526Y-78232816D01*
X143825526Y-78232817D01*
X143807465Y-78370000D01*
X143824393Y-78498580D01*
X143825526Y-78507181D01*
X143825527Y-78507186D01*
X143878475Y-78635016D01*
X143878476Y-78635018D01*
X143909166Y-78675014D01*
X143934360Y-78740183D01*
X143920322Y-78808628D01*
X143871508Y-78858617D01*
X143810790Y-78874500D01*
X140981482Y-78874500D01*
X140873263Y-78903497D01*
X140873260Y-78903498D01*
X140776237Y-78959515D01*
X140634677Y-79101074D01*
X140573353Y-79134558D01*
X140563189Y-79136330D01*
X140550322Y-79138024D01*
X140550314Y-79138026D01*
X140422485Y-79190974D01*
X140312709Y-79275209D01*
X140228474Y-79384985D01*
X140175527Y-79512813D01*
X140175526Y-79512816D01*
X140175526Y-79512817D01*
X140157465Y-79650000D01*
X140174904Y-79782461D01*
X140175526Y-79787181D01*
X140175527Y-79787186D01*
X140228474Y-79915015D01*
X140228475Y-79915017D01*
X140228476Y-79915018D01*
X140312709Y-80024791D01*
X140422482Y-80109024D01*
X140550317Y-80161974D01*
X140673202Y-80178152D01*
X140687499Y-80180035D01*
X140687500Y-80180035D01*
X140687501Y-80180035D01*
X140700447Y-80178330D01*
X140824683Y-80161974D01*
X140952518Y-80109024D01*
X141062291Y-80024791D01*
X141146524Y-79915018D01*
X141189625Y-79810961D01*
X141193317Y-79802048D01*
X141237157Y-79747644D01*
X141303451Y-79725579D01*
X141307878Y-79725500D01*
X141939044Y-79725500D01*
X142006083Y-79745185D01*
X142051838Y-79797989D01*
X142061982Y-79865685D01*
X142057465Y-79900000D01*
X142073894Y-80024790D01*
X142075526Y-80037181D01*
X142075527Y-80037186D01*
X142128474Y-80165015D01*
X142128475Y-80165017D01*
X142128476Y-80165018D01*
X142212709Y-80274791D01*
X142322482Y-80359024D01*
X142322483Y-80359024D01*
X142322484Y-80359025D01*
X142329604Y-80361974D01*
X142450317Y-80411974D01*
X142573202Y-80428152D01*
X142587499Y-80430035D01*
X142587500Y-80430035D01*
X142587501Y-80430035D01*
X142600447Y-80428330D01*
X142724683Y-80411974D01*
X142852518Y-80359024D01*
X142962291Y-80274791D01*
X143046524Y-80165018D01*
X143099474Y-80037183D01*
X143117535Y-79900000D01*
X143113017Y-79865685D01*
X143123782Y-79796652D01*
X143170161Y-79744395D01*
X143235956Y-79725500D01*
X144383465Y-79725500D01*
X144450504Y-79745185D01*
X144496259Y-79797989D01*
X144505837Y-79842016D01*
X144506404Y-79841942D01*
X144507298Y-79848732D01*
X144507465Y-79849500D01*
X144507465Y-79850000D01*
X144525453Y-79986631D01*
X144525526Y-79987181D01*
X144525527Y-79987186D01*
X144578474Y-80115015D01*
X144578475Y-80115017D01*
X144578476Y-80115018D01*
X144662709Y-80224791D01*
X144772482Y-80309024D01*
X144772483Y-80309024D01*
X144772484Y-80309025D01*
X144810545Y-80324790D01*
X144900317Y-80361974D01*
X145023202Y-80378152D01*
X145037499Y-80380035D01*
X145037500Y-80380035D01*
X145037501Y-80380035D01*
X145050447Y-80378330D01*
X145174683Y-80361974D01*
X145302518Y-80309024D01*
X145412291Y-80224791D01*
X145496524Y-80115018D01*
X145549474Y-79987183D01*
X145567535Y-79850000D01*
X145567535Y-79849500D01*
X145567654Y-79849093D01*
X145568596Y-79841942D01*
X145569711Y-79842088D01*
X145587220Y-79782461D01*
X145640024Y-79736706D01*
X145691535Y-79725500D01*
X147459890Y-79725500D01*
X147526929Y-79745185D01*
X147547571Y-79761819D01*
X147596713Y-79810961D01*
X147630198Y-79872284D01*
X147625214Y-79941976D01*
X147583342Y-79997909D01*
X147525219Y-80021581D01*
X147400317Y-80038026D01*
X147400313Y-80038027D01*
X147272485Y-80090974D01*
X147162709Y-80175209D01*
X147078474Y-80284985D01*
X147025527Y-80412813D01*
X147025526Y-80412818D01*
X147007465Y-80549999D01*
X147007465Y-80550000D01*
X147025526Y-80687181D01*
X147025527Y-80687186D01*
X147078474Y-80815015D01*
X147078475Y-80815017D01*
X147078476Y-80815018D01*
X147162709Y-80924791D01*
X147272482Y-81009024D01*
X147272483Y-81009024D01*
X147272484Y-81009025D01*
X147315093Y-81026674D01*
X147400317Y-81061974D01*
X147537500Y-81080035D01*
X147571814Y-81075517D01*
X147640848Y-81086282D01*
X147693105Y-81132661D01*
X147712000Y-81198456D01*
X147712000Y-82292390D01*
X147692315Y-82359429D01*
X147675681Y-82380071D01*
X147544362Y-82511389D01*
X147544358Y-82511395D01*
X147488343Y-82608415D01*
X147488342Y-82608418D01*
X147459345Y-82716637D01*
X147459345Y-83449890D01*
X147439660Y-83516929D01*
X147433721Y-83525376D01*
X147425820Y-83535671D01*
X147372872Y-83663502D01*
X147372871Y-83663507D01*
X147354810Y-83800688D01*
X147354810Y-83807611D01*
X147335125Y-83874650D01*
X147282321Y-83920405D01*
X147213163Y-83930349D01*
X147149607Y-83901324D01*
X147132515Y-83880629D01*
X147131471Y-83881431D01*
X147126524Y-83874985D01*
X147126524Y-83874983D01*
X147042291Y-83765209D01*
X147042289Y-83765208D01*
X147042289Y-83765207D01*
X146957029Y-83699784D01*
X146932518Y-83680976D01*
X146932517Y-83680975D01*
X146932515Y-83680974D01*
X146804686Y-83628027D01*
X146804684Y-83628026D01*
X146804683Y-83628026D01*
X146713227Y-83615985D01*
X146667501Y-83609965D01*
X146667499Y-83609965D01*
X146523215Y-83628961D01*
X146454179Y-83618196D01*
X146419348Y-83593703D01*
X145455167Y-82629522D01*
X145455165Y-82629520D01*
X145395696Y-82595185D01*
X145363841Y-82576793D01*
X145312909Y-82563146D01*
X145261979Y-82549500D01*
X143384773Y-82549500D01*
X143282913Y-82576793D01*
X143282910Y-82576794D01*
X143251057Y-82595185D01*
X143228137Y-82608418D01*
X143217277Y-82614687D01*
X143191587Y-82629519D01*
X143191585Y-82629521D01*
X142812508Y-83008597D01*
X142751185Y-83042082D01*
X142741013Y-83043855D01*
X142580738Y-83064956D01*
X142580737Y-83064956D01*
X142434660Y-83125463D01*
X142309218Y-83221718D01*
X142212963Y-83347160D01*
X142152456Y-83493237D01*
X142152455Y-83493239D01*
X142131818Y-83649998D01*
X142131818Y-83650001D01*
X142152455Y-83806760D01*
X142152456Y-83806762D01*
X142206763Y-83937872D01*
X142212964Y-83952841D01*
X142309218Y-84078282D01*
X142434659Y-84174536D01*
X142580738Y-84235044D01*
X142655427Y-84244877D01*
X142737499Y-84255682D01*
X142737500Y-84255682D01*
X142737501Y-84255682D01*
X142816800Y-84245242D01*
X142894262Y-84235044D01*
X143040341Y-84174536D01*
X143040345Y-84174532D01*
X143047381Y-84170472D01*
X143048218Y-84171922D01*
X143104365Y-84150207D01*
X143172812Y-84164235D01*
X143222809Y-84213041D01*
X143233531Y-84245242D01*
X143234897Y-84244877D01*
X143264293Y-84354589D01*
X143271698Y-84367414D01*
X143317020Y-84445913D01*
X143317022Y-84445915D01*
X143559391Y-84688284D01*
X143592876Y-84749607D01*
X143587892Y-84819299D01*
X143546020Y-84875232D01*
X143485417Y-84897835D01*
X143485558Y-84898904D01*
X143480914Y-84899515D01*
X143480556Y-84899649D01*
X143479654Y-84899681D01*
X143374034Y-84913586D01*
X143340317Y-84918026D01*
X143340316Y-84918026D01*
X143340313Y-84918027D01*
X143212485Y-84970974D01*
X143102709Y-85055209D01*
X143018474Y-85164985D01*
X142965527Y-85292813D01*
X142965526Y-85292818D01*
X142947465Y-85429999D01*
X142947465Y-85430000D01*
X142965526Y-85567181D01*
X142965527Y-85567186D01*
X143018474Y-85695015D01*
X143018475Y-85695017D01*
X143018476Y-85695018D01*
X143102709Y-85804791D01*
X143212482Y-85889024D01*
X143340317Y-85941974D01*
X143463202Y-85958152D01*
X143477499Y-85960035D01*
X143477500Y-85960035D01*
X143477501Y-85960035D01*
X143490447Y-85958330D01*
X143614683Y-85941974D01*
X143742518Y-85889024D01*
X143852291Y-85804791D01*
X143909681Y-85730000D01*
X145127465Y-85730000D01*
X145144196Y-85857083D01*
X145145526Y-85867181D01*
X145145527Y-85867186D01*
X145198474Y-85995015D01*
X145198475Y-85995017D01*
X145198476Y-85995018D01*
X145282709Y-86104791D01*
X145392482Y-86189024D01*
X145520317Y-86241974D01*
X145637919Y-86257457D01*
X145657499Y-86260035D01*
X145657500Y-86260035D01*
X145657501Y-86260035D01*
X145677081Y-86257457D01*
X145794683Y-86241974D01*
X145922518Y-86189024D01*
X146032291Y-86104791D01*
X146116524Y-85995018D01*
X146169474Y-85867183D01*
X146187535Y-85730000D01*
X146169474Y-85592817D01*
X146116524Y-85464983D01*
X146032291Y-85355209D01*
X146032289Y-85355208D01*
X146032289Y-85355207D01*
X145922515Y-85270974D01*
X145794686Y-85218027D01*
X145794684Y-85218026D01*
X145794683Y-85218026D01*
X145703227Y-85205985D01*
X145657501Y-85199965D01*
X145657499Y-85199965D01*
X145588908Y-85208995D01*
X145520317Y-85218026D01*
X145520316Y-85218026D01*
X145520313Y-85218027D01*
X145392485Y-85270974D01*
X145282709Y-85355209D01*
X145198474Y-85464985D01*
X145145527Y-85592813D01*
X145145526Y-85592818D01*
X145131021Y-85702994D01*
X145127465Y-85730000D01*
X143909681Y-85730000D01*
X143936524Y-85695018D01*
X143989474Y-85567183D01*
X144007535Y-85430000D01*
X143989474Y-85292817D01*
X143951014Y-85199965D01*
X143936525Y-85164985D01*
X143936524Y-85164984D01*
X143936524Y-85164983D01*
X143905832Y-85124984D01*
X143880639Y-85059818D01*
X143894677Y-84991373D01*
X143943491Y-84941383D01*
X144004209Y-84925500D01*
X145995245Y-84925500D01*
X146062284Y-84945185D01*
X146082926Y-84961819D01*
X146672679Y-85551571D01*
X146672689Y-85551582D01*
X146677019Y-85555912D01*
X146677020Y-85555913D01*
X146751587Y-85630480D01*
X146830539Y-85676063D01*
X146842913Y-85683207D01*
X146944773Y-85710501D01*
X146964122Y-85710501D01*
X147031161Y-85730186D01*
X147039607Y-85736124D01*
X147082482Y-85769024D01*
X147210317Y-85821974D01*
X147223180Y-85823667D01*
X147287076Y-85851932D01*
X147294677Y-85858925D01*
X147347015Y-85911263D01*
X147426237Y-85990485D01*
X147523263Y-86046503D01*
X147631482Y-86075500D01*
X150947866Y-86075500D01*
X151014905Y-86095185D01*
X151060660Y-86147989D01*
X151070604Y-86217147D01*
X151062429Y-86246946D01*
X151061617Y-86248908D01*
X151060152Y-86260035D01*
X151048124Y-86351390D01*
X151019857Y-86415286D01*
X151012867Y-86422884D01*
X150747569Y-86688182D01*
X150686249Y-86721666D01*
X150659890Y-86724500D01*
X144536533Y-86724500D01*
X144428314Y-86753497D01*
X144428311Y-86753498D01*
X144331291Y-86809513D01*
X144331285Y-86809517D01*
X142024681Y-89116121D01*
X141963358Y-89149606D01*
X141893666Y-89144622D01*
X141837733Y-89102750D01*
X141813316Y-89037286D01*
X141813000Y-89028440D01*
X141813000Y-86483984D01*
X141813000Y-86483982D01*
X141784003Y-86375763D01*
X141727985Y-86278737D01*
X141648763Y-86199515D01*
X141646425Y-86197177D01*
X141612940Y-86135854D01*
X141611167Y-86125679D01*
X141609474Y-86112819D01*
X141609474Y-86112817D01*
X141560679Y-85995015D01*
X141556525Y-85984985D01*
X141556524Y-85984984D01*
X141556524Y-85984983D01*
X141472291Y-85875209D01*
X141472289Y-85875208D01*
X141472289Y-85875207D01*
X141362515Y-85790974D01*
X141234686Y-85738027D01*
X141234684Y-85738026D01*
X141234683Y-85738026D01*
X141143227Y-85725985D01*
X141097501Y-85719965D01*
X141097499Y-85719965D01*
X141028908Y-85728995D01*
X140960317Y-85738026D01*
X140960316Y-85738026D01*
X140960313Y-85738027D01*
X140832484Y-85790974D01*
X140825444Y-85795040D01*
X140824789Y-85793905D01*
X140767423Y-85816078D01*
X140698980Y-85802034D01*
X140669436Y-85780188D01*
X138649319Y-83760071D01*
X138615834Y-83698748D01*
X138613000Y-83672390D01*
X138613000Y-77300000D01*
X142057465Y-77300000D01*
X142072927Y-77417445D01*
X142075526Y-77437181D01*
X142075527Y-77437186D01*
X142128474Y-77565015D01*
X142128475Y-77565017D01*
X142128476Y-77565018D01*
X142212709Y-77674791D01*
X142322482Y-77759024D01*
X142450317Y-77811974D01*
X142573202Y-77828152D01*
X142587499Y-77830035D01*
X142587500Y-77830035D01*
X142587501Y-77830035D01*
X142600447Y-77828330D01*
X142724683Y-77811974D01*
X142852518Y-77759024D01*
X142962291Y-77674791D01*
X143046524Y-77565018D01*
X143099474Y-77437183D01*
X143117535Y-77300000D01*
X143099474Y-77162817D01*
X143046524Y-77034983D01*
X142962291Y-76925209D01*
X142962289Y-76925208D01*
X142962289Y-76925207D01*
X142864936Y-76850505D01*
X142852518Y-76840976D01*
X142852517Y-76840975D01*
X142852515Y-76840974D01*
X142724686Y-76788027D01*
X142724684Y-76788026D01*
X142724683Y-76788026D01*
X142633227Y-76775985D01*
X142587501Y-76769965D01*
X142587499Y-76769965D01*
X142518908Y-76778995D01*
X142450317Y-76788026D01*
X142450316Y-76788026D01*
X142450313Y-76788027D01*
X142322485Y-76840974D01*
X142212709Y-76925209D01*
X142128474Y-77034985D01*
X142075527Y-77162813D01*
X142075526Y-77162818D01*
X142061914Y-77266211D01*
X142057465Y-77300000D01*
X138613000Y-77300000D01*
X138613000Y-76360000D01*
X143432465Y-76360000D01*
X143446869Y-76469409D01*
X143450526Y-76497181D01*
X143450527Y-76497186D01*
X143503474Y-76625015D01*
X143503475Y-76625017D01*
X143503476Y-76625018D01*
X143587709Y-76734791D01*
X143697482Y-76819024D01*
X143825317Y-76871974D01*
X143948202Y-76888152D01*
X143962499Y-76890035D01*
X143962500Y-76890035D01*
X143962501Y-76890035D01*
X143975447Y-76888330D01*
X144099683Y-76871974D01*
X144227518Y-76819024D01*
X144337291Y-76734791D01*
X144421524Y-76625018D01*
X144474474Y-76497183D01*
X144492535Y-76360000D01*
X144474474Y-76222817D01*
X144421524Y-76094983D01*
X144337291Y-75985209D01*
X144337289Y-75985208D01*
X144337289Y-75985207D01*
X144227515Y-75900974D01*
X144099686Y-75848027D01*
X144099684Y-75848026D01*
X144099683Y-75848026D01*
X144008227Y-75835985D01*
X143962501Y-75829965D01*
X143962499Y-75829965D01*
X143893908Y-75838995D01*
X143825317Y-75848026D01*
X143825316Y-75848026D01*
X143825313Y-75848027D01*
X143697485Y-75900974D01*
X143587709Y-75985209D01*
X143503474Y-76094985D01*
X143450527Y-76222813D01*
X143450526Y-76222816D01*
X143450526Y-76222817D01*
X143432465Y-76360000D01*
X138613000Y-76360000D01*
X138613000Y-76013999D01*
X138632685Y-75946960D01*
X138638610Y-75938531D01*
X138712036Y-75842841D01*
X138772544Y-75696762D01*
X138793182Y-75540000D01*
X138772544Y-75383238D01*
X138712036Y-75237159D01*
X138615782Y-75111718D01*
X138490341Y-75015464D01*
X138344262Y-74954956D01*
X138344260Y-74954955D01*
X138187501Y-74934318D01*
X138187499Y-74934318D01*
X138030739Y-74954955D01*
X138030737Y-74954956D01*
X137884660Y-75015463D01*
X137759218Y-75111718D01*
X137662963Y-75237160D01*
X137602456Y-75383237D01*
X137602455Y-75383239D01*
X137581818Y-75539998D01*
X137581818Y-75540001D01*
X137602455Y-75696760D01*
X137602456Y-75696762D01*
X137657630Y-75829965D01*
X137662964Y-75842841D01*
X137736377Y-75938515D01*
X137761570Y-76003681D01*
X137762000Y-76013999D01*
X137762000Y-83843982D01*
X137762000Y-83956018D01*
X137789287Y-84057853D01*
X137790997Y-84064236D01*
X137790998Y-84064239D01*
X137797332Y-84075209D01*
X137847015Y-84161263D01*
X137847017Y-84161265D01*
X140125681Y-86439929D01*
X140159166Y-86501252D01*
X140162000Y-86527610D01*
X140162000Y-87123390D01*
X140142315Y-87190429D01*
X140089511Y-87236184D01*
X140020353Y-87246128D01*
X139956797Y-87217103D01*
X139950319Y-87211071D01*
X139598765Y-86859517D01*
X139598764Y-86859516D01*
X139598763Y-86859515D01*
X139512164Y-86809517D01*
X139501739Y-86803498D01*
X139501738Y-86803497D01*
X139501737Y-86803497D01*
X139393518Y-86774500D01*
X139393517Y-86774500D01*
X138686088Y-86774500D01*
X138619049Y-86754815D01*
X138573294Y-86702011D01*
X138563149Y-86666686D01*
X138561098Y-86651106D01*
X138549474Y-86562817D01*
X138502537Y-86449500D01*
X138496525Y-86434985D01*
X138496524Y-86434984D01*
X138496524Y-86434983D01*
X138412291Y-86325209D01*
X138412289Y-86325208D01*
X138412289Y-86325207D01*
X138323996Y-86257457D01*
X138302518Y-86240976D01*
X138302517Y-86240975D01*
X138302515Y-86240974D01*
X138174686Y-86188027D01*
X138174684Y-86188026D01*
X138174683Y-86188026D01*
X138083227Y-86175985D01*
X138037501Y-86169965D01*
X138037499Y-86169965D01*
X137980404Y-86177482D01*
X137900317Y-86188026D01*
X137900316Y-86188026D01*
X137900313Y-86188027D01*
X137772484Y-86240974D01*
X137772482Y-86240976D01*
X137697026Y-86298876D01*
X137631857Y-86324070D01*
X137621540Y-86324500D01*
X124865110Y-86324500D01*
X124798071Y-86304815D01*
X124777429Y-86288181D01*
X122886425Y-84397177D01*
X122852940Y-84335854D01*
X122851167Y-84325679D01*
X122849474Y-84312819D01*
X122849474Y-84312817D01*
X122796524Y-84184983D01*
X122712291Y-84075209D01*
X122712289Y-84075208D01*
X122712289Y-84075207D01*
X122645720Y-84024127D01*
X122602518Y-83990976D01*
X122602517Y-83990975D01*
X122602515Y-83990974D01*
X122474686Y-83938027D01*
X122474684Y-83938026D01*
X122474683Y-83938026D01*
X122383227Y-83925985D01*
X122337501Y-83919965D01*
X122337499Y-83919965D01*
X122268908Y-83928995D01*
X122200317Y-83938026D01*
X122200316Y-83938026D01*
X122200313Y-83938027D01*
X122072485Y-83990974D01*
X121962705Y-84075212D01*
X121955758Y-84084266D01*
X121899329Y-84125467D01*
X121829583Y-84129619D01*
X121809933Y-84123337D01*
X121724686Y-84088027D01*
X121724684Y-84088026D01*
X121724683Y-84088026D01*
X121627316Y-84075207D01*
X121587501Y-84069965D01*
X121587499Y-84069965D01*
X121524328Y-84078282D01*
X121450317Y-84088026D01*
X121450316Y-84088026D01*
X121450313Y-84088027D01*
X121322485Y-84140974D01*
X121212709Y-84225209D01*
X121128474Y-84334985D01*
X121075527Y-84462813D01*
X121075526Y-84462816D01*
X121075526Y-84462817D01*
X121057465Y-84600000D01*
X117300500Y-84600000D01*
X117300500Y-71450000D01*
X125835269Y-71450000D01*
X125845742Y-71516126D01*
X125845742Y-71516129D01*
X125911404Y-71718217D01*
X126007879Y-71907557D01*
X126132772Y-72079459D01*
X126132776Y-72079464D01*
X126283035Y-72229723D01*
X126283040Y-72229727D01*
X126454942Y-72354620D01*
X126645011Y-72451466D01*
X126695807Y-72499441D01*
X126712602Y-72567262D01*
X126690065Y-72633397D01*
X126645012Y-72672435D01*
X126559504Y-72716004D01*
X126413005Y-72822441D01*
X126413000Y-72822445D01*
X126284945Y-72950500D01*
X126284941Y-72950505D01*
X126178506Y-73097002D01*
X126096288Y-73258360D01*
X126096287Y-73258363D01*
X126040329Y-73430589D01*
X126012000Y-73609448D01*
X126012000Y-73790551D01*
X126040329Y-73969410D01*
X126096287Y-74141636D01*
X126096288Y-74141639D01*
X126178506Y-74302997D01*
X126284941Y-74449494D01*
X126284945Y-74449499D01*
X126413000Y-74577554D01*
X126413005Y-74577558D01*
X126512689Y-74649982D01*
X126559506Y-74683996D01*
X126664984Y-74737740D01*
X126720860Y-74766211D01*
X126720863Y-74766212D01*
X126756581Y-74777817D01*
X126893091Y-74822171D01*
X126917791Y-74826083D01*
X126926906Y-74827527D01*
X126990040Y-74857457D01*
X127026971Y-74916768D01*
X127025973Y-74986631D01*
X126987363Y-75044863D01*
X126926906Y-75072473D01*
X126893089Y-75077829D01*
X126720863Y-75133787D01*
X126720860Y-75133788D01*
X126559502Y-75216006D01*
X126413005Y-75322441D01*
X126413000Y-75322445D01*
X126284945Y-75450500D01*
X126284941Y-75450505D01*
X126178506Y-75597002D01*
X126096288Y-75758360D01*
X126096287Y-75758363D01*
X126040329Y-75930589D01*
X126012000Y-76109448D01*
X126012000Y-76290551D01*
X126040329Y-76469410D01*
X126096287Y-76641636D01*
X126096288Y-76641639D01*
X126152164Y-76751300D01*
X126170877Y-76788026D01*
X126178506Y-76802997D01*
X126284941Y-76949494D01*
X126284945Y-76949499D01*
X126413000Y-77077554D01*
X126413005Y-77077558D01*
X126524221Y-77158360D01*
X126559506Y-77183996D01*
X126664984Y-77237740D01*
X126720860Y-77266211D01*
X126720863Y-77266212D01*
X126806976Y-77294191D01*
X126893091Y-77322171D01*
X126917791Y-77326083D01*
X126926906Y-77327527D01*
X126990040Y-77357457D01*
X127026971Y-77416768D01*
X127025973Y-77486631D01*
X126987363Y-77544863D01*
X126926906Y-77572473D01*
X126893089Y-77577829D01*
X126720863Y-77633787D01*
X126720860Y-77633788D01*
X126559502Y-77716006D01*
X126413005Y-77822441D01*
X126413000Y-77822445D01*
X126284945Y-77950500D01*
X126284941Y-77950505D01*
X126178506Y-78097002D01*
X126096288Y-78258360D01*
X126096287Y-78258363D01*
X126040329Y-78430589D01*
X126012000Y-78609448D01*
X126012000Y-78790551D01*
X126040329Y-78969410D01*
X126096287Y-79141636D01*
X126096288Y-79141639D01*
X126136491Y-79220540D01*
X126172380Y-79290976D01*
X126178506Y-79302997D01*
X126284941Y-79449494D01*
X126284945Y-79449499D01*
X126413000Y-79577554D01*
X126413005Y-79577558D01*
X126512713Y-79649999D01*
X126559506Y-79683996D01*
X126640962Y-79725500D01*
X126720860Y-79766211D01*
X126720863Y-79766212D01*
X126775220Y-79783873D01*
X126893091Y-79822171D01*
X126917791Y-79826083D01*
X126926906Y-79827527D01*
X126990040Y-79857457D01*
X127026971Y-79916768D01*
X127025973Y-79986631D01*
X126987363Y-80044863D01*
X126926906Y-80072473D01*
X126893089Y-80077829D01*
X126720863Y-80133787D01*
X126720860Y-80133788D01*
X126559502Y-80216006D01*
X126413005Y-80322441D01*
X126413000Y-80322445D01*
X126284945Y-80450500D01*
X126284941Y-80450505D01*
X126178506Y-80597002D01*
X126096288Y-80758360D01*
X126096287Y-80758363D01*
X126040329Y-80930589D01*
X126012000Y-81109448D01*
X126012000Y-81290551D01*
X126040329Y-81469410D01*
X126096287Y-81641636D01*
X126096288Y-81641639D01*
X126178506Y-81802997D01*
X126284941Y-81949494D01*
X126284945Y-81949499D01*
X126413000Y-82077554D01*
X126413005Y-82077558D01*
X126477616Y-82124500D01*
X126559506Y-82183996D01*
X126664984Y-82237740D01*
X126720860Y-82266211D01*
X126720863Y-82266212D01*
X126792757Y-82289571D01*
X126893091Y-82322171D01*
X126975929Y-82335291D01*
X127071949Y-82350500D01*
X127071954Y-82350500D01*
X127503051Y-82350500D01*
X127589759Y-82336765D01*
X127681909Y-82322171D01*
X127854139Y-82266211D01*
X128015494Y-82183996D01*
X128162001Y-82077553D01*
X128290053Y-81949501D01*
X128396496Y-81802994D01*
X128478711Y-81641639D01*
X128534671Y-81469409D01*
X128553351Y-81351466D01*
X128563000Y-81290551D01*
X128563000Y-81109448D01*
X128546519Y-81005397D01*
X128534671Y-80930591D01*
X128497119Y-80815015D01*
X128478712Y-80758363D01*
X128478711Y-80758360D01*
X128442443Y-80687181D01*
X128396496Y-80597006D01*
X128311556Y-80480095D01*
X128290058Y-80450505D01*
X128290054Y-80450500D01*
X128161999Y-80322445D01*
X128161994Y-80322441D01*
X128015497Y-80216006D01*
X128015496Y-80216005D01*
X128015494Y-80216004D01*
X127963800Y-80189664D01*
X127854139Y-80133788D01*
X127854136Y-80133787D01*
X127681910Y-80077829D01*
X127648094Y-80072473D01*
X127584959Y-80042544D01*
X127548028Y-79983232D01*
X127549026Y-79913370D01*
X127587636Y-79855137D01*
X127648094Y-79827527D01*
X127655888Y-79826292D01*
X127681909Y-79822171D01*
X127854139Y-79766211D01*
X127885955Y-79750000D01*
X132307465Y-79750000D01*
X132323564Y-79872284D01*
X132325526Y-79887181D01*
X132325527Y-79887186D01*
X132378474Y-80015015D01*
X132378475Y-80015017D01*
X132378476Y-80015018D01*
X132462709Y-80124791D01*
X132572482Y-80209024D01*
X132572483Y-80209024D01*
X132572484Y-80209025D01*
X132589338Y-80216006D01*
X132700317Y-80261974D01*
X132823202Y-80278152D01*
X132837499Y-80280035D01*
X132837500Y-80280035D01*
X132837501Y-80280035D01*
X132850447Y-80278330D01*
X132974683Y-80261974D01*
X133102518Y-80209024D01*
X133212291Y-80124791D01*
X133296524Y-80015018D01*
X133323455Y-79950000D01*
X133807465Y-79950000D01*
X133824294Y-80077829D01*
X133825526Y-80087181D01*
X133825527Y-80087186D01*
X133878474Y-80215015D01*
X133878475Y-80215017D01*
X133878476Y-80215018D01*
X133962709Y-80324791D01*
X134072482Y-80409024D01*
X134072483Y-80409024D01*
X134072484Y-80409025D01*
X134089628Y-80416126D01*
X134200317Y-80461974D01*
X134323202Y-80478152D01*
X134337499Y-80480035D01*
X134337500Y-80480035D01*
X134337501Y-80480035D01*
X134350447Y-80478330D01*
X134474683Y-80461974D01*
X134602518Y-80409024D01*
X134712291Y-80324791D01*
X134796524Y-80215018D01*
X134849474Y-80087183D01*
X134867535Y-79950000D01*
X134849474Y-79812817D01*
X134800252Y-79693984D01*
X134796525Y-79684985D01*
X134796524Y-79684984D01*
X134796524Y-79684983D01*
X134712291Y-79575209D01*
X134712289Y-79575208D01*
X134712289Y-79575207D01*
X134602515Y-79490974D01*
X134474686Y-79438027D01*
X134474684Y-79438026D01*
X134474683Y-79438026D01*
X134383227Y-79425985D01*
X134337501Y-79419965D01*
X134337499Y-79419965D01*
X134268908Y-79428995D01*
X134200317Y-79438026D01*
X134200316Y-79438026D01*
X134200313Y-79438027D01*
X134072485Y-79490974D01*
X133962709Y-79575209D01*
X133878474Y-79684985D01*
X133825527Y-79812813D01*
X133825526Y-79812816D01*
X133825526Y-79812817D01*
X133807465Y-79950000D01*
X133323455Y-79950000D01*
X133349474Y-79887183D01*
X133367535Y-79750000D01*
X133349474Y-79612817D01*
X133308051Y-79512813D01*
X133296525Y-79484985D01*
X133296524Y-79484984D01*
X133296524Y-79484983D01*
X133212291Y-79375209D01*
X133212289Y-79375208D01*
X133212289Y-79375207D01*
X133102515Y-79290974D01*
X132974686Y-79238027D01*
X132974684Y-79238026D01*
X132974683Y-79238026D01*
X132883227Y-79225985D01*
X132837501Y-79219965D01*
X132837499Y-79219965D01*
X132768908Y-79228995D01*
X132700317Y-79238026D01*
X132700316Y-79238026D01*
X132700313Y-79238027D01*
X132572485Y-79290974D01*
X132462709Y-79375209D01*
X132378474Y-79484985D01*
X132325527Y-79612813D01*
X132325526Y-79612818D01*
X132310691Y-79725500D01*
X132307465Y-79750000D01*
X127885955Y-79750000D01*
X128015494Y-79683996D01*
X128162001Y-79577553D01*
X128290053Y-79449501D01*
X128396496Y-79302994D01*
X128478711Y-79141639D01*
X128534671Y-78969409D01*
X128556906Y-78829024D01*
X128563000Y-78790551D01*
X128563000Y-78609448D01*
X128541631Y-78474536D01*
X128534671Y-78430591D01*
X128497119Y-78315015D01*
X128478712Y-78258363D01*
X128478711Y-78258360D01*
X128436122Y-78174776D01*
X128396496Y-78097006D01*
X128362345Y-78050000D01*
X133307465Y-78050000D01*
X133325526Y-78187181D01*
X133325527Y-78187186D01*
X133378474Y-78315015D01*
X133378475Y-78315016D01*
X133378476Y-78315018D01*
X133462709Y-78424791D01*
X133572482Y-78509024D01*
X133700317Y-78561974D01*
X133823202Y-78578152D01*
X133837499Y-78580035D01*
X133837500Y-78580035D01*
X133837501Y-78580035D01*
X133850447Y-78578330D01*
X133974683Y-78561974D01*
X134102518Y-78509024D01*
X134212291Y-78424791D01*
X134296524Y-78315018D01*
X134322939Y-78251244D01*
X134366779Y-78196842D01*
X134433073Y-78174776D01*
X134500772Y-78192054D01*
X134548383Y-78243191D01*
X134552054Y-78251228D01*
X134578476Y-78315018D01*
X134662709Y-78424791D01*
X134772482Y-78509024D01*
X134900317Y-78561974D01*
X135023202Y-78578152D01*
X135037499Y-78580035D01*
X135037500Y-78580035D01*
X135037501Y-78580035D01*
X135050447Y-78578330D01*
X135174683Y-78561974D01*
X135302518Y-78509024D01*
X135412291Y-78424791D01*
X135496524Y-78315018D01*
X135549474Y-78187183D01*
X135567535Y-78050000D01*
X135549474Y-77912817D01*
X135496524Y-77784983D01*
X135412291Y-77675209D01*
X135412289Y-77675208D01*
X135412289Y-77675207D01*
X135302515Y-77590974D01*
X135174686Y-77538027D01*
X135174684Y-77538026D01*
X135174683Y-77538026D01*
X135083227Y-77525985D01*
X135037501Y-77519965D01*
X135037499Y-77519965D01*
X134968908Y-77528995D01*
X134900317Y-77538026D01*
X134900316Y-77538026D01*
X134900313Y-77538027D01*
X134772485Y-77590974D01*
X134662709Y-77675209D01*
X134578475Y-77784984D01*
X134552061Y-77848755D01*
X134508220Y-77903158D01*
X134441926Y-77925223D01*
X134374227Y-77907944D01*
X134326616Y-77856807D01*
X134322939Y-77848755D01*
X134307704Y-77811974D01*
X134296524Y-77784983D01*
X134212291Y-77675209D01*
X134212289Y-77675208D01*
X134212289Y-77675207D01*
X134102515Y-77590974D01*
X133974686Y-77538027D01*
X133974684Y-77538026D01*
X133974683Y-77538026D01*
X133883227Y-77525985D01*
X133837501Y-77519965D01*
X133837499Y-77519965D01*
X133768908Y-77528995D01*
X133700317Y-77538026D01*
X133700316Y-77538026D01*
X133700313Y-77538027D01*
X133572485Y-77590974D01*
X133462709Y-77675209D01*
X133378474Y-77784985D01*
X133325527Y-77912813D01*
X133325526Y-77912816D01*
X133325526Y-77912817D01*
X133320565Y-77950499D01*
X133307465Y-78049999D01*
X133307465Y-78050000D01*
X128362345Y-78050000D01*
X128322537Y-77995209D01*
X128290058Y-77950505D01*
X128290054Y-77950500D01*
X128161999Y-77822445D01*
X128161994Y-77822441D01*
X128015497Y-77716006D01*
X128015496Y-77716005D01*
X128015494Y-77716004D01*
X127935426Y-77675207D01*
X127854139Y-77633788D01*
X127854136Y-77633787D01*
X127681910Y-77577829D01*
X127648094Y-77572473D01*
X127584959Y-77542544D01*
X127548028Y-77483232D01*
X127549026Y-77413370D01*
X127587636Y-77355137D01*
X127648094Y-77327527D01*
X127655888Y-77326292D01*
X127681909Y-77322171D01*
X127854139Y-77266211D01*
X128015494Y-77183996D01*
X128162001Y-77077553D01*
X128290053Y-76949501D01*
X128396496Y-76802994D01*
X128478711Y-76641639D01*
X128534671Y-76469409D01*
X128558847Y-76316768D01*
X128563000Y-76290551D01*
X128563000Y-76109448D01*
X128546247Y-76003681D01*
X128534671Y-75930591D01*
X128478711Y-75758361D01*
X128478711Y-75758360D01*
X128450240Y-75702484D01*
X128396496Y-75597006D01*
X128355079Y-75540000D01*
X128290058Y-75450505D01*
X128290054Y-75450500D01*
X128161999Y-75322445D01*
X128161994Y-75322441D01*
X128015497Y-75216006D01*
X128015496Y-75216005D01*
X128015494Y-75216004D01*
X127944862Y-75180015D01*
X127854139Y-75133788D01*
X127854136Y-75133787D01*
X127681910Y-75077829D01*
X127648094Y-75072473D01*
X127584959Y-75042544D01*
X127548028Y-74983232D01*
X127549003Y-74915000D01*
X146682465Y-74915000D01*
X146699562Y-75044863D01*
X146700526Y-75052181D01*
X146700527Y-75052186D01*
X146753474Y-75180015D01*
X146753475Y-75180017D01*
X146753476Y-75180018D01*
X146837709Y-75289791D01*
X146947482Y-75374024D01*
X146947483Y-75374024D01*
X146947484Y-75374025D01*
X146969727Y-75383238D01*
X147075317Y-75426974D01*
X147198202Y-75443152D01*
X147212499Y-75445035D01*
X147212500Y-75445035D01*
X147212501Y-75445035D01*
X147225447Y-75443330D01*
X147349683Y-75426974D01*
X147477518Y-75374024D01*
X147587291Y-75289791D01*
X147671524Y-75180018D01*
X147724474Y-75052183D01*
X147742535Y-74915000D01*
X147742320Y-74913370D01*
X147734959Y-74857457D01*
X147724474Y-74777817D01*
X147700481Y-74719893D01*
X147671524Y-74649982D01*
X147663624Y-74639687D01*
X147638430Y-74574518D01*
X147638000Y-74564201D01*
X147638000Y-74537608D01*
X147657685Y-74470569D01*
X147674315Y-74449931D01*
X147923553Y-74200692D01*
X147923558Y-74200689D01*
X147933761Y-74190485D01*
X147933763Y-74190485D01*
X148012985Y-74111263D01*
X148069003Y-74014237D01*
X148098000Y-73906019D01*
X148098000Y-73793982D01*
X148098000Y-72145799D01*
X148117685Y-72078760D01*
X148123628Y-72070308D01*
X148131522Y-72060020D01*
X148131524Y-72060018D01*
X148184474Y-71932183D01*
X148202535Y-71795000D01*
X148184474Y-71657817D01*
X148149174Y-71572594D01*
X148131525Y-71529985D01*
X148131524Y-71529984D01*
X148131524Y-71529983D01*
X148047291Y-71420209D01*
X148047289Y-71420208D01*
X148047289Y-71420207D01*
X147937515Y-71335974D01*
X147809686Y-71283027D01*
X147809684Y-71283026D01*
X147809683Y-71283026D01*
X147718227Y-71270985D01*
X147672501Y-71264965D01*
X147672499Y-71264965D01*
X147603908Y-71273995D01*
X147535317Y-71283026D01*
X147535316Y-71283026D01*
X147535313Y-71283027D01*
X147407485Y-71335974D01*
X147297709Y-71420209D01*
X147213474Y-71529985D01*
X147160527Y-71657813D01*
X147160526Y-71657818D01*
X147142465Y-71794999D01*
X147142465Y-71795000D01*
X147160526Y-71932181D01*
X147160527Y-71932186D01*
X147213475Y-72060016D01*
X147213477Y-72060020D01*
X147221372Y-72070308D01*
X147246570Y-72135476D01*
X147247000Y-72145799D01*
X147247000Y-73622389D01*
X147227315Y-73689428D01*
X147210681Y-73710070D01*
X146933795Y-73986955D01*
X146933796Y-73986956D01*
X146872014Y-74048738D01*
X146872013Y-74048740D01*
X146815998Y-74145760D01*
X146815997Y-74145763D01*
X146787000Y-74253982D01*
X146787000Y-74564201D01*
X146767315Y-74631240D01*
X146761376Y-74639687D01*
X146753475Y-74649982D01*
X146700527Y-74777813D01*
X146700526Y-74777818D01*
X146682680Y-74913370D01*
X146682465Y-74915000D01*
X127549003Y-74915000D01*
X127549026Y-74913370D01*
X127587636Y-74855137D01*
X127648094Y-74827527D01*
X127655888Y-74826292D01*
X127681909Y-74822171D01*
X127854139Y-74766211D01*
X128015494Y-74683996D01*
X128162001Y-74577553D01*
X128290053Y-74449501D01*
X128396496Y-74302994D01*
X128478711Y-74141639D01*
X128534671Y-73969409D01*
X128558847Y-73816768D01*
X128563000Y-73790551D01*
X128563000Y-73609448D01*
X128542109Y-73477553D01*
X128534671Y-73430591D01*
X128478711Y-73258361D01*
X128478711Y-73258360D01*
X128450240Y-73202484D01*
X128396496Y-73097006D01*
X128356268Y-73041636D01*
X128290058Y-72950505D01*
X128290054Y-72950500D01*
X128161999Y-72822445D01*
X128161994Y-72822441D01*
X128015493Y-72716003D01*
X128015492Y-72716002D01*
X127929988Y-72672435D01*
X127879192Y-72624461D01*
X127862397Y-72556640D01*
X127884935Y-72490505D01*
X127929988Y-72451466D01*
X128120058Y-72354620D01*
X128291959Y-72229727D01*
X128291964Y-72229723D01*
X128442223Y-72079464D01*
X128442227Y-72079459D01*
X128567120Y-71907557D01*
X128663595Y-71718217D01*
X128729257Y-71516129D01*
X128729257Y-71516126D01*
X128739731Y-71450000D01*
X127691646Y-71450000D01*
X127730130Y-71383343D01*
X127762500Y-71262535D01*
X127762500Y-71150000D01*
X142337465Y-71150000D01*
X142355526Y-71287181D01*
X142355527Y-71287186D01*
X142408474Y-71415015D01*
X142408475Y-71415017D01*
X142408476Y-71415018D01*
X142492709Y-71524791D01*
X142602482Y-71609024D01*
X142602483Y-71609024D01*
X142602484Y-71609025D01*
X142619338Y-71616006D01*
X142730317Y-71661974D01*
X142853202Y-71678152D01*
X142867499Y-71680035D01*
X142867500Y-71680035D01*
X142867501Y-71680035D01*
X142880447Y-71678330D01*
X143004683Y-71661974D01*
X143132518Y-71609024D01*
X143242291Y-71524791D01*
X143326524Y-71415018D01*
X143379474Y-71287183D01*
X143397535Y-71150000D01*
X143379474Y-71012817D01*
X143326525Y-70884985D01*
X143326525Y-70884984D01*
X143326523Y-70884981D01*
X143321360Y-70878253D01*
X143296165Y-70813084D01*
X143310203Y-70744639D01*
X143359016Y-70694649D01*
X143427108Y-70678985D01*
X143435909Y-70679825D01*
X143437500Y-70680035D01*
X143574683Y-70661974D01*
X143702518Y-70609024D01*
X143812291Y-70524791D01*
X143896524Y-70415018D01*
X143949474Y-70287183D01*
X143967535Y-70150000D01*
X143949474Y-70012817D01*
X143896524Y-69884983D01*
X143838987Y-69810000D01*
X145232465Y-69810000D01*
X145250139Y-69944246D01*
X145250526Y-69947181D01*
X145250527Y-69947186D01*
X145303474Y-70075015D01*
X145303475Y-70075017D01*
X145303476Y-70075018D01*
X145387709Y-70184791D01*
X145497482Y-70269024D01*
X145625317Y-70321974D01*
X145748202Y-70338152D01*
X145762499Y-70340035D01*
X145762500Y-70340035D01*
X145762501Y-70340035D01*
X145775447Y-70338330D01*
X145899683Y-70321974D01*
X146027518Y-70269024D01*
X146137291Y-70184791D01*
X146214125Y-70084660D01*
X146270552Y-70043458D01*
X146340298Y-70039303D01*
X146401218Y-70073515D01*
X146410871Y-70084655D01*
X146417457Y-70093238D01*
X146461012Y-70150000D01*
X146487709Y-70184791D01*
X146597482Y-70269024D01*
X146725317Y-70321974D01*
X146848202Y-70338152D01*
X146862499Y-70340035D01*
X146862500Y-70340035D01*
X146862501Y-70340035D01*
X146875447Y-70338330D01*
X146999683Y-70321974D01*
X147127518Y-70269024D01*
X147237291Y-70184791D01*
X147321524Y-70075018D01*
X147374474Y-69947183D01*
X147392535Y-69810000D01*
X147374474Y-69672817D01*
X147321524Y-69544983D01*
X147237291Y-69435209D01*
X147237289Y-69435208D01*
X147237289Y-69435207D01*
X147127515Y-69350974D01*
X146999686Y-69298027D01*
X146999684Y-69298026D01*
X146999683Y-69298026D01*
X146908227Y-69285985D01*
X146862501Y-69279965D01*
X146862499Y-69279965D01*
X146793908Y-69288995D01*
X146725317Y-69298026D01*
X146725316Y-69298026D01*
X146725313Y-69298027D01*
X146597485Y-69350974D01*
X146542596Y-69393092D01*
X146487709Y-69435209D01*
X146487708Y-69435210D01*
X146487707Y-69435211D01*
X146410875Y-69535340D01*
X146354447Y-69576542D01*
X146284701Y-69580697D01*
X146223781Y-69546484D01*
X146214125Y-69535340D01*
X146137291Y-69435209D01*
X146027515Y-69350974D01*
X145899686Y-69298027D01*
X145899684Y-69298026D01*
X145899683Y-69298026D01*
X145808227Y-69285985D01*
X145762501Y-69279965D01*
X145762499Y-69279965D01*
X145693908Y-69288995D01*
X145625317Y-69298026D01*
X145625316Y-69298026D01*
X145625313Y-69298027D01*
X145497485Y-69350974D01*
X145387709Y-69435209D01*
X145303474Y-69544985D01*
X145250527Y-69672813D01*
X145250526Y-69672818D01*
X145235841Y-69784361D01*
X145232465Y-69810000D01*
X143838987Y-69810000D01*
X143812291Y-69775209D01*
X143812289Y-69775208D01*
X143812289Y-69775207D01*
X143702515Y-69690974D01*
X143574686Y-69638027D01*
X143574684Y-69638026D01*
X143574683Y-69638026D01*
X143483227Y-69625985D01*
X143437501Y-69619965D01*
X143437499Y-69619965D01*
X143368908Y-69628995D01*
X143300317Y-69638026D01*
X143300316Y-69638026D01*
X143300313Y-69638027D01*
X143172485Y-69690974D01*
X143062709Y-69775209D01*
X142978474Y-69884985D01*
X142925527Y-70012813D01*
X142925526Y-70012816D01*
X142925526Y-70012817D01*
X142907465Y-70150000D01*
X142923135Y-70269025D01*
X142925526Y-70287181D01*
X142925527Y-70287186D01*
X142978475Y-70415016D01*
X142978475Y-70415017D01*
X142983640Y-70421748D01*
X143008833Y-70486918D01*
X142994794Y-70555362D01*
X142945979Y-70605351D01*
X142877888Y-70621013D01*
X142869084Y-70620173D01*
X142867503Y-70619965D01*
X142867499Y-70619965D01*
X142798908Y-70628995D01*
X142730317Y-70638026D01*
X142730316Y-70638026D01*
X142730313Y-70638027D01*
X142602485Y-70690974D01*
X142492709Y-70775209D01*
X142408474Y-70884985D01*
X142355527Y-71012813D01*
X142355526Y-71012816D01*
X142355526Y-71012817D01*
X142346495Y-71081408D01*
X142337465Y-71149999D01*
X142337465Y-71150000D01*
X127762500Y-71150000D01*
X127762500Y-71137465D01*
X127730130Y-71016657D01*
X127691646Y-70950000D01*
X128739731Y-70950000D01*
X128729257Y-70883873D01*
X128729257Y-70883870D01*
X128663595Y-70681781D01*
X128567120Y-70492442D01*
X128442227Y-70320540D01*
X128442223Y-70320535D01*
X128371689Y-70250001D01*
X134331818Y-70250001D01*
X134352455Y-70406760D01*
X134352456Y-70406762D01*
X134412964Y-70552841D01*
X134509218Y-70678282D01*
X134634659Y-70774536D01*
X134780738Y-70835044D01*
X134859119Y-70845363D01*
X134937499Y-70855682D01*
X134937500Y-70855682D01*
X134937501Y-70855682D01*
X134989754Y-70848802D01*
X135094262Y-70835044D01*
X135240341Y-70774536D01*
X135365782Y-70678282D01*
X135462036Y-70552841D01*
X135522544Y-70406762D01*
X135540677Y-70269025D01*
X135543182Y-70250001D01*
X135543182Y-70249998D01*
X135522544Y-70093239D01*
X135522544Y-70093238D01*
X135462036Y-69947159D01*
X135365782Y-69821718D01*
X135240341Y-69725464D01*
X135094262Y-69664956D01*
X135094260Y-69664955D01*
X134937501Y-69644318D01*
X134937499Y-69644318D01*
X134780739Y-69664955D01*
X134780737Y-69664956D01*
X134634660Y-69725463D01*
X134509218Y-69821718D01*
X134412963Y-69947160D01*
X134352456Y-70093237D01*
X134352455Y-70093239D01*
X134331818Y-70249998D01*
X134331818Y-70250001D01*
X128371689Y-70250001D01*
X128291964Y-70170276D01*
X128291959Y-70170272D01*
X128127939Y-70051105D01*
X128085273Y-69995775D01*
X128079294Y-69926162D01*
X128111899Y-69864367D01*
X128155331Y-69835433D01*
X128284842Y-69784361D01*
X128405422Y-69692922D01*
X128496861Y-69572342D01*
X128552377Y-69431564D01*
X128563000Y-69343102D01*
X128563000Y-68056898D01*
X128552377Y-67968436D01*
X128496861Y-67827658D01*
X128496860Y-67827657D01*
X128496860Y-67827656D01*
X128405422Y-67707077D01*
X128284843Y-67615639D01*
X128144061Y-67560122D01*
X128098426Y-67554642D01*
X128055602Y-67549500D01*
X126519398Y-67549500D01*
X126480353Y-67554188D01*
X126430938Y-67560122D01*
X126290156Y-67615639D01*
X126169577Y-67707077D01*
X126078139Y-67827656D01*
X126022622Y-67968438D01*
X126016688Y-68017853D01*
X126012000Y-68056898D01*
X126012000Y-69343102D01*
X126012946Y-69350976D01*
X126022622Y-69431561D01*
X126022622Y-69431563D01*
X126022623Y-69431564D01*
X126024061Y-69435211D01*
X126078139Y-69572343D01*
X126169577Y-69692922D01*
X126290158Y-69784361D01*
X126290160Y-69784362D01*
X126419665Y-69835433D01*
X126474809Y-69878338D01*
X126498002Y-69944246D01*
X126481881Y-70012231D01*
X126447060Y-70051105D01*
X126283040Y-70170272D01*
X126283035Y-70170276D01*
X126132776Y-70320535D01*
X126132772Y-70320540D01*
X126007879Y-70492442D01*
X125911405Y-70681781D01*
X125845742Y-70883870D01*
X125845742Y-70883873D01*
X125835269Y-70950000D01*
X126883354Y-70950000D01*
X126844870Y-71016657D01*
X126812500Y-71137465D01*
X126812500Y-71262535D01*
X126844870Y-71383343D01*
X126883354Y-71450000D01*
X125835269Y-71450000D01*
X117300500Y-71450000D01*
X117300500Y-64656246D01*
X135037500Y-64656246D01*
X135070742Y-64866127D01*
X135070742Y-64866130D01*
X135136404Y-65068217D01*
X135232879Y-65257557D01*
X135357772Y-65429459D01*
X135357776Y-65429464D01*
X135508035Y-65579723D01*
X135508040Y-65579727D01*
X135679942Y-65704620D01*
X135869282Y-65801095D01*
X136071371Y-65866757D01*
X136137500Y-65877231D01*
X136137500Y-64833012D01*
X136194507Y-64865925D01*
X136321674Y-64900000D01*
X136453326Y-64900000D01*
X136580493Y-64865925D01*
X136637500Y-64833012D01*
X136637500Y-65877230D01*
X136703626Y-65866757D01*
X136703629Y-65866757D01*
X136905717Y-65801095D01*
X137095057Y-65704620D01*
X137266959Y-65579727D01*
X137266964Y-65579723D01*
X137417221Y-65429466D01*
X137536393Y-65265439D01*
X137591723Y-65222773D01*
X137661336Y-65216794D01*
X137723132Y-65249399D01*
X137752066Y-65292833D01*
X137803138Y-65422341D01*
X137894577Y-65542922D01*
X138015156Y-65634360D01*
X138015157Y-65634360D01*
X138015158Y-65634361D01*
X138155936Y-65689877D01*
X138244398Y-65700500D01*
X138244403Y-65700500D01*
X139530597Y-65700500D01*
X139530602Y-65700500D01*
X139619064Y-65689877D01*
X139759842Y-65634361D01*
X139880422Y-65542922D01*
X139971861Y-65422342D01*
X140027377Y-65281564D01*
X140038000Y-65193102D01*
X140038000Y-64665551D01*
X144187000Y-64665551D01*
X144215329Y-64844410D01*
X144271287Y-65016636D01*
X144271288Y-65016639D01*
X144353506Y-65177997D01*
X144459941Y-65324494D01*
X144459945Y-65324499D01*
X144588000Y-65452554D01*
X144588005Y-65452558D01*
X144712382Y-65542922D01*
X144734506Y-65558996D01*
X144839984Y-65612740D01*
X144895860Y-65641211D01*
X144895863Y-65641212D01*
X144972804Y-65666211D01*
X145068091Y-65697171D01*
X145150929Y-65710291D01*
X145246949Y-65725500D01*
X145246954Y-65725500D01*
X145428051Y-65725500D01*
X145514759Y-65711765D01*
X145606909Y-65697171D01*
X145779139Y-65641211D01*
X145940494Y-65558996D01*
X146087001Y-65452553D01*
X146215053Y-65324501D01*
X146321496Y-65177994D01*
X146403711Y-65016639D01*
X146459671Y-64844409D01*
X146465027Y-64810594D01*
X146494956Y-64747459D01*
X146554268Y-64710528D01*
X146624130Y-64711526D01*
X146682363Y-64750136D01*
X146709973Y-64810594D01*
X146715329Y-64844410D01*
X146771287Y-65016636D01*
X146771288Y-65016639D01*
X146853506Y-65177997D01*
X146959941Y-65324494D01*
X146959945Y-65324499D01*
X147088000Y-65452554D01*
X147088005Y-65452558D01*
X147212382Y-65542922D01*
X147234506Y-65558996D01*
X147339984Y-65612740D01*
X147395860Y-65641211D01*
X147395863Y-65641212D01*
X147472804Y-65666211D01*
X147568091Y-65697171D01*
X147650929Y-65710291D01*
X147746949Y-65725500D01*
X147746954Y-65725500D01*
X147928051Y-65725500D01*
X148014759Y-65711765D01*
X148106909Y-65697171D01*
X148279139Y-65641211D01*
X148440494Y-65558996D01*
X148587001Y-65452553D01*
X148715053Y-65324501D01*
X148821496Y-65177994D01*
X148903711Y-65016639D01*
X148932619Y-64927669D01*
X148945069Y-64889351D01*
X148984506Y-64831676D01*
X149048864Y-64804477D01*
X149117711Y-64816391D01*
X149169187Y-64863635D01*
X149187000Y-64927669D01*
X149187000Y-65218102D01*
X149190827Y-65249973D01*
X149197622Y-65306561D01*
X149197622Y-65306563D01*
X149197623Y-65306564D01*
X149207350Y-65331230D01*
X149253139Y-65447343D01*
X149344577Y-65567922D01*
X149465156Y-65659360D01*
X149465157Y-65659360D01*
X149465158Y-65659361D01*
X149605936Y-65714877D01*
X149694398Y-65725500D01*
X149694403Y-65725500D01*
X150980597Y-65725500D01*
X150980602Y-65725500D01*
X151069064Y-65714877D01*
X151209842Y-65659361D01*
X151330422Y-65567922D01*
X151421861Y-65447342D01*
X151477377Y-65306564D01*
X151488000Y-65218102D01*
X151488000Y-64690551D01*
X155849500Y-64690551D01*
X155877829Y-64869410D01*
X155933787Y-65041636D01*
X155933788Y-65041639D01*
X155989664Y-65151300D01*
X156003267Y-65177997D01*
X156016006Y-65202997D01*
X156122441Y-65349494D01*
X156122445Y-65349499D01*
X156250500Y-65477554D01*
X156250505Y-65477558D01*
X156340472Y-65542922D01*
X156397006Y-65583996D01*
X156495850Y-65634360D01*
X156558360Y-65666211D01*
X156558363Y-65666212D01*
X156644476Y-65694191D01*
X156730591Y-65722171D01*
X156813429Y-65735291D01*
X156909449Y-65750500D01*
X156909454Y-65750500D01*
X157090551Y-65750500D01*
X157177259Y-65736765D01*
X157269409Y-65722171D01*
X157441639Y-65666211D01*
X157602994Y-65583996D01*
X157749501Y-65477553D01*
X157877553Y-65349501D01*
X157895717Y-65324501D01*
X157934624Y-65270949D01*
X157989954Y-65228282D01*
X158059567Y-65222303D01*
X158121362Y-65254908D01*
X158155720Y-65315746D01*
X158158301Y-65331230D01*
X158160494Y-65352697D01*
X158215641Y-65519119D01*
X158215643Y-65519124D01*
X158307684Y-65668345D01*
X158431654Y-65792315D01*
X158580875Y-65884356D01*
X158580880Y-65884358D01*
X158747302Y-65939505D01*
X158747309Y-65939506D01*
X158850019Y-65949999D01*
X159249999Y-65949999D01*
X159250000Y-65949998D01*
X159250000Y-64883012D01*
X159307007Y-64915925D01*
X159434174Y-64950000D01*
X159565826Y-64950000D01*
X159692993Y-64915925D01*
X159750000Y-64883012D01*
X159750000Y-65949999D01*
X160149972Y-65949999D01*
X160149986Y-65949998D01*
X160252697Y-65939505D01*
X160419119Y-65884358D01*
X160419124Y-65884356D01*
X160568345Y-65792315D01*
X160692315Y-65668345D01*
X160784356Y-65519124D01*
X160784358Y-65519119D01*
X160839505Y-65352697D01*
X160839506Y-65352690D01*
X160849999Y-65249986D01*
X160850000Y-65249973D01*
X160850000Y-64700000D01*
X159933012Y-64700000D01*
X159965925Y-64642993D01*
X160000000Y-64515826D01*
X160000000Y-64384174D01*
X159967950Y-64264564D01*
X163876601Y-64264564D01*
X163892348Y-64384174D01*
X163894662Y-64401745D01*
X163894663Y-64401750D01*
X163947610Y-64529579D01*
X163947611Y-64529581D01*
X163947612Y-64529582D01*
X164031845Y-64639355D01*
X164141618Y-64723588D01*
X164269453Y-64776538D01*
X164392338Y-64792716D01*
X164406635Y-64794599D01*
X164406636Y-64794599D01*
X164406637Y-64794599D01*
X164419583Y-64792894D01*
X164543819Y-64776538D01*
X164671654Y-64723588D01*
X164781427Y-64639355D01*
X164865660Y-64529582D01*
X164918610Y-64401747D01*
X164936671Y-64264564D01*
X164918610Y-64127381D01*
X164865660Y-63999547D01*
X164781427Y-63889773D01*
X164781425Y-63889772D01*
X164781425Y-63889771D01*
X164671651Y-63805538D01*
X164543822Y-63752591D01*
X164543820Y-63752590D01*
X164543819Y-63752590D01*
X164452363Y-63740549D01*
X164406637Y-63734529D01*
X164406635Y-63734529D01*
X164338044Y-63743559D01*
X164269453Y-63752590D01*
X164269452Y-63752590D01*
X164269449Y-63752591D01*
X164141621Y-63805538D01*
X164031845Y-63889773D01*
X163947610Y-63999549D01*
X163894663Y-64127377D01*
X163894662Y-64127380D01*
X163894662Y-64127381D01*
X163876601Y-64264564D01*
X159967950Y-64264564D01*
X159965925Y-64257007D01*
X159933012Y-64200000D01*
X160849999Y-64200000D01*
X160849999Y-63650028D01*
X160849998Y-63650013D01*
X160839505Y-63547302D01*
X160784358Y-63380880D01*
X160784356Y-63380875D01*
X160692315Y-63231654D01*
X160568345Y-63107684D01*
X160419124Y-63015643D01*
X160419119Y-63015641D01*
X160252697Y-62960494D01*
X160252690Y-62960493D01*
X160149986Y-62950000D01*
X159750000Y-62950000D01*
X159750000Y-64016988D01*
X159692993Y-63984075D01*
X159565826Y-63950000D01*
X159434174Y-63950000D01*
X159307007Y-63984075D01*
X159250000Y-64016988D01*
X159250000Y-62950000D01*
X158850028Y-62950000D01*
X158850012Y-62950001D01*
X158747302Y-62960494D01*
X158580880Y-63015641D01*
X158580875Y-63015643D01*
X158431654Y-63107684D01*
X158307684Y-63231654D01*
X158215643Y-63380875D01*
X158215641Y-63380880D01*
X158160494Y-63547302D01*
X158160491Y-63547317D01*
X158158299Y-63568773D01*
X158131901Y-63633464D01*
X158074719Y-63673613D01*
X158004908Y-63676474D01*
X157944632Y-63641138D01*
X157934623Y-63629050D01*
X157931035Y-63624112D01*
X157908750Y-63593438D01*
X157877556Y-63550502D01*
X157749499Y-63422445D01*
X157749494Y-63422441D01*
X157602997Y-63316006D01*
X157602996Y-63316005D01*
X157602994Y-63316004D01*
X157551300Y-63289664D01*
X157441639Y-63233788D01*
X157441636Y-63233787D01*
X157269410Y-63177829D01*
X157090551Y-63149500D01*
X157090546Y-63149500D01*
X156909454Y-63149500D01*
X156909449Y-63149500D01*
X156730589Y-63177829D01*
X156558363Y-63233787D01*
X156558360Y-63233788D01*
X156397002Y-63316006D01*
X156250505Y-63422441D01*
X156250500Y-63422445D01*
X156122445Y-63550500D01*
X156122441Y-63550505D01*
X156016006Y-63697002D01*
X155933788Y-63858360D01*
X155933787Y-63858363D01*
X155877829Y-64030589D01*
X155849500Y-64209448D01*
X155849500Y-64690551D01*
X151488000Y-64690551D01*
X151488000Y-63681898D01*
X151477377Y-63593436D01*
X151421861Y-63452658D01*
X151421860Y-63452657D01*
X151421860Y-63452656D01*
X151330422Y-63332077D01*
X151209843Y-63240639D01*
X151069061Y-63185122D01*
X151023426Y-63179642D01*
X150980602Y-63174500D01*
X149694398Y-63174500D01*
X149655353Y-63179188D01*
X149605938Y-63185122D01*
X149465156Y-63240639D01*
X149344577Y-63332077D01*
X149253139Y-63452656D01*
X149197622Y-63593438D01*
X149193939Y-63624112D01*
X149187000Y-63681898D01*
X149187000Y-63681903D01*
X149187000Y-63972330D01*
X149167315Y-64039369D01*
X149114511Y-64085124D01*
X149045353Y-64095068D01*
X148981797Y-64066043D01*
X148945069Y-64010648D01*
X148903712Y-63883363D01*
X148903711Y-63883360D01*
X148864058Y-63805538D01*
X148821496Y-63722006D01*
X148769201Y-63650028D01*
X148715058Y-63575505D01*
X148715054Y-63575500D01*
X148586999Y-63447445D01*
X148586994Y-63447441D01*
X148440497Y-63341006D01*
X148440496Y-63341005D01*
X148440494Y-63341004D01*
X148388800Y-63314664D01*
X148279139Y-63258788D01*
X148279136Y-63258787D01*
X148106910Y-63202829D01*
X147928051Y-63174500D01*
X147928046Y-63174500D01*
X147746954Y-63174500D01*
X147746949Y-63174500D01*
X147568089Y-63202829D01*
X147395863Y-63258787D01*
X147395860Y-63258788D01*
X147234502Y-63341006D01*
X147088005Y-63447441D01*
X147088000Y-63447445D01*
X146959945Y-63575500D01*
X146959941Y-63575505D01*
X146853506Y-63722002D01*
X146771288Y-63883360D01*
X146771287Y-63883363D01*
X146715329Y-64055589D01*
X146709973Y-64089406D01*
X146680043Y-64152540D01*
X146620732Y-64189471D01*
X146550869Y-64188473D01*
X146492637Y-64149863D01*
X146465027Y-64089406D01*
X146461326Y-64066043D01*
X146459671Y-64055591D01*
X146420122Y-63933869D01*
X146403712Y-63883363D01*
X146403711Y-63883360D01*
X146364058Y-63805538D01*
X146321496Y-63722006D01*
X146269201Y-63650028D01*
X146215058Y-63575505D01*
X146215054Y-63575500D01*
X146086999Y-63447445D01*
X146086994Y-63447441D01*
X145940497Y-63341006D01*
X145940496Y-63341005D01*
X145940494Y-63341004D01*
X145888800Y-63314664D01*
X145779139Y-63258788D01*
X145779136Y-63258787D01*
X145606910Y-63202829D01*
X145428051Y-63174500D01*
X145428046Y-63174500D01*
X145246954Y-63174500D01*
X145246949Y-63174500D01*
X145068089Y-63202829D01*
X144895863Y-63258787D01*
X144895860Y-63258788D01*
X144734502Y-63341006D01*
X144588005Y-63447441D01*
X144588000Y-63447445D01*
X144459945Y-63575500D01*
X144459941Y-63575505D01*
X144353506Y-63722002D01*
X144271288Y-63883360D01*
X144271287Y-63883363D01*
X144215329Y-64055589D01*
X144187000Y-64234448D01*
X144187000Y-64665551D01*
X140038000Y-64665551D01*
X140038000Y-63606898D01*
X140027377Y-63518436D01*
X139971861Y-63377658D01*
X139971860Y-63377657D01*
X139971860Y-63377656D01*
X139880422Y-63257077D01*
X139759843Y-63165639D01*
X139619061Y-63110122D01*
X139573426Y-63104642D01*
X139530602Y-63099500D01*
X138244398Y-63099500D01*
X138205353Y-63104188D01*
X138155938Y-63110122D01*
X138015156Y-63165639D01*
X137894577Y-63257077D01*
X137803138Y-63377658D01*
X137752066Y-63507166D01*
X137709160Y-63562309D01*
X137643252Y-63585502D01*
X137575268Y-63569381D01*
X137536394Y-63534560D01*
X137417227Y-63370540D01*
X137417223Y-63370535D01*
X137266964Y-63220276D01*
X137266959Y-63220272D01*
X137095057Y-63095379D01*
X136905715Y-62998903D01*
X136703624Y-62933241D01*
X136637500Y-62922768D01*
X136637500Y-63966988D01*
X136580493Y-63934075D01*
X136453326Y-63900000D01*
X136321674Y-63900000D01*
X136194507Y-63934075D01*
X136137500Y-63966988D01*
X136137500Y-62922768D01*
X136137499Y-62922768D01*
X136071375Y-62933241D01*
X135869284Y-62998903D01*
X135679942Y-63095379D01*
X135508040Y-63220272D01*
X135508035Y-63220276D01*
X135357776Y-63370535D01*
X135357772Y-63370540D01*
X135232879Y-63542442D01*
X135136404Y-63731782D01*
X135070742Y-63933869D01*
X135070742Y-63933872D01*
X135037500Y-64143753D01*
X135037500Y-64150000D01*
X135954488Y-64150000D01*
X135921575Y-64207007D01*
X135887500Y-64334174D01*
X135887500Y-64465826D01*
X135921575Y-64592993D01*
X135954488Y-64650000D01*
X135037500Y-64650000D01*
X135037500Y-64656246D01*
X117300500Y-64656246D01*
X117300500Y-61356102D01*
X117320185Y-61289063D01*
X117372989Y-61243308D01*
X117442147Y-61233364D01*
X117505703Y-61262389D01*
X117540264Y-61311664D01*
X117615244Y-61506994D01*
X117791310Y-61852543D01*
X118002531Y-62177793D01*
X118211095Y-62435350D01*
X118211096Y-62435350D01*
X119705747Y-60940698D01*
X119779588Y-61042330D01*
X119957670Y-61220412D01*
X120059300Y-61294251D01*
X118564648Y-62788903D01*
X118564649Y-62788904D01*
X118822206Y-62997468D01*
X119147456Y-63208689D01*
X119493005Y-63384755D01*
X119855063Y-63523737D01*
X120229669Y-63624112D01*
X120229676Y-63624113D01*
X120612712Y-63684780D01*
X120999999Y-63705078D01*
X121000001Y-63705078D01*
X121387287Y-63684780D01*
X121770323Y-63624113D01*
X121770330Y-63624112D01*
X122144936Y-63523737D01*
X122506994Y-63384755D01*
X122852543Y-63208689D01*
X123177783Y-62997476D01*
X123177785Y-62997475D01*
X123435349Y-62788902D01*
X121940698Y-61294251D01*
X122042330Y-61220412D01*
X122220412Y-61042330D01*
X122294251Y-60940698D01*
X123788902Y-62435349D01*
X123997475Y-62177785D01*
X123997476Y-62177783D01*
X124208689Y-61852543D01*
X124384755Y-61506994D01*
X124523737Y-61144936D01*
X124624112Y-60770330D01*
X124624113Y-60770323D01*
X124684780Y-60387287D01*
X124705078Y-60000000D01*
X124705078Y-59999999D01*
X124684780Y-59612712D01*
X124624113Y-59229676D01*
X124624112Y-59229669D01*
X124523737Y-58855063D01*
X124384755Y-58493005D01*
X124208689Y-58147456D01*
X123997468Y-57822206D01*
X123788904Y-57564649D01*
X123788903Y-57564648D01*
X122294251Y-59059300D01*
X122220412Y-58957670D01*
X122042330Y-58779588D01*
X121940698Y-58705747D01*
X123435350Y-57211096D01*
X123435350Y-57211095D01*
X123177793Y-57002531D01*
X122852543Y-56791310D01*
X122506994Y-56615244D01*
X122311664Y-56540264D01*
X122256132Y-56497862D01*
X122232339Y-56432168D01*
X122247841Y-56364040D01*
X122297714Y-56315107D01*
X122356102Y-56300500D01*
X165463644Y-56300500D01*
X165530683Y-56320185D01*
G37*
%TD.AperFunction*%
%TD*%
M02*
