M48
; DRILL file {KiCad 8.0.1} date 2024-10-23T09:07:41+0200
; FORMAT={-:-/ absolute / inch / decimal}
; #@! TF.CreationDate,2024-10-23T09:07:41+02:00
; #@! TF.GenerationSoftware,Kicad,Pcbnew,8.0.1
; #@! TF.FileFunction,Plated,1,4,PTH
FMAT,2
INCH
; #@! TA.AperFunction,Plated,PTH,ViaDrill
T1C0.0118
; #@! TA.AperFunction,Plated,PTH,ComponentDrill
T2C0.0197
; #@! TA.AperFunction,Plated,PTH,ComponentDrill
T3C0.0374
; #@! TA.AperFunction,Plated,PTH,ComponentDrill
T4C0.0394
; #@! TA.AperFunction,Plated,PTH,ComponentDrill
T5C0.1260
%
G90
G05
T1
X4.7869Y-3.3307
X4.8164Y-3.3248
X4.9981Y-2.264
X5.0769Y-2.264
X5.1204Y-3.4732
X5.1383Y-3.6398
X5.1412Y-3.5807
X5.155Y-3.1437
X5.159Y-3.8287
X5.1629Y-2.9469
X5.1826Y-3.1594
X5.1865Y-2.8287
X5.193Y-3.713
X5.1983Y-2.7697
X5.22Y-4.0591
X5.2239Y-3.5118
X5.2298Y-3.1398
X5.2338Y-2.8917
X5.2338Y-2.9311
X5.2338Y-2.9705
X5.2405Y-3.7738
X5.2405Y-3.8132
X5.2405Y-3.8526
X5.2519Y-3.1728
X5.2542Y-3.5012
X5.2692Y-3.0728
X5.2712Y-3.9565
X5.2771Y-3.4567
X5.2888Y-2.9735
X5.2889Y-3.1476
X5.2896Y-2.8889
X5.2956Y-3.1815
X5.2956Y-3.8526
X5.2968Y-3.7697
X5.3125Y-2.7657
X5.3164Y-3.0728
X5.3184Y-3.5138
X5.3207Y-3.9528
X5.323Y-3.6618
X5.3405Y-3.6439
X5.344Y-2.8917
X5.344Y-2.935
X5.344Y-2.9705
X5.3479Y-3.1476
X5.3507Y-3.7738
X5.3507Y-3.8171
X5.3507Y-3.8526
X5.3519Y-4.0571
X5.3877Y-3.1476
X5.4188Y-4.1673
X5.4345Y-3.4134
X5.4405Y-2.974
X5.5054Y-3.6516
X5.5058Y-3.3165
X5.5127Y-3.5656
X5.5133Y-2.7618
X5.5133Y-3.4603
X5.527Y-3.642
X5.529Y-3.6929
X5.5389Y-3.1358
X5.5408Y-3.595
X5.5507Y-3.0453
X5.555Y-3.3957
X5.5633Y-3.5785
X5.5645Y-3.7933
X5.5708Y-3.524
X5.575Y-3.7232
X5.5861Y-2.8012
X5.6137Y-3.0433
X5.6137Y-3.1457
X5.6196Y-3.2933
X5.6247Y-2.8012
X5.6393Y-3.7224
X5.6471Y-2.7618
X5.6487Y-3.3634
X5.655Y-3.2933
X5.6609Y-3.9528
X5.6629Y-3.1417
X5.6649Y-3.8236
X5.6678Y-3.0063
X5.6708Y-3.7437
X5.6727Y-3.7894
X5.6826Y-3.0854
X5.6983Y-3.7933
X5.6983Y-3.9291
X5.6994Y-3.7286
X5.7029Y-3.7526
X5.7072Y-2.8882
X5.7101Y-3.1437
X5.7101Y-3.2854
X5.7101Y-3.3091
X5.7289Y-3.4938
X5.7289Y-3.5489
X5.7289Y-3.6041
X5.7345Y-3.3752
X5.7387Y-2.7484
X5.7397Y-4.2165
X5.7407Y-3.815
X5.7436Y-3.9075
X5.7574Y-3.1441
X5.7613Y-4.1457
X5.7638Y-3.8039
X5.7672Y-3.8917
X5.7712Y-3.0835
X5.7743Y-3.3126
X5.782Y-2.7484
X5.7841Y-3.4938
X5.7841Y-3.5489
X5.7841Y-3.6041
X5.7958Y-2.9494
X5.7968Y-3.7874
X5.7968Y-3.813
X5.8011Y-3.3587
X5.8086Y-3.1713
X5.8139Y-2.8266
X5.8222Y-3.2992
X5.8392Y-3.4938
X5.8392Y-3.5489
X5.8392Y-3.6041
X5.841Y-3.1014
X5.8451Y-3.2933
X5.8495Y-3.1256
X5.8637Y-4.1122
X5.872Y-3.3085
X5.8725Y-3.3524
X5.8853Y-3.2343
X5.9036Y-3.7756
X5.9045Y-3.8124
X5.9239Y-3.7
X5.9282Y-2.8248
X5.9306Y-3.6752
X5.9355Y-2.9827
X5.9554Y-4.2315
X5.9606Y-3.7968
X5.9675Y-3.401
X5.9719Y-3.5728
X5.9826Y-4.2224
X5.9857Y-3.5
X5.9897Y-4.0512
X6.0015Y-3.1949
X6.0015Y-3.5833
X6.0074Y-3.813
X6.0113Y-3.9823
X6.0172Y-3.6988
X6.033Y-3.8071
X6.0605Y-3.5006
X6.0692Y-3.811
X6.0999Y-3.2067
X6.1078Y-3.5006
X6.1094Y-3.6988
X6.1364Y-3.1616
X6.142Y-3.0976
X6.1511Y-3.065
X6.1668Y-3.3524
X6.1668Y-3.6581
X6.1676Y-3.265
X6.1767Y-3.561
X6.1767Y-3.5807
X6.1767Y-3.6004
X6.1767Y-3.6201
X6.1767Y-3.6398
X6.1806Y-3.065
X6.183Y-3.2465
X6.2101Y-3.065
X6.2151Y-3.8343
X6.219Y-3.861
X6.2408Y-3.8067
X6.2613Y-3.0689
X6.2816Y-3.4365
X6.2983Y-3.8945
X6.3046Y-3.8366
X6.3125Y-3.3602
X6.3133Y-3.8606
X6.3204Y-4.1122
X6.3294Y-4.0618
X6.3381Y-3.3307
X6.3594Y-3.9697
X6.3696Y-3.2874
X6.3735Y-3.2047
X6.4727Y-2.5301
X6.6786Y-3.7777
X6.6786Y-3.8761
X6.6786Y-3.9273
X6.7089Y-2.5734
T2
X4.6673Y-4.2894
X4.6693Y-2.3622
X4.695Y-4.2226
X4.695Y-4.3562
X4.697Y-2.2954
X4.697Y-2.429
X4.7618Y-4.1949
X4.7618Y-4.3839
X4.7638Y-2.2677
X4.7638Y-2.4567
X4.8286Y-4.2226
X4.8286Y-4.3562
X4.8306Y-2.2954
X4.8306Y-2.429
X4.8563Y-4.2894
X4.8583Y-2.3622
X6.4783Y-2.3602
X6.4783Y-4.2894
X6.506Y-2.2934
X6.506Y-2.427
X6.506Y-4.2226
X6.506Y-4.3562
X6.5728Y-2.2657
X6.5728Y-2.4547
X6.5728Y-4.1949
X6.5728Y-4.3839
X6.6396Y-2.2934
X6.6396Y-2.427
X6.6396Y-4.2226
X6.6396Y-4.3562
X6.6673Y-2.3602
X6.6673Y-4.2894
T3
X5.0113Y-2.7047
X5.0113Y-2.8031
X5.0113Y-2.9016
X5.0113Y-3.0
X5.0113Y-3.0984
X5.0113Y-3.1969
X5.0113Y-3.4823
X5.0113Y-3.5807
X5.0113Y-3.6791
X5.0113Y-3.7776
X5.0113Y-3.876
X5.0113Y-3.9744
X5.0448Y-4.2904
X5.1432Y-4.2904
X5.2416Y-4.2904
X5.3401Y-4.2904
X5.4385Y-4.2904
X5.5369Y-4.2904
X5.7219Y-2.5374
X5.7908Y-4.2913
X5.8204Y-2.5374
X5.8893Y-4.2913
X5.9188Y-2.5374
X5.9877Y-4.2913
X6.0861Y-4.2913
X6.1845Y-4.2913
X6.283Y-4.2913
X6.4719Y-2.8583
X6.4719Y-2.9567
X6.4719Y-3.0551
X6.4719Y-3.1535
X6.4719Y-3.252
X6.4719Y-3.3504
X6.4719Y-3.4488
X6.4719Y-3.5472
T4
X5.3696Y-2.5354
X5.468Y-2.5354
X6.1811Y-2.5374
X6.2795Y-2.5374
T5
X4.7618Y-4.2894
X4.7638Y-2.3622
X6.5728Y-2.3602
X6.5728Y-4.2894
M30
