%TF.GenerationSoftware,KiCad,Pcbnew,8.0.1*%
%TF.CreationDate,2024-10-23T08:39:10+02:00*%
%TF.ProjectId,StealthKitty.kicad_pro,53746561-6c74-4684-9b69-7474792e6b69,rev?*%
%TF.SameCoordinates,Original*%
%TF.FileFunction,Soldermask,Top*%
%TF.FilePolarity,Negative*%
%FSLAX46Y46*%
G04 Gerber Fmt 4.6, Leading zero omitted, Abs format (unit mm)*
G04 Created by KiCad (PCBNEW 8.0.1) date 2024-10-23 08:39:10*
%MOMM*%
%LPD*%
G01*
G04 APERTURE LIST*
G04 Aperture macros list*
%AMRoundRect*
0 Rectangle with rounded corners*
0 $1 Rounding radius*
0 $2 $3 $4 $5 $6 $7 $8 $9 X,Y pos of 4 corners*
0 Add a 4 corners polygon primitive as box body*
4,1,4,$2,$3,$4,$5,$6,$7,$8,$9,$2,$3,0*
0 Add four circle primitives for the rounded corners*
1,1,$1+$1,$2,$3*
1,1,$1+$1,$4,$5*
1,1,$1+$1,$6,$7*
1,1,$1+$1,$8,$9*
0 Add four rect primitives between the rounded corners*
20,1,$1+$1,$2,$3,$4,$5,0*
20,1,$1+$1,$4,$5,$6,$7,0*
20,1,$1+$1,$6,$7,$8,$9,0*
20,1,$1+$1,$8,$9,$2,$3,0*%
G04 Aperture macros list end*
%ADD10C,0.010000*%
%ADD11RoundRect,0.140000X-0.170000X0.140000X-0.170000X-0.140000X0.170000X-0.140000X0.170000X0.140000X0*%
%ADD12C,1.500000*%
%ADD13RoundRect,0.225000X-0.225000X-0.250000X0.225000X-0.250000X0.225000X0.250000X-0.225000X0.250000X0*%
%ADD14RoundRect,0.135000X0.185000X-0.135000X0.185000X0.135000X-0.185000X0.135000X-0.185000X-0.135000X0*%
%ADD15RoundRect,0.135000X0.135000X0.185000X-0.135000X0.185000X-0.135000X-0.185000X0.135000X-0.185000X0*%
%ADD16RoundRect,0.225000X-0.250000X0.225000X-0.250000X-0.225000X0.250000X-0.225000X0.250000X0.225000X0*%
%ADD17RoundRect,0.140000X0.170000X-0.140000X0.170000X0.140000X-0.170000X0.140000X-0.170000X-0.140000X0*%
%ADD18RoundRect,0.250000X0.600000X0.725000X-0.600000X0.725000X-0.600000X-0.725000X0.600000X-0.725000X0*%
%ADD19O,1.700000X1.950000*%
%ADD20RoundRect,0.225000X0.225000X0.250000X-0.225000X0.250000X-0.225000X-0.250000X0.225000X-0.250000X0*%
%ADD21C,0.800000*%
%ADD22C,6.400000*%
%ADD23RoundRect,0.250000X0.600000X0.750000X-0.600000X0.750000X-0.600000X-0.750000X0.600000X-0.750000X0*%
%ADD24O,1.700000X2.000000*%
%ADD25RoundRect,0.250000X-0.600000X-0.725000X0.600000X-0.725000X0.600000X0.725000X-0.600000X0.725000X0*%
%ADD26R,1.300000X1.550000*%
%ADD27R,1.550000X1.300000*%
%ADD28RoundRect,0.140000X0.140000X0.170000X-0.140000X0.170000X-0.140000X-0.170000X0.140000X-0.170000X0*%
%ADD29R,0.802000X1.505000*%
%ADD30R,3.502000X2.613000*%
%ADD31R,2.400000X0.740000*%
%ADD32RoundRect,0.140000X-0.140000X-0.170000X0.140000X-0.170000X0.140000X0.170000X-0.140000X0.170000X0*%
%ADD33RoundRect,0.250000X-0.475000X0.250000X-0.475000X-0.250000X0.475000X-0.250000X0.475000X0.250000X0*%
%ADD34RoundRect,0.225000X0.250000X-0.225000X0.250000X0.225000X-0.250000X0.225000X-0.250000X-0.225000X0*%
%ADD35RoundRect,0.250000X0.725000X-0.600000X0.725000X0.600000X-0.725000X0.600000X-0.725000X-0.600000X0*%
%ADD36O,1.950000X1.700000*%
%ADD37RoundRect,0.135000X-0.185000X0.135000X-0.185000X-0.135000X0.185000X-0.135000X0.185000X0.135000X0*%
%ADD38RoundRect,0.237500X0.287500X0.237500X-0.287500X0.237500X-0.287500X-0.237500X0.287500X-0.237500X0*%
%ADD39R,4.100000X2.150000*%
%ADD40RoundRect,0.250000X-0.725000X0.600000X-0.725000X-0.600000X0.725000X-0.600000X0.725000X0.600000X0*%
%ADD41RoundRect,0.150000X-0.150000X0.325000X-0.150000X-0.325000X0.150000X-0.325000X0.150000X0.325000X0*%
%ADD42RoundRect,0.150000X-0.325000X0.150000X-0.325000X-0.150000X0.325000X-0.150000X0.325000X0.150000X0*%
%ADD43R,1.400000X1.200000*%
%ADD44RoundRect,0.135000X-0.135000X-0.185000X0.135000X-0.185000X0.135000X0.185000X-0.135000X0.185000X0*%
%ADD45RoundRect,0.237500X-0.237500X0.287500X-0.237500X-0.287500X0.237500X-0.287500X0.237500X0.287500X0*%
%ADD46R,0.600000X0.900000*%
%ADD47RoundRect,0.237500X0.237500X-0.287500X0.237500X0.287500X-0.237500X0.287500X-0.237500X-0.287500X0*%
%ADD48RoundRect,0.062500X0.375000X0.062500X-0.375000X0.062500X-0.375000X-0.062500X0.375000X-0.062500X0*%
%ADD49RoundRect,0.062500X0.062500X0.375000X-0.062500X0.375000X-0.062500X-0.375000X0.062500X-0.375000X0*%
%ADD50R,5.600000X5.600000*%
G04 APERTURE END LIST*
D10*
%TO.C,IC501*%
X154145000Y-84640000D02*
X153555000Y-84640000D01*
X153555000Y-83200000D01*
X154145000Y-83200000D01*
X154145000Y-84640000D01*
G36*
X154145000Y-84640000D02*
G01*
X153555000Y-84640000D01*
X153555000Y-83200000D01*
X154145000Y-83200000D01*
X154145000Y-84640000D01*
G37*
X154145000Y-87020000D02*
X153555000Y-87020000D01*
X153555000Y-85580000D01*
X154145000Y-85580000D01*
X154145000Y-87020000D01*
G36*
X154145000Y-87020000D02*
G01*
X153555000Y-87020000D01*
X153555000Y-85580000D01*
X154145000Y-85580000D01*
X154145000Y-87020000D01*
G37*
X154795000Y-84640000D02*
X154205000Y-84640000D01*
X154205000Y-83200000D01*
X154795000Y-83200000D01*
X154795000Y-84640000D01*
G36*
X154795000Y-84640000D02*
G01*
X154205000Y-84640000D01*
X154205000Y-83200000D01*
X154795000Y-83200000D01*
X154795000Y-84640000D01*
G37*
X154795000Y-87020000D02*
X154205000Y-87020000D01*
X154205000Y-85580000D01*
X154795000Y-85580000D01*
X154795000Y-87020000D01*
G36*
X154795000Y-87020000D02*
G01*
X154205000Y-87020000D01*
X154205000Y-85580000D01*
X154795000Y-85580000D01*
X154795000Y-87020000D01*
G37*
X155445000Y-84640000D02*
X154855000Y-84640000D01*
X154855000Y-83200000D01*
X155445000Y-83200000D01*
X155445000Y-84640000D01*
G36*
X155445000Y-84640000D02*
G01*
X154855000Y-84640000D01*
X154855000Y-83200000D01*
X155445000Y-83200000D01*
X155445000Y-84640000D01*
G37*
X155445000Y-87020000D02*
X154855000Y-87020000D01*
X154855000Y-85580000D01*
X155445000Y-85580000D01*
X155445000Y-87020000D01*
G36*
X155445000Y-87020000D02*
G01*
X154855000Y-87020000D01*
X154855000Y-85580000D01*
X155445000Y-85580000D01*
X155445000Y-87020000D01*
G37*
X156095000Y-84640000D02*
X155505000Y-84640000D01*
X155505000Y-83200000D01*
X156095000Y-83200000D01*
X156095000Y-84640000D01*
G36*
X156095000Y-84640000D02*
G01*
X155505000Y-84640000D01*
X155505000Y-83200000D01*
X156095000Y-83200000D01*
X156095000Y-84640000D01*
G37*
X156095000Y-87020000D02*
X155505000Y-87020000D01*
X155505000Y-85580000D01*
X156095000Y-85580000D01*
X156095000Y-87020000D01*
G36*
X156095000Y-87020000D02*
G01*
X155505000Y-87020000D01*
X155505000Y-85580000D01*
X156095000Y-85580000D01*
X156095000Y-87020000D01*
G37*
%TD*%
D11*
%TO.C,C508*%
X151425000Y-80930000D03*
X151425000Y-81890000D03*
%TD*%
D12*
%TO.C,TP301*%
X161130000Y-94620000D03*
%TD*%
D13*
%TO.C,Cs301*%
X146775000Y-88900000D03*
X148325000Y-88900000D03*
%TD*%
D14*
%TO.C,R502*%
X151920000Y-86920000D03*
X151920000Y-85900000D03*
%TD*%
D15*
%TO.C,R402*%
X154810000Y-106250000D03*
X153790000Y-106250000D03*
%TD*%
D12*
%TO.C,TP310*%
X165900000Y-86800000D03*
%TD*%
D11*
%TO.C,C503*%
X154025000Y-87730000D03*
X154025000Y-88690000D03*
%TD*%
D14*
%TO.C,R403*%
X132600000Y-69635000D03*
X132600000Y-68615000D03*
%TD*%
%TO.C,R504*%
X152525000Y-83920000D03*
X152525000Y-82900000D03*
%TD*%
D16*
%TO.C,C206*%
X140737354Y-111999336D03*
X140737354Y-113549336D03*
%TD*%
D17*
%TO.C,C204*%
X136800000Y-87080000D03*
X136800000Y-86120000D03*
%TD*%
D18*
%TO.C,SW501*%
X156000000Y-75000000D03*
D19*
X153500000Y-75000000D03*
X151000000Y-75000000D03*
%TD*%
D12*
%TO.C,TP203*%
X144190000Y-105040000D03*
%TD*%
D20*
%TO.C,C504*%
X148175000Y-80700000D03*
X146625000Y-80700000D03*
%TD*%
D21*
%TO.C,H402*%
X170212500Y-70500000D03*
X170915444Y-68802944D03*
X170915444Y-72197056D03*
X172612500Y-68100000D03*
D22*
X172612500Y-70500000D03*
D21*
X172612500Y-72900000D03*
X174309556Y-68802944D03*
X174309556Y-72197056D03*
X175012500Y-70500000D03*
%TD*%
D23*
%TO.C,Alim_charger501*%
X165162500Y-75000000D03*
D24*
X162662500Y-75000000D03*
%TD*%
D25*
%TO.C,J301*%
X152750000Y-119550000D03*
D19*
X155250000Y-119550000D03*
X157750000Y-119550000D03*
X160250000Y-119550000D03*
X162750000Y-119550000D03*
X165250000Y-119550000D03*
%TD*%
D26*
%TO.C,SW402*%
X141849499Y-91865125D03*
X141849499Y-99815125D03*
X137349499Y-91865125D03*
X137349499Y-99815125D03*
%TD*%
D14*
%TO.C,R405*%
X147000000Y-108610000D03*
X147000000Y-107590000D03*
%TD*%
D27*
%TO.C,SW401*%
X156325000Y-110350000D03*
X164275000Y-110350000D03*
X156325000Y-114850000D03*
X164275000Y-114850000D03*
%TD*%
D28*
%TO.C,C205*%
X139184950Y-80925589D03*
X138224950Y-80925589D03*
%TD*%
D21*
%TO.C,H401*%
X124262500Y-70550000D03*
X124965444Y-68852944D03*
X124965444Y-72247056D03*
X126662500Y-68150000D03*
D22*
X126662500Y-70550000D03*
D21*
X126662500Y-72950000D03*
X128359556Y-68852944D03*
X128359556Y-72247056D03*
X129062500Y-70550000D03*
%TD*%
D29*
%TO.C,U2*%
X138272977Y-109858142D03*
X139542977Y-109858142D03*
X140812977Y-109858142D03*
X142082977Y-109858142D03*
X142082977Y-104863142D03*
X140812977Y-104863142D03*
X139542977Y-104863142D03*
X138272977Y-104863142D03*
D30*
X140177977Y-107360642D03*
%TD*%
D11*
%TO.C,C405*%
X151480000Y-94620000D03*
X151480000Y-95580000D03*
%TD*%
D14*
%TO.C,R404*%
X134600000Y-69635000D03*
X134600000Y-68615000D03*
%TD*%
D31*
%TO.C,J401*%
X173650000Y-112810000D03*
X169750000Y-112810000D03*
X173650000Y-111540000D03*
X169750000Y-111540000D03*
X173650000Y-110270000D03*
X169750000Y-110270000D03*
X173650000Y-109000000D03*
X169750000Y-109000000D03*
X173650000Y-107730000D03*
X169750000Y-107730000D03*
X173650000Y-106460000D03*
X169750000Y-106460000D03*
X173650000Y-105190000D03*
X169750000Y-105190000D03*
%TD*%
D14*
%TO.C,R505*%
X151425000Y-83920000D03*
X151425000Y-82900000D03*
%TD*%
D32*
%TO.C,C411*%
X159220000Y-104750000D03*
X160180000Y-104750000D03*
%TD*%
D12*
%TO.C,TP204*%
X144100000Y-101630000D03*
%TD*%
D33*
%TO.C,C509*%
X160300000Y-88950000D03*
X160300000Y-90850000D03*
%TD*%
D34*
%TO.C,C207*%
X136700000Y-110175000D03*
X136700000Y-108625000D03*
%TD*%
D35*
%TO.C,J303*%
X170050000Y-100650000D03*
D36*
X170050000Y-98150000D03*
X170050000Y-95650000D03*
X170050000Y-93150000D03*
X170050000Y-90650000D03*
X170050000Y-88150000D03*
X170050000Y-85650000D03*
X170050000Y-83150000D03*
%TD*%
D23*
%TO.C,BT501*%
X144550000Y-74950000D03*
D24*
X142050000Y-74950000D03*
%TD*%
D33*
%TO.C,C507*%
X158100000Y-88950000D03*
X158100000Y-90850000D03*
%TD*%
D28*
%TO.C,C412*%
X137910000Y-101500000D03*
X136950000Y-101500000D03*
%TD*%
D37*
%TO.C,R501*%
X150396845Y-85961885D03*
X150396845Y-86981885D03*
%TD*%
D11*
%TO.C,C408*%
X150100000Y-94620000D03*
X150100000Y-95580000D03*
%TD*%
D38*
%TO.C,D501*%
X171875000Y-75900000D03*
X170125000Y-75900000D03*
%TD*%
D20*
%TO.C,C208*%
X138650000Y-103000000D03*
X137100000Y-103000000D03*
%TD*%
D39*
%TO.C,L501*%
X161725000Y-82550000D03*
X161725000Y-86650000D03*
%TD*%
D29*
%TO.C,U1*%
X138095000Y-87497500D03*
X139365000Y-87497500D03*
X140635000Y-87497500D03*
X141905000Y-87497500D03*
X141905000Y-82502500D03*
X140635000Y-82502500D03*
X139365000Y-82502500D03*
X138095000Y-82502500D03*
D30*
X140000000Y-85000000D03*
%TD*%
D32*
%TO.C,Cio301*%
X150670000Y-88920000D03*
X151630000Y-88920000D03*
%TD*%
D40*
%TO.C,J201*%
X132950000Y-79250000D03*
D36*
X132950000Y-81750000D03*
X132950000Y-84250000D03*
X132950000Y-86750000D03*
X132950000Y-89250000D03*
X132950000Y-91750000D03*
%TD*%
D17*
%TO.C,C404*%
X149200000Y-106780000D03*
X149200000Y-105820000D03*
%TD*%
D41*
%TO.C,U301*%
X152300000Y-91200000D03*
X151500000Y-91200000D03*
X150700000Y-91200000D03*
X149900000Y-91200000D03*
X149100000Y-91200000D03*
X148300000Y-91200000D03*
D42*
X148300000Y-92200000D03*
D41*
X148300000Y-93200000D03*
X149100000Y-93200000D03*
X149900000Y-93200000D03*
X150700000Y-93200000D03*
X151500000Y-93200000D03*
X152300000Y-93200000D03*
D42*
X152300000Y-92200000D03*
%TD*%
D43*
%TO.C,Y401*%
X161339689Y-101650000D03*
X159139689Y-101650000D03*
X159139689Y-103350000D03*
X161339689Y-103350000D03*
%TD*%
D28*
%TO.C,C401*%
X147680000Y-103050000D03*
X146720000Y-103050000D03*
%TD*%
D20*
%TO.C,C203*%
X138375000Y-89400000D03*
X136825000Y-89400000D03*
%TD*%
D28*
%TO.C,C403*%
X159559222Y-100010362D03*
X158599222Y-100010362D03*
%TD*%
D21*
%TO.C,H404*%
X124212500Y-119500000D03*
X124915444Y-117802944D03*
X124915444Y-121197056D03*
X126612500Y-117100000D03*
D22*
X126612500Y-119500000D03*
D21*
X126612500Y-121900000D03*
X128309556Y-117802944D03*
X128309556Y-121197056D03*
X129012500Y-119500000D03*
%TD*%
D12*
%TO.C,TP302*%
X146200000Y-91700000D03*
%TD*%
D44*
%TO.C,R507*%
X174490000Y-75900000D03*
X175510000Y-75900000D03*
%TD*%
D45*
%TO.C,D402*%
X134600000Y-72250000D03*
X134600000Y-74000000D03*
%TD*%
D40*
%TO.C,J202*%
X132950000Y-99000000D03*
D36*
X132950000Y-101500000D03*
X132950000Y-104000000D03*
X132950000Y-106500000D03*
X132950000Y-109000000D03*
X132950000Y-111500000D03*
%TD*%
D28*
%TO.C,C502*%
X155580000Y-82330000D03*
X154620000Y-82330000D03*
%TD*%
D12*
%TO.C,TP201*%
X143673142Y-89327084D03*
%TD*%
D16*
%TO.C,C402*%
X155800000Y-94225000D03*
X155800000Y-95775000D03*
%TD*%
D12*
%TO.C,TP308*%
X163900000Y-90900000D03*
%TD*%
D14*
%TO.C,R503*%
X157325000Y-84120000D03*
X157325000Y-83100000D03*
%TD*%
D28*
%TO.C,C409*%
X161819689Y-100006057D03*
X160859689Y-100006057D03*
%TD*%
D20*
%TO.C,C407*%
X148130000Y-95560618D03*
X146580000Y-95560618D03*
%TD*%
D45*
%TO.C,D401*%
X132600000Y-72250000D03*
X132600000Y-74000000D03*
%TD*%
D15*
%TO.C,R401*%
X154810000Y-107400000D03*
X153790000Y-107400000D03*
%TD*%
D25*
%TO.C,J302*%
X133800000Y-119525000D03*
D19*
X136300000Y-119525000D03*
X138800000Y-119525000D03*
X141300000Y-119525000D03*
X143800000Y-119525000D03*
X146300000Y-119525000D03*
%TD*%
D14*
%TO.C,R406*%
X141300000Y-102460000D03*
X141300000Y-101440000D03*
%TD*%
D16*
%TO.C,C202*%
X139200000Y-112000000D03*
X139200000Y-113550000D03*
%TD*%
D21*
%TO.C,H403*%
X175012500Y-119500000D03*
X174309556Y-117802944D03*
X174309556Y-121197056D03*
X172612500Y-117100000D03*
D22*
X172612500Y-119500000D03*
D21*
X172612500Y-121900000D03*
X170915444Y-117802944D03*
X170915444Y-121197056D03*
X170212500Y-119500000D03*
%TD*%
D12*
%TO.C,TP202*%
X143920000Y-84150000D03*
%TD*%
D46*
%TO.C,PS501*%
X148550000Y-82400000D03*
X147600000Y-82400000D03*
X146650000Y-82400000D03*
X146650000Y-85200000D03*
X148550000Y-85200000D03*
%TD*%
D47*
%TO.C,D403*%
X145700000Y-108550000D03*
X145700000Y-106800000D03*
%TD*%
D20*
%TO.C,C506*%
X148225000Y-86800000D03*
X146675000Y-86800000D03*
%TD*%
D28*
%TO.C,C505*%
X158168245Y-81905813D03*
X157208245Y-81905813D03*
%TD*%
D13*
%TO.C,C201*%
X139925000Y-89600000D03*
X141475000Y-89600000D03*
%TD*%
D48*
%TO.C,U401*%
X156015188Y-103443226D03*
X156015188Y-102943226D03*
X156015188Y-102443226D03*
X156015188Y-101943226D03*
X156015188Y-101443226D03*
X156015188Y-100943226D03*
X156015188Y-100443226D03*
X156015188Y-99943226D03*
X156015188Y-99443226D03*
X156015188Y-98943226D03*
X156015188Y-98443226D03*
X156015188Y-97943226D03*
D49*
X155327688Y-97255726D03*
X154827688Y-97255726D03*
X154327688Y-97255726D03*
X153827688Y-97255726D03*
X153327688Y-97255726D03*
X152827688Y-97255726D03*
X152327688Y-97255726D03*
X151827688Y-97255726D03*
X151327688Y-97255726D03*
X150827688Y-97255726D03*
X150327688Y-97255726D03*
X149827688Y-97255726D03*
D48*
X149140188Y-97943226D03*
X149140188Y-98443226D03*
X149140188Y-98943226D03*
X149140188Y-99443226D03*
X149140188Y-99943226D03*
X149140188Y-100443226D03*
X149140188Y-100943226D03*
X149140188Y-101443226D03*
X149140188Y-101943226D03*
X149140188Y-102443226D03*
X149140188Y-102943226D03*
X149140188Y-103443226D03*
D49*
X149827688Y-104130726D03*
X150327688Y-104130726D03*
X150827688Y-104130726D03*
X151327688Y-104130726D03*
X151827688Y-104130726D03*
X152327688Y-104130726D03*
X152827688Y-104130726D03*
X153327688Y-104130726D03*
X153827688Y-104130726D03*
X154327688Y-104130726D03*
X154827688Y-104130726D03*
X155327688Y-104130726D03*
D50*
X152577688Y-100693226D03*
%TD*%
D14*
%TO.C,R506*%
X152525000Y-81920000D03*
X152525000Y-80900000D03*
%TD*%
D12*
%TO.C,TP307*%
X158300000Y-94600000D03*
%TD*%
D33*
%TO.C,C501*%
X155600000Y-88050000D03*
X155600000Y-89950000D03*
%TD*%
D12*
%TO.C,TP309*%
X163950000Y-94650000D03*
%TD*%
D44*
%TO.C,R407*%
X138940000Y-101500000D03*
X139960000Y-101500000D03*
%TD*%
D11*
%TO.C,C406*%
X156800000Y-105440000D03*
X156800000Y-106400000D03*
%TD*%
M02*
