%TF.GenerationSoftware,KiCad,Pcbnew,8.0.1*%
%TF.CreationDate,2024-10-23T08:32:37+02:00*%
%TF.ProjectId,StealthKitty.kicad_pro,53746561-6c74-4684-9b69-7474792e6b69,rev?*%
%TF.SameCoordinates,Original*%
%TF.FileFunction,Paste,Top*%
%TF.FilePolarity,Positive*%
%FSLAX46Y46*%
G04 Gerber Fmt 4.6, Leading zero omitted, Abs format (unit mm)*
G04 Created by KiCad (PCBNEW 8.0.1) date 2024-10-23 08:32:37*
%MOMM*%
%LPD*%
G01*
G04 APERTURE LIST*
G04 Aperture macros list*
%AMRoundRect*
0 Rectangle with rounded corners*
0 $1 Rounding radius*
0 $2 $3 $4 $5 $6 $7 $8 $9 X,Y pos of 4 corners*
0 Add a 4 corners polygon primitive as box body*
4,1,4,$2,$3,$4,$5,$6,$7,$8,$9,$2,$3,0*
0 Add four circle primitives for the rounded corners*
1,1,$1+$1,$2,$3*
1,1,$1+$1,$4,$5*
1,1,$1+$1,$6,$7*
1,1,$1+$1,$8,$9*
0 Add four rect primitives between the rounded corners*
20,1,$1+$1,$2,$3,$4,$5,0*
20,1,$1+$1,$4,$5,$6,$7,0*
20,1,$1+$1,$6,$7,$8,$9,0*
20,1,$1+$1,$8,$9,$2,$3,0*%
G04 Aperture macros list end*
%ADD10RoundRect,0.140000X-0.170000X0.140000X-0.170000X-0.140000X0.170000X-0.140000X0.170000X0.140000X0*%
%ADD11RoundRect,0.225000X-0.225000X-0.250000X0.225000X-0.250000X0.225000X0.250000X-0.225000X0.250000X0*%
%ADD12RoundRect,0.135000X0.185000X-0.135000X0.185000X0.135000X-0.185000X0.135000X-0.185000X-0.135000X0*%
%ADD13RoundRect,0.135000X0.135000X0.185000X-0.135000X0.185000X-0.135000X-0.185000X0.135000X-0.185000X0*%
%ADD14RoundRect,0.225000X-0.250000X0.225000X-0.250000X-0.225000X0.250000X-0.225000X0.250000X0.225000X0*%
%ADD15RoundRect,0.140000X0.170000X-0.140000X0.170000X0.140000X-0.170000X0.140000X-0.170000X-0.140000X0*%
%ADD16RoundRect,0.225000X0.225000X0.250000X-0.225000X0.250000X-0.225000X-0.250000X0.225000X-0.250000X0*%
%ADD17R,1.300000X1.550000*%
%ADD18R,1.550000X1.300000*%
%ADD19RoundRect,0.140000X0.140000X0.170000X-0.140000X0.170000X-0.140000X-0.170000X0.140000X-0.170000X0*%
%ADD20R,0.802000X1.505000*%
%ADD21R,2.101200X1.567800*%
%ADD22R,2.400000X0.740000*%
%ADD23RoundRect,0.140000X-0.140000X-0.170000X0.140000X-0.170000X0.140000X0.170000X-0.140000X0.170000X0*%
%ADD24RoundRect,0.250000X-0.475000X0.250000X-0.475000X-0.250000X0.475000X-0.250000X0.475000X0.250000X0*%
%ADD25RoundRect,0.225000X0.250000X-0.225000X0.250000X0.225000X-0.250000X0.225000X-0.250000X-0.225000X0*%
%ADD26RoundRect,0.135000X-0.185000X0.135000X-0.185000X-0.135000X0.185000X-0.135000X0.185000X0.135000X0*%
%ADD27RoundRect,0.237500X0.287500X0.237500X-0.287500X0.237500X-0.287500X-0.237500X0.287500X-0.237500X0*%
%ADD28R,4.100000X2.150000*%
%ADD29RoundRect,0.150000X-0.150000X0.325000X-0.150000X-0.325000X0.150000X-0.325000X0.150000X0.325000X0*%
%ADD30RoundRect,0.150000X-0.325000X0.150000X-0.325000X-0.150000X0.325000X-0.150000X0.325000X0.150000X0*%
%ADD31R,1.400000X1.200000*%
%ADD32RoundRect,0.135000X-0.135000X-0.185000X0.135000X-0.185000X0.135000X0.185000X-0.135000X0.185000X0*%
%ADD33RoundRect,0.237500X-0.237500X0.287500X-0.237500X-0.287500X0.237500X-0.287500X0.237500X0.287500X0*%
%ADD34R,0.490000X1.340000*%
%ADD35R,0.600000X0.900000*%
%ADD36RoundRect,0.237500X0.237500X-0.287500X0.237500X0.287500X-0.237500X0.287500X-0.237500X-0.287500X0*%
%ADD37RoundRect,0.250000X0.315000X0.315000X-0.315000X0.315000X-0.315000X-0.315000X0.315000X-0.315000X0*%
%ADD38RoundRect,0.062500X0.375000X0.062500X-0.375000X0.062500X-0.375000X-0.062500X0.375000X-0.062500X0*%
%ADD39RoundRect,0.062500X0.062500X0.375000X-0.062500X0.375000X-0.062500X-0.375000X0.062500X-0.375000X0*%
G04 APERTURE END LIST*
D10*
%TO.C,C508*%
X151425000Y-80930000D03*
X151425000Y-81890000D03*
%TD*%
D11*
%TO.C,Cs301*%
X146775000Y-88900000D03*
X148325000Y-88900000D03*
%TD*%
D12*
%TO.C,R502*%
X151920000Y-86920000D03*
X151920000Y-85900000D03*
%TD*%
D13*
%TO.C,R402*%
X154810000Y-106250000D03*
X153790000Y-106250000D03*
%TD*%
D10*
%TO.C,C503*%
X154025000Y-87730000D03*
X154025000Y-88690000D03*
%TD*%
D12*
%TO.C,R403*%
X132600000Y-69635000D03*
X132600000Y-68615000D03*
%TD*%
%TO.C,R504*%
X152525000Y-83920000D03*
X152525000Y-82900000D03*
%TD*%
D14*
%TO.C,C206*%
X140737354Y-111999336D03*
X140737354Y-113549336D03*
%TD*%
D15*
%TO.C,C204*%
X136800000Y-87080000D03*
X136800000Y-86120000D03*
%TD*%
D16*
%TO.C,C504*%
X148175000Y-80700000D03*
X146625000Y-80700000D03*
%TD*%
D17*
%TO.C,SW402*%
X141849499Y-91865125D03*
X141849499Y-99815125D03*
X137349499Y-91865125D03*
X137349499Y-99815125D03*
%TD*%
D12*
%TO.C,R405*%
X147000000Y-108610000D03*
X147000000Y-107590000D03*
%TD*%
D18*
%TO.C,SW401*%
X156325000Y-110350000D03*
X164275000Y-110350000D03*
X156325000Y-114850000D03*
X164275000Y-114850000D03*
%TD*%
D19*
%TO.C,C205*%
X139184950Y-80925589D03*
X138224950Y-80925589D03*
%TD*%
D20*
%TO.C,U2*%
X138272977Y-109858142D03*
X139542977Y-109858142D03*
X140812977Y-109858142D03*
X142082977Y-109858142D03*
X142082977Y-104863142D03*
X140812977Y-104863142D03*
X139542977Y-104863142D03*
X138272977Y-104863142D03*
D21*
X140177977Y-107360642D03*
%TD*%
D10*
%TO.C,C405*%
X151480000Y-94620000D03*
X151480000Y-95580000D03*
%TD*%
D12*
%TO.C,R404*%
X134600000Y-69635000D03*
X134600000Y-68615000D03*
%TD*%
D22*
%TO.C,J401*%
X173650000Y-112810000D03*
X169750000Y-112810000D03*
X173650000Y-111540000D03*
X169750000Y-111540000D03*
X173650000Y-110270000D03*
X169750000Y-110270000D03*
X173650000Y-109000000D03*
X169750000Y-109000000D03*
X173650000Y-107730000D03*
X169750000Y-107730000D03*
X173650000Y-106460000D03*
X169750000Y-106460000D03*
X173650000Y-105190000D03*
X169750000Y-105190000D03*
%TD*%
D12*
%TO.C,R505*%
X151425000Y-83920000D03*
X151425000Y-82900000D03*
%TD*%
D23*
%TO.C,C411*%
X159220000Y-104750000D03*
X160180000Y-104750000D03*
%TD*%
D24*
%TO.C,C509*%
X160300000Y-88950000D03*
X160300000Y-90850000D03*
%TD*%
D25*
%TO.C,C207*%
X136700000Y-110175000D03*
X136700000Y-108625000D03*
%TD*%
D24*
%TO.C,C507*%
X158100000Y-88950000D03*
X158100000Y-90850000D03*
%TD*%
D19*
%TO.C,C412*%
X137910000Y-101500000D03*
X136950000Y-101500000D03*
%TD*%
D26*
%TO.C,R501*%
X150396845Y-85961885D03*
X150396845Y-86981885D03*
%TD*%
D10*
%TO.C,C408*%
X150100000Y-94620000D03*
X150100000Y-95580000D03*
%TD*%
D27*
%TO.C,D501*%
X171875000Y-75900000D03*
X170125000Y-75900000D03*
%TD*%
D16*
%TO.C,C208*%
X138650000Y-103000000D03*
X137100000Y-103000000D03*
%TD*%
D28*
%TO.C,L501*%
X161725000Y-82550000D03*
X161725000Y-86650000D03*
%TD*%
D20*
%TO.C,U1*%
X138095000Y-87497500D03*
X139365000Y-87497500D03*
X140635000Y-87497500D03*
X141905000Y-87497500D03*
X141905000Y-82502500D03*
X140635000Y-82502500D03*
X139365000Y-82502500D03*
X138095000Y-82502500D03*
D21*
X140000000Y-85000000D03*
%TD*%
D23*
%TO.C,Cio301*%
X150670000Y-88920000D03*
X151630000Y-88920000D03*
%TD*%
D15*
%TO.C,C404*%
X149200000Y-106780000D03*
X149200000Y-105820000D03*
%TD*%
D29*
%TO.C,U301*%
X152300000Y-91200000D03*
X151500000Y-91200000D03*
X150700000Y-91200000D03*
X149900000Y-91200000D03*
X149100000Y-91200000D03*
X148300000Y-91200000D03*
D30*
X148300000Y-92200000D03*
D29*
X148300000Y-93200000D03*
X149100000Y-93200000D03*
X149900000Y-93200000D03*
X150700000Y-93200000D03*
X151500000Y-93200000D03*
X152300000Y-93200000D03*
D30*
X152300000Y-92200000D03*
%TD*%
D31*
%TO.C,Y401*%
X161339689Y-101650000D03*
X159139689Y-101650000D03*
X159139689Y-103350000D03*
X161339689Y-103350000D03*
%TD*%
D19*
%TO.C,C401*%
X147680000Y-103050000D03*
X146720000Y-103050000D03*
%TD*%
D16*
%TO.C,C203*%
X138375000Y-89400000D03*
X136825000Y-89400000D03*
%TD*%
D19*
%TO.C,C403*%
X159559222Y-100010362D03*
X158599222Y-100010362D03*
%TD*%
D32*
%TO.C,R507*%
X174490000Y-75900000D03*
X175510000Y-75900000D03*
%TD*%
D33*
%TO.C,D402*%
X134600000Y-72250000D03*
X134600000Y-74000000D03*
%TD*%
D19*
%TO.C,C502*%
X155580000Y-82330000D03*
X154620000Y-82330000D03*
%TD*%
D14*
%TO.C,C402*%
X155800000Y-94225000D03*
X155800000Y-95775000D03*
%TD*%
D12*
%TO.C,R503*%
X157325000Y-84120000D03*
X157325000Y-83100000D03*
%TD*%
D19*
%TO.C,C409*%
X161819689Y-100006057D03*
X160859689Y-100006057D03*
%TD*%
D16*
%TO.C,C407*%
X148130000Y-95560618D03*
X146580000Y-95560618D03*
%TD*%
D33*
%TO.C,D401*%
X132600000Y-72250000D03*
X132600000Y-74000000D03*
%TD*%
D13*
%TO.C,R401*%
X154810000Y-107400000D03*
X153790000Y-107400000D03*
%TD*%
D34*
%TO.C,IC501*%
X153850000Y-86300000D03*
X154500000Y-86300000D03*
X155150000Y-86300000D03*
X155800000Y-86300000D03*
X155800000Y-83920000D03*
X155150000Y-83920000D03*
X154500000Y-83920000D03*
X153850000Y-83920000D03*
%TD*%
D12*
%TO.C,R406*%
X141300000Y-102460000D03*
X141300000Y-101440000D03*
%TD*%
D14*
%TO.C,C202*%
X139200000Y-112000000D03*
X139200000Y-113550000D03*
%TD*%
D35*
%TO.C,PS501*%
X148550000Y-82400000D03*
X147600000Y-82400000D03*
X146650000Y-82400000D03*
X146650000Y-85200000D03*
X148550000Y-85200000D03*
%TD*%
D36*
%TO.C,D403*%
X145700000Y-108550000D03*
X145700000Y-106800000D03*
%TD*%
D16*
%TO.C,C506*%
X148225000Y-86800000D03*
X146675000Y-86800000D03*
%TD*%
D19*
%TO.C,C505*%
X158168245Y-81905813D03*
X157208245Y-81905813D03*
%TD*%
D11*
%TO.C,C201*%
X139925000Y-89600000D03*
X141475000Y-89600000D03*
%TD*%
D37*
%TO.C,U401*%
X154677688Y-102793226D03*
X154677688Y-101393226D03*
X154677688Y-99993226D03*
X154677688Y-98593226D03*
X153277688Y-102793226D03*
X153277688Y-101393226D03*
X153277688Y-99993226D03*
X153277688Y-98593226D03*
X151877688Y-102793226D03*
X151877688Y-101393226D03*
X151877688Y-99993226D03*
X151877688Y-98593226D03*
X150477688Y-102793226D03*
X150477688Y-101393226D03*
X150477688Y-99993226D03*
X150477688Y-98593226D03*
D38*
X156015188Y-103443226D03*
X156015188Y-102943226D03*
X156015188Y-102443226D03*
X156015188Y-101943226D03*
X156015188Y-101443226D03*
X156015188Y-100943226D03*
X156015188Y-100443226D03*
X156015188Y-99943226D03*
X156015188Y-99443226D03*
X156015188Y-98943226D03*
X156015188Y-98443226D03*
X156015188Y-97943226D03*
D39*
X155327688Y-97255726D03*
X154827688Y-97255726D03*
X154327688Y-97255726D03*
X153827688Y-97255726D03*
X153327688Y-97255726D03*
X152827688Y-97255726D03*
X152327688Y-97255726D03*
X151827688Y-97255726D03*
X151327688Y-97255726D03*
X150827688Y-97255726D03*
X150327688Y-97255726D03*
X149827688Y-97255726D03*
D38*
X149140188Y-97943226D03*
X149140188Y-98443226D03*
X149140188Y-98943226D03*
X149140188Y-99443226D03*
X149140188Y-99943226D03*
X149140188Y-100443226D03*
X149140188Y-100943226D03*
X149140188Y-101443226D03*
X149140188Y-101943226D03*
X149140188Y-102443226D03*
X149140188Y-102943226D03*
X149140188Y-103443226D03*
D39*
X149827688Y-104130726D03*
X150327688Y-104130726D03*
X150827688Y-104130726D03*
X151327688Y-104130726D03*
X151827688Y-104130726D03*
X152327688Y-104130726D03*
X152827688Y-104130726D03*
X153327688Y-104130726D03*
X153827688Y-104130726D03*
X154327688Y-104130726D03*
X154827688Y-104130726D03*
X155327688Y-104130726D03*
%TD*%
D12*
%TO.C,R506*%
X152525000Y-81920000D03*
X152525000Y-80900000D03*
%TD*%
D24*
%TO.C,C501*%
X155600000Y-88050000D03*
X155600000Y-89950000D03*
%TD*%
D32*
%TO.C,R407*%
X138940000Y-101500000D03*
X139960000Y-101500000D03*
%TD*%
D10*
%TO.C,C406*%
X156800000Y-105440000D03*
X156800000Y-106400000D03*
%TD*%
M02*
